midi.Pattern(format=1, resolution=480, tracks=\
[midi.Track(\
  [midi.TimeSignatureEvent(tick=0, data=[4, 2, 24, 8]),
   midi.SetTempoEvent(tick=142932, data=[7, 161, 32]),
   midi.EndOfTrackEvent(tick=1, data=[])]),
 midi.Track(\
  [midi.TextMetaEvent(tick=0, text='start', data=[115, 116, 97, 114, 116]),
   midi.TimeSignatureEvent(tick=0, data=[4, 2, 24, 8]),
   midi.KeySignatureEvent(tick=0, data=[255, 0]),
   midi.SetTempoEvent(tick=0, data=[12, 11, 224]),
   midi.ProgramChangeEvent(tick=0, channel=0, data=[0]),
   midi.ControlChangeEvent(tick=0, channel=0, data=[7, 100]),
   midi.ControlChangeEvent(tick=0, channel=0, data=[10, 64]),
   midi.ControlChangeEvent(tick=0, channel=0, data=[91, 0]),
   midi.ControlChangeEvent(tick=0, channel=0, data=[93, 0]),
   midi.ControlChangeEvent(tick=0, channel=0, data=[121, 0]),
   midi.PortEvent(tick=0, data=[0]),
   midi.NoteOnEvent(tick=0, channel=0, data=[89, 64]),
   midi.NoteOffEvent(tick=455, channel=0, data=[89, 0]),
   midi.NoteOnEvent(tick=25, channel=0, data=[93, 64]),
   midi.NoteOffEvent(tick=455, channel=0, data=[93, 0]),
   midi.NoteOnEvent(tick=25, channel=0, data=[88, 64]),
   midi.NoteOffEvent(tick=911, channel=0, data=[88, 0]),
   midi.NoteOnEvent(tick=49, channel=0, data=[81, 64]),
   midi.NoteOnEvent(tick=0, channel=0, data=[86, 64]),
   midi.NoteOffEvent(tick=1823, channel=0, data=[81, 0]),
   midi.NoteOffEvent(tick=0, channel=0, data=[86, 0]),
   midi.NoteOnEvent(tick=97, channel=0, data=[86, 64]),
   midi.NoteOnEvent(tick=0, channel=0, data=[98, 64]),
   midi.NoteOffEvent(tick=1595, channel=0, data=[86, 0]),
   midi.NoteOffEvent(tick=0, channel=0, data=[98, 0]),
   midi.NoteOnEvent(tick=23365, channel=0, data=[81, 80]),
   midi.NoteOffEvent(tick=227, channel=0, data=[81, 0]),
   midi.NoteOnEvent(tick=13, channel=0, data=[77, 80]),
   midi.NoteOffEvent(tick=227, channel=0, data=[77, 0]),
   midi.NoteOnEvent(tick=13, channel=0, data=[76, 80]),
   midi.NoteOffEvent(tick=227, channel=0, data=[76, 0]),
   midi.NoteOnEvent(tick=13, channel=0, data=[69, 80]),
   midi.NoteOffEvent(tick=227, channel=0, data=[69, 0]),
   midi.NoteOnEvent(tick=13, channel=0, data=[81, 80]),
   midi.NoteOffEvent(tick=227, channel=0, data=[81, 0]),
   midi.NoteOnEvent(tick=13, channel=0, data=[77, 80]),
   midi.NoteOffEvent(tick=227, channel=0, data=[77, 0]),
   midi.NoteOnEvent(tick=13, channel=0, data=[76, 80]),
   midi.NoteOffEvent(tick=227, channel=0, data=[76, 0]),
   midi.NoteOnEvent(tick=13, channel=0, data=[69, 80]),
   midi.NoteOffEvent(tick=227, channel=0, data=[69, 0]),
   midi.NoteOnEvent(tick=13, channel=0, data=[57, 80]),
   midi.NoteOnEvent(tick=0, channel=0, data=[62, 80]),
   midi.NoteOnEvent(tick=0, channel=0, data=[65, 80]),
   midi.NoteOffEvent(tick=683, channel=0, data=[57, 0]),
   midi.NoteOffEvent(tick=0, channel=0, data=[62, 0]),
   midi.NoteOffEvent(tick=0, channel=0, data=[65, 0]),
   midi.NoteOnEvent(tick=37, channel=0, data=[57, 80]),
   midi.NoteOnEvent(tick=0, channel=0, data=[62, 80]),
   midi.NoteOffEvent(tick=454, channel=0, data=[57, 0]),
   midi.NoteOffEvent(tick=0, channel=0, data=[62, 0]),
   midi.NoteOnEvent(tick=266, channel=0, data=[65, 80]),
   midi.NoteOffEvent(tick=113, channel=0, data=[65, 0]),
   midi.NoteOnEvent(tick=7, channel=0, data=[67, 80]),
   midi.NoteOffEvent(tick=113, channel=0, data=[67, 0]),
   midi.NoteOnEvent(tick=7, channel=0, data=[69, 80]),
   midi.NoteOffEvent(tick=227, channel=0, data=[69, 0]),
   midi.NoteOnEvent(tick=13, channel=0, data=[62, 80]),
   midi.NoteOnEvent(tick=0, channel=0, data=[65, 80]),
   midi.NoteOnEvent(tick=0, channel=0, data=[69, 80]),
   midi.NoteOffEvent(tick=341, channel=0, data=[62, 0]),
   midi.NoteOffEvent(tick=0, channel=0, data=[65, 0]),
   midi.NoteOffEvent(tick=0, channel=0, data=[69, 0]),
   midi.NoteOnEvent(tick=19, channel=0, data=[62, 80]),
   midi.NoteOnEvent(tick=0, channel=0, data=[65, 80]),
   midi.NoteOffEvent(tick=341, channel=0, data=[62, 0]),
   midi.NoteOffEvent(tick=0, channel=0, data=[65, 0]),
   midi.NoteOnEvent(tick=19, channel=0, data=[62, 80]),
   midi.NoteOnEvent(tick=0, channel=0, data=[65, 80]),
   midi.NoteOffEvent(tick=683, channel=0, data=[62, 0]),
   midi.NoteOffEvent(tick=0, channel=0, data=[65, 0]),
   midi.NoteOnEvent(tick=37, channel=0, data=[57, 80]),
   midi.NoteOnEvent(tick=0, channel=0, data=[62, 80]),
   midi.NoteOffEvent(tick=455, channel=0, data=[57, 0]),
   midi.NoteOffEvent(tick=0, channel=0, data=[62, 0]),
   midi.NoteOnEvent(tick=25, channel=0, data=[72, 80]),
   midi.NoteOnEvent(tick=0, channel=0, data=[76, 80]),
   midi.NoteOnEvent(tick=0, channel=0, data=[79, 80]),
   midi.NoteOffEvent(tick=1823, channel=0, data=[72, 0]),
   midi.NoteOffEvent(tick=0, channel=0, data=[76, 0]),
   midi.NoteOffEvent(tick=0, channel=0, data=[79, 0]),
   midi.NoteOnEvent(tick=97, channel=0, data=[84, 80]),
   midi.NoteOnEvent(tick=0, channel=0, data=[96, 80]),
   midi.NoteOffEvent(tick=1367, channel=0, data=[84, 0]),
   midi.NoteOffEvent(tick=0, channel=0, data=[96, 0]),
   midi.NoteOnEvent(tick=50233, channel=0, data=[77, 96]),
   midi.NoteOffEvent(tick=113, channel=0, data=[77, 0]),
   midi.NoteOnEvent(tick=7, channel=0, data=[76, 96]),
   midi.NoteOffEvent(tick=113, channel=0, data=[76, 0]),
   midi.NoteOnEvent(tick=7, channel=0, data=[74, 80]),
   midi.NoteOnEvent(tick=0, channel=0, data=[77, 80]),
   midi.NoteOffEvent(tick=455, channel=0, data=[74, 0]),
   midi.NoteOffEvent(tick=0, channel=0, data=[77, 0]),
   midi.NoteOnEvent(tick=25, channel=0, data=[77, 80]),
   midi.NoteOnEvent(tick=0, channel=0, data=[81, 80]),
   midi.NoteOffEvent(tick=455, channel=0, data=[77, 0]),
   midi.NoteOffEvent(tick=0, channel=0, data=[81, 0]),
   midi.NoteOnEvent(tick=25, channel=0, data=[69, 80]),
   midi.NoteOnEvent(tick=0, channel=0, data=[76, 80]),
   midi.NoteOffEvent(tick=455, channel=0, data=[69, 0]),
   midi.NoteOffEvent(tick=0, channel=0, data=[76, 0]),
   midi.NoteOnEvent(tick=265, channel=0, data=[74, 80]),
   midi.NoteOffEvent(tick=113, channel=0, data=[74, 0]),
   midi.NoteOnEvent(tick=7, channel=0, data=[72, 80]),
   midi.NoteOffEvent(tick=113, channel=0, data=[72, 0]),
   midi.NoteOnEvent(tick=7, channel=0, data=[70, 80]),
   midi.NoteOnEvent(tick=0, channel=0, data=[74, 80]),
   midi.NoteOffEvent(tick=455, channel=0, data=[70, 0]),
   midi.NoteOffEvent(tick=0, channel=0, data=[74, 0]),
   midi.NoteOnEvent(tick=25, channel=0, data=[74, 80]),
   midi.NoteOnEvent(tick=0, channel=0, data=[77, 80]),
   midi.NoteOffEvent(tick=455, channel=0, data=[74, 0]),
   midi.NoteOffEvent(tick=0, channel=0, data=[77, 0]),
   midi.NoteOnEvent(tick=25, channel=0, data=[77, 80]),
   midi.NoteOnEvent(tick=0, channel=0, data=[81, 80]),
   midi.NoteOffEvent(tick=683, channel=0, data=[77, 0]),
   midi.NoteOffEvent(tick=0, channel=0, data=[81, 0]),
   midi.NoteOnEvent(tick=37, channel=0, data=[82, 80]),
   midi.NoteOffEvent(tick=113, channel=0, data=[82, 0]),
   midi.NoteOnEvent(tick=7, channel=0, data=[81, 80]),
   midi.NoteOffEvent(tick=113, channel=0, data=[81, 0]),
   midi.NoteOnEvent(tick=7, channel=0, data=[79, 80]),
   midi.NoteOnEvent(tick=0, channel=0, data=[82, 80]),
   midi.NoteOffEvent(tick=455, channel=0, data=[79, 0]),
   midi.NoteOffEvent(tick=0, channel=0, data=[82, 0]),
   midi.NoteOnEvent(tick=25, channel=0, data=[82, 80]),
   midi.NoteOnEvent(tick=0, channel=0, data=[86, 80]),
   midi.NoteOffEvent(tick=455, channel=0, data=[82, 0]),
   midi.NoteOffEvent(tick=0, channel=0, data=[86, 0]),
   midi.NoteOnEvent(tick=25, channel=0, data=[77, 80]),
   midi.NoteOnEvent(tick=0, channel=0, data=[81, 80]),
   midi.NoteOffEvent(tick=683, channel=0, data=[77, 0]),
   midi.NoteOffEvent(tick=0, channel=0, data=[81, 0]),
   midi.NoteOnEvent(tick=37, channel=0, data=[79, 80]),
   midi.NoteOffEvent(tick=113, channel=0, data=[79, 0]),
   midi.NoteOnEvent(tick=7, channel=0, data=[77, 80]),
   midi.NoteOffEvent(tick=113, channel=0, data=[77, 0]),
   midi.NoteOnEvent(tick=7, channel=0, data=[74, 80]),
   midi.NoteOnEvent(tick=0, channel=0, data=[79, 80]),
   midi.NoteOffEvent(tick=455, channel=0, data=[74, 0]),
   midi.NoteOffEvent(tick=0, channel=0, data=[79, 0]),
   midi.NoteOnEvent(tick=25, channel=0, data=[71, 80]),
   midi.NoteOnEvent(tick=0, channel=0, data=[74, 80]),
   midi.NoteOffEvent(tick=227, channel=0, data=[71, 0]),
   midi.NoteOffEvent(tick=0, channel=0, data=[74, 0]),
   midi.NoteOnEvent(tick=253, channel=0, data=[73, 80]),
   midi.NoteOnEvent(tick=0, channel=0, data=[76, 80]),
   midi.NoteOnEvent(tick=0, channel=0, data=[81, 80]),
   midi.NoteOffEvent(tick=683, channel=0, data=[73, 0]),
   midi.NoteOffEvent(tick=0, channel=0, data=[76, 0]),
   midi.NoteOffEvent(tick=0, channel=0, data=[81, 0]),
   midi.NoteOnEvent(tick=37, channel=0, data=[77, 80]),
   midi.NoteOffEvent(tick=113, channel=0, data=[77, 0]),
   midi.NoteOnEvent(tick=7, channel=0, data=[76, 80]),
   midi.NoteOffEvent(tick=113, channel=0, data=[76, 0]),
   midi.NoteOnEvent(tick=7, channel=0, data=[69, 80]),
   midi.NoteOnEvent(tick=0, channel=0, data=[77, 80]),
   midi.NoteOffEvent(tick=455, channel=0, data=[69, 0]),
   midi.NoteOffEvent(tick=0, channel=0, data=[77, 0]),
   midi.NoteOnEvent(tick=25, channel=0, data=[81, 80]),
   midi.NoteOffEvent(tick=455, channel=0, data=[81, 0]),
   midi.NoteOnEvent(tick=25, channel=0, data=[69, 80]),
   midi.NoteOnEvent(tick=0, channel=0, data=[76, 80]),
   midi.NoteOffEvent(tick=683, channel=0, data=[69, 0]),
   midi.NoteOffEvent(tick=0, channel=0, data=[76, 0]),
   midi.NoteOnEvent(tick=37, channel=0, data=[74, 80]),
   midi.NoteOffEvent(tick=113, channel=0, data=[74, 0]),
   midi.NoteOnEvent(tick=7, channel=0, data=[72, 80]),
   midi.NoteOffEvent(tick=113, channel=0, data=[72, 0]),
   midi.NoteOnEvent(tick=7, channel=0, data=[69, 80]),
   midi.NoteOnEvent(tick=0, channel=0, data=[74, 80]),
   midi.NoteOffEvent(tick=455, channel=0, data=[69, 0]),
   midi.NoteOffEvent(tick=0, channel=0, data=[74, 0]),
   midi.NoteOnEvent(tick=25, channel=0, data=[77, 80]),
   midi.NoteOffEvent(tick=455, channel=0, data=[77, 0]),
   midi.NoteOnEvent(tick=25, channel=0, data=[72, 80]),
   midi.NoteOnEvent(tick=0, channel=0, data=[81, 80]),
   midi.NoteOffEvent(tick=683, channel=0, data=[72, 0]),
   midi.NoteOffEvent(tick=0, channel=0, data=[81, 0]),
   midi.NoteOnEvent(tick=37, channel=0, data=[82, 80]),
   midi.NoteOffEvent(tick=113, channel=0, data=[82, 0]),
   midi.NoteOnEvent(tick=7, channel=0, data=[81, 80]),
   midi.NoteOffEvent(tick=113, channel=0, data=[81, 0]),
   midi.NoteOnEvent(tick=7, channel=0, data=[74, 80]),
   midi.NoteOnEvent(tick=0, channel=0, data=[82, 80]),
   midi.NoteOffEvent(tick=455, channel=0, data=[74, 0]),
   midi.NoteOffEvent(tick=0, channel=0, data=[82, 0]),
   midi.NoteOnEvent(tick=25, channel=0, data=[86, 80]),
   midi.NoteOffEvent(tick=455, channel=0, data=[86, 0]),
   midi.NoteOnEvent(tick=25, channel=0, data=[76, 80]),
   midi.NoteOnEvent(tick=0, channel=0, data=[81, 80]),
   midi.NoteOffEvent(tick=683, channel=0, data=[76, 0]),
   midi.NoteOffEvent(tick=0, channel=0, data=[81, 0]),
   midi.NoteOnEvent(tick=37, channel=0, data=[79, 80]),
   midi.NoteOffEvent(tick=113, channel=0, data=[79, 0]),
   midi.NoteOnEvent(tick=7, channel=0, data=[77, 80]),
   midi.NoteOffEvent(tick=113, channel=0, data=[77, 0]),
   midi.NoteOnEvent(tick=7, channel=0, data=[70, 80]),
   midi.NoteOnEvent(tick=0, channel=0, data=[79, 80]),
   midi.NoteOffEvent(tick=455, channel=0, data=[70, 0]),
   midi.NoteOffEvent(tick=0, channel=0, data=[79, 0]),
   midi.NoteOnEvent(tick=25, channel=0, data=[74, 80]),
   midi.NoteOffEvent(tick=455, channel=0, data=[74, 0]),
   midi.NoteOnEvent(tick=25, channel=0, data=[74, 80]),
   midi.NoteOnEvent(tick=0, channel=0, data=[76, 80]),
   midi.NoteOnEvent(tick=0, channel=0, data=[81, 80]),
   midi.NoteOffEvent(tick=227, channel=0, data=[74, 0]),
   midi.NoteOffEvent(tick=0, channel=0, data=[76, 0]),
   midi.NoteOffEvent(tick=0, channel=0, data=[81, 0]),
   midi.NoteOnEvent(tick=13, channel=0, data=[69, 80]),
   midi.NoteOffEvent(tick=75, channel=0, data=[69, 0]),
   midi.NoteOnEvent(tick=5, channel=0, data=[74, 80]),
   midi.NoteOffEvent(tick=75, channel=0, data=[74, 0]),
   midi.NoteOnEvent(tick=5, channel=0, data=[76, 80]),
   midi.NoteOffEvent(tick=75, channel=0, data=[76, 0]),
   midi.NoteOnEvent(tick=5, channel=0, data=[81, 80]),
   midi.NoteOffEvent(tick=75, channel=0, data=[81, 0]),
   midi.NoteOnEvent(tick=5, channel=0, data=[85, 80]),
   midi.NoteOffEvent(tick=75, channel=0, data=[85, 0]),
   midi.NoteOnEvent(tick=5, channel=0, data=[88, 80]),
   midi.NoteOffEvent(tick=75, channel=0, data=[88, 0]),
   midi.NoteOnEvent(tick=5, channel=0, data=[93, 80]),
   midi.NoteOffEvent(tick=227, channel=0, data=[93, 0]),
   midi.NoteOnEvent(tick=493, channel=0, data=[74, 64]),
   midi.NoteOffEvent(tick=455, channel=0, data=[74, 0]),
   midi.NoteOnEvent(tick=25, channel=0, data=[74, 64]),
   midi.NoteOffEvent(tick=227, channel=0, data=[74, 0]),
   midi.NoteOnEvent(tick=13, channel=0, data=[74, 64]),
   midi.NoteOffEvent(tick=227, channel=0, data=[74, 0]),
   midi.NoteOnEvent(tick=13, channel=0, data=[76, 64]),
   midi.NoteOffEvent(tick=227, channel=0, data=[76, 0]),
   midi.NoteOnEvent(tick=13, channel=0, data=[77, 64]),
   midi.NoteOffEvent(tick=227, channel=0, data=[77, 0]),
   midi.NoteOnEvent(tick=13, channel=0, data=[65, 64]),
   midi.NoteOnEvent(tick=0, channel=0, data=[69, 64]),
   midi.NoteOnEvent(tick=0, channel=0, data=[72, 64]),
   midi.NoteOffEvent(tick=683, channel=0, data=[65, 0]),
   midi.NoteOffEvent(tick=0, channel=0, data=[69, 0]),
   midi.NoteOffEvent(tick=0, channel=0, data=[72, 0]),
   midi.NoteOnEvent(tick=37, channel=0, data=[79, 64]),
   midi.NoteOffEvent(tick=113, channel=0, data=[79, 0]),
   midi.NoteOnEvent(tick=7, channel=0, data=[77, 64]),
   midi.NoteOffEvent(tick=569, channel=0, data=[77, 0]),
   midi.NoteOnEvent(tick=991, channel=0, data=[65, 64]),
   midi.NoteOnEvent(tick=0, channel=0, data=[70, 64]),
   midi.NoteOnEvent(tick=0, channel=0, data=[74, 64]),
   midi.NoteOffEvent(tick=455, channel=0, data=[65, 0]),
   midi.NoteOffEvent(tick=0, channel=0, data=[70, 0]),
   midi.NoteOffEvent(tick=0, channel=0, data=[74, 0]),
   midi.NoteOnEvent(tick=25, channel=0, data=[69, 64]),
   midi.NoteOnEvent(tick=0, channel=0, data=[73, 64]),
   midi.NoteOffEvent(tick=227, channel=0, data=[69, 0]),
   midi.NoteOffEvent(tick=0, channel=0, data=[73, 0]),
   midi.NoteOnEvent(tick=13, channel=0, data=[74, 64]),
   midi.NoteOffEvent(tick=227, channel=0, data=[74, 0]),
   midi.NoteOnEvent(tick=13, channel=0, data=[76, 64]),
   midi.NoteOffEvent(tick=227, channel=0, data=[76, 0]),
   midi.NoteOnEvent(tick=13, channel=0, data=[69, 64]),
   midi.NoteOffEvent(tick=227, channel=0, data=[69, 0]),
   midi.NoteOnEvent(tick=13, channel=0, data=[74, 64]),
   midi.NoteOnEvent(tick=0, channel=0, data=[79, 64]),
   midi.NoteOnEvent(tick=0, channel=0, data=[81, 64]),
   midi.NoteOffEvent(tick=911, channel=0, data=[74, 0]),
   midi.NoteOffEvent(tick=0, channel=0, data=[79, 0]),
   midi.NoteOffEvent(tick=0, channel=0, data=[81, 0]),
   midi.NoteOnEvent(tick=49, channel=0, data=[60, 64]),
   midi.NoteOnEvent(tick=0, channel=0, data=[63, 64]),
   midi.NoteOffEvent(tick=151, channel=0, data=[60, 0]),
   midi.NoteOffEvent(tick=0, channel=0, data=[63, 0]),
   midi.NoteOnEvent(tick=9, channel=0, data=[70, 64]),
   midi.NoteOffEvent(tick=151, channel=0, data=[70, 0]),
   midi.NoteOnEvent(tick=9, channel=0, data=[71, 64]),
   midi.NoteOffEvent(tick=151, channel=0, data=[71, 0]),
   midi.NoteOnEvent(tick=9, channel=0, data=[65, 64]),
   midi.NoteOnEvent(tick=0, channel=0, data=[72, 64]),
   midi.NoteOffEvent(tick=455, channel=0, data=[65, 0]),
   midi.NoteOffEvent(tick=0, channel=0, data=[72, 0]),
   midi.NoteOnEvent(tick=505, channel=0, data=[74, 64]),
   midi.NoteOffEvent(tick=455, channel=0, data=[74, 0]),
   midi.NoteOnEvent(tick=25, channel=0, data=[74, 64]),
   midi.NoteOffEvent(tick=227, channel=0, data=[74, 0]),
   midi.NoteOnEvent(tick=13, channel=0, data=[74, 64]),
   midi.NoteOffEvent(tick=227, channel=0, data=[74, 0]),
   midi.NoteOnEvent(tick=13, channel=0, data=[76, 64]),
   midi.NoteOffEvent(tick=227, channel=0, data=[76, 0]),
   midi.NoteOnEvent(tick=13, channel=0, data=[77, 64]),
   midi.NoteOffEvent(tick=227, channel=0, data=[77, 0]),
   midi.NoteOnEvent(tick=13, channel=0, data=[65, 64]),
   midi.NoteOnEvent(tick=0, channel=0, data=[69, 64]),
   midi.NoteOnEvent(tick=0, channel=0, data=[72, 64]),
   midi.NoteOffEvent(tick=455, channel=0, data=[65, 0]),
   midi.NoteOffEvent(tick=0, channel=0, data=[69, 0]),
   midi.NoteOffEvent(tick=0, channel=0, data=[72, 0]),
   midi.NoteOnEvent(tick=25, channel=0, data=[72, 68]),
   midi.NoteOffEvent(tick=227, channel=0, data=[72, 0]),
   midi.NoteOnEvent(tick=13, channel=0, data=[79, 70]),
   midi.NoteOffEvent(tick=113, channel=0, data=[79, 0]),
   midi.NoteOnEvent(tick=7, channel=0, data=[77, 71]),
   midi.NoteOffEvent(tick=797, channel=0, data=[77, 0]),
   midi.NoteOnEvent(tick=43, channel=0, data=[77, 78]),
   midi.NoteOffEvent(tick=113, channel=0, data=[77, 0]),
   midi.NoteOnEvent(tick=7, channel=0, data=[79, 79]),
   midi.NoteOffEvent(tick=113, channel=0, data=[79, 0]),
   midi.NoteOnEvent(tick=7, channel=0, data=[70, 80]),
   midi.NoteOnEvent(tick=0, channel=0, data=[74, 80]),
   midi.NoteOnEvent(tick=0, channel=0, data=[81, 80]),
   midi.NoteOffEvent(tick=227, channel=0, data=[70, 0]),
   midi.NoteOffEvent(tick=0, channel=0, data=[74, 0]),
   midi.NoteOffEvent(tick=0, channel=0, data=[81, 0]),
   midi.NoteOnEvent(tick=13, channel=0, data=[89, 80]),
   midi.NoteOffEvent(tick=113, channel=0, data=[89, 0]),
   midi.NoteOnEvent(tick=7, channel=0, data=[91, 81]),
   midi.NoteOffEvent(tick=113, channel=0, data=[91, 0]),
   midi.NoteOnEvent(tick=7, channel=0, data=[93, 81]),
   midi.NoteOffEvent(tick=227, channel=0, data=[93, 0]),
   midi.NoteOnEvent(tick=13, channel=0, data=[77, 82]),
   midi.NoteOffEvent(tick=113, channel=0, data=[77, 0]),
   midi.NoteOnEvent(tick=7, channel=0, data=[79, 82]),
   midi.NoteOffEvent(tick=113, channel=0, data=[79, 0]),
   midi.NoteOnEvent(tick=7, channel=0, data=[72, 82]),
   midi.NoteOnEvent(tick=0, channel=0, data=[77, 82]),
   midi.NoteOnEvent(tick=0, channel=0, data=[81, 82]),
   midi.NoteOffEvent(tick=227, channel=0, data=[72, 0]),
   midi.NoteOffEvent(tick=0, channel=0, data=[77, 0]),
   midi.NoteOffEvent(tick=0, channel=0, data=[81, 0]),
   midi.NoteOnEvent(tick=13, channel=0, data=[89, 83]),
   midi.NoteOffEvent(tick=113, channel=0, data=[89, 0]),
   midi.NoteOnEvent(tick=7, channel=0, data=[91, 83]),
   midi.NoteOffEvent(tick=113, channel=0, data=[91, 0]),
   midi.NoteOnEvent(tick=7, channel=0, data=[93, 84]),
   midi.NoteOffEvent(tick=227, channel=0, data=[93, 0]),
   midi.NoteOnEvent(tick=13, channel=0, data=[77, 84]),
   midi.NoteOffEvent(tick=113, channel=0, data=[77, 0]),
   midi.NoteOnEvent(tick=7, channel=0, data=[79, 85]),
   midi.NoteOffEvent(tick=113, channel=0, data=[79, 0]),
   midi.NoteOnEvent(tick=7, channel=0, data=[71, 85]),
   midi.NoteOnEvent(tick=0, channel=0, data=[74, 85]),
   midi.NoteOnEvent(tick=0, channel=0, data=[81, 85]),
   midi.NoteOffEvent(tick=227, channel=0, data=[71, 0]),
   midi.NoteOffEvent(tick=0, channel=0, data=[74, 0]),
   midi.NoteOffEvent(tick=0, channel=0, data=[81, 0]),
   midi.NoteOnEvent(tick=13, channel=0, data=[89, 86]),
   midi.NoteOffEvent(tick=113, channel=0, data=[89, 0]),
   midi.NoteOnEvent(tick=7, channel=0, data=[91, 86]),
   midi.NoteOffEvent(tick=113, channel=0, data=[91, 0]),
   midi.NoteOnEvent(tick=7, channel=0, data=[93, 86]),
   midi.NoteOffEvent(tick=455, channel=0, data=[93, 0]),
   midi.NoteOnEvent(tick=265, channel=0, data=[74, 88]),
   midi.NoteOffEvent(tick=227, channel=0, data=[74, 0]),
   midi.NoteOnEvent(tick=13, channel=0, data=[76, 89]),
   midi.NoteOffEvent(tick=227, channel=0, data=[76, 0]),
   midi.NoteOnEvent(tick=13, channel=0, data=[77, 90]),
   midi.NoteOffEvent(tick=227, channel=0, data=[77, 0]),
   midi.NoteOnEvent(tick=13, channel=0, data=[74, 90]),
   midi.NoteOnEvent(tick=0, channel=0, data=[77, 90]),
   midi.NoteOnEvent(tick=0, channel=0, data=[81, 90]),
   midi.NoteOffEvent(tick=455, channel=0, data=[74, 0]),
   midi.NoteOffEvent(tick=0, channel=0, data=[77, 0]),
   midi.NoteOffEvent(tick=0, channel=0, data=[81, 0]),
   midi.NoteOnEvent(tick=25, channel=0, data=[62, 92]),
   midi.NoteOffEvent(tick=75, channel=0, data=[62, 0]),
   midi.NoteOnEvent(tick=5, channel=0, data=[65, 92]),
   midi.NoteOffEvent(tick=75, channel=0, data=[65, 0]),
   midi.NoteOnEvent(tick=5, channel=0, data=[70, 92]),
   midi.NoteOffEvent(tick=75, channel=0, data=[70, 0]),
   midi.NoteOnEvent(tick=5, channel=0, data=[74, 92]),
   midi.NoteOffEvent(tick=75, channel=0, data=[74, 0]),
   midi.NoteOnEvent(tick=5, channel=0, data=[77, 92]),
   midi.NoteOffEvent(tick=75, channel=0, data=[77, 0]),
   midi.NoteOnEvent(tick=5, channel=0, data=[82, 93]),
   midi.NoteOffEvent(tick=75, channel=0, data=[82, 0]),
   midi.NoteOnEvent(tick=5, channel=0, data=[86, 93]),
   midi.NoteOffEvent(tick=75, channel=0, data=[86, 0]),
   midi.NoteOnEvent(tick=5, channel=0, data=[89, 93]),
   midi.NoteOffEvent(tick=75, channel=0, data=[89, 0]),
   midi.NoteOnEvent(tick=5, channel=0, data=[94, 93]),
   midi.NoteOffEvent(tick=75, channel=0, data=[94, 0]),
   midi.NoteOnEvent(tick=5, channel=0, data=[98, 94]),
   midi.NoteOffEvent(tick=455, channel=0, data=[98, 0]),
   midi.NoteOnEvent(tick=25, channel=0, data=[82, 95]),
   midi.NoteOffEvent(tick=113, channel=0, data=[82, 0]),
   midi.NoteOnEvent(tick=7, channel=0, data=[79, 95]),
   midi.NoteOnEvent(tick=120, channel=0, data=[72, 96]),
   midi.NoteOnEvent(tick=0, channel=0, data=[84, 96]),
   midi.NoteOffEvent(tick=107, channel=0, data=[79, 0]),
   midi.NoteOffEvent(tick=6, channel=0, data=[72, 0]),
   midi.NoteOffEvent(tick=0, channel=0, data=[84, 0]),
   midi.NoteOnEvent(tick=7, channel=0, data=[72, 96]),
   midi.NoteOffEvent(tick=113, channel=0, data=[72, 0]),
   midi.NoteOnEvent(tick=7, channel=0, data=[77, 96]),
   midi.NoteOffEvent(tick=113, channel=0, data=[77, 0]),
   midi.NoteOnEvent(tick=7, channel=0, data=[79, 96]),
   midi.NoteOffEvent(tick=113, channel=0, data=[79, 0]),
   midi.NoteOnEvent(tick=7, channel=0, data=[72, 96]),
   midi.NoteOnEvent(tick=0, channel=0, data=[84, 96]),
   midi.NoteOffEvent(tick=455, channel=0, data=[72, 0]),
   midi.NoteOffEvent(tick=0, channel=0, data=[84, 0]),
   midi.NoteOnEvent(tick=25, channel=0, data=[60, 96]),
   midi.NoteOnEvent(tick=0, channel=0, data=[64, 96]),
   midi.NoteOffEvent(tick=227, channel=0, data=[60, 0]),
   midi.NoteOffEvent(tick=0, channel=0, data=[64, 0]),
   midi.NoteOnEvent(tick=13, channel=0, data=[74, 96]),
   midi.NoteOnEvent(tick=0, channel=0, data=[82, 96]),
   midi.NoteOnEvent(tick=0, channel=0, data=[86, 96]),
   midi.NoteOffEvent(tick=113, channel=0, data=[74, 0]),
   midi.NoteOffEvent(tick=0, channel=0, data=[82, 0]),
   midi.NoteOffEvent(tick=0, channel=0, data=[86, 0]),
   midi.NoteOnEvent(tick=7, channel=0, data=[72, 96]),
   midi.NoteOnEvent(tick=0, channel=0, data=[81, 96]),
   midi.NoteOnEvent(tick=0, channel=0, data=[84, 96]),
   midi.NoteOffEvent(tick=113, channel=0, data=[72, 0]),
   midi.NoteOffEvent(tick=0, channel=0, data=[81, 0]),
   midi.NoteOffEvent(tick=0, channel=0, data=[84, 0]),
   midi.NoteOnEvent(tick=7, channel=0, data=[76, 96]),
   midi.NoteOnEvent(tick=0, channel=0, data=[79, 96]),
   midi.NoteOffEvent(tick=227, channel=0, data=[76, 0]),
   midi.NoteOffEvent(tick=0, channel=0, data=[79, 0]),
   midi.NoteOnEvent(tick=13, channel=0, data=[60, 96]),
   midi.NoteOnEvent(tick=0, channel=0, data=[72, 96]),
   midi.NoteOffEvent(tick=227, channel=0, data=[60, 0]),
   midi.NoteOffEvent(tick=0, channel=0, data=[72, 0]),
   midi.NoteOnEvent(tick=13, channel=0, data=[69, 96]),
   midi.NoteOnEvent(tick=0, channel=0, data=[72, 96]),
   midi.NoteOnEvent(tick=0, channel=0, data=[77, 96]),
   midi.NoteOnEvent(tick=0, channel=0, data=[81, 96]),
   midi.NoteOffEvent(tick=227, channel=0, data=[69, 0]),
   midi.NoteOffEvent(tick=0, channel=0, data=[72, 0]),
   midi.NoteOffEvent(tick=0, channel=0, data=[77, 0]),
   midi.NoteOffEvent(tick=0, channel=0, data=[81, 0]),
   midi.NoteOnEvent(tick=13, channel=0, data=[69, 96]),
   midi.NoteOnEvent(tick=0, channel=0, data=[81, 96]),
   midi.NoteOffEvent(tick=227, channel=0, data=[69, 0]),
   midi.NoteOffEvent(tick=0, channel=0, data=[81, 0]),
   midi.NoteOnEvent(tick=13, channel=0, data=[69, 96]),
   midi.NoteOnEvent(tick=0, channel=0, data=[81, 96]),
   midi.NoteOffEvent(tick=227, channel=0, data=[69, 0]),
   midi.NoteOffEvent(tick=0, channel=0, data=[81, 0]),
   midi.NoteOnEvent(tick=13, channel=0, data=[70, 96]),
   midi.NoteOnEvent(tick=0, channel=0, data=[82, 96]),
   midi.NoteOffEvent(tick=113, channel=0, data=[70, 0]),
   midi.NoteOffEvent(tick=0, channel=0, data=[82, 0]),
   midi.NoteOnEvent(tick=7, channel=0, data=[69, 96]),
   midi.NoteOnEvent(tick=0, channel=0, data=[72, 96]),
   midi.NoteOnEvent(tick=0, channel=0, data=[81, 96]),
   midi.NoteOffEvent(tick=227, channel=0, data=[69, 0]),
   midi.NoteOffEvent(tick=0, channel=0, data=[72, 0]),
   midi.NoteOffEvent(tick=0, channel=0, data=[81, 0]),
   midi.NoteOnEvent(tick=13, channel=0, data=[69, 96]),
   midi.NoteOffEvent(tick=56, channel=0, data=[69, 0]),
   midi.NoteOnEvent(tick=4, channel=0, data=[72, 96]),
   midi.NoteOffEvent(tick=56, channel=0, data=[72, 0]),
   midi.NoteOnEvent(tick=4, channel=0, data=[77, 96]),
   midi.NoteOffEvent(tick=56, channel=0, data=[77, 0]),
   midi.NoteOnEvent(tick=4, channel=0, data=[81, 96]),
   midi.NoteOffEvent(tick=56, channel=0, data=[81, 0]),
   midi.NoteOnEvent(tick=4, channel=0, data=[84, 96]),
   midi.NoteOffEvent(tick=56, channel=0, data=[84, 0]),
   midi.NoteOnEvent(tick=4, channel=0, data=[89, 96]),
   midi.NoteOffEvent(tick=56, channel=0, data=[89, 0]),
   midi.NoteOnEvent(tick=4, channel=0, data=[93, 96]),
   midi.NoteOffEvent(tick=227, channel=0, data=[93, 0]),
   midi.NoteOnEvent(tick=13, channel=0, data=[60, 96]),
   midi.NoteOnEvent(tick=0, channel=0, data=[72, 96]),
   midi.NoteOffEvent(tick=227, channel=0, data=[60, 0]),
   midi.NoteOffEvent(tick=0, channel=0, data=[72, 0]),
   midi.NoteOnEvent(tick=13, channel=0, data=[67, 96]),
   midi.NoteOnEvent(tick=0, channel=0, data=[70, 96]),
   midi.NoteOnEvent(tick=0, channel=0, data=[76, 96]),
   midi.NoteOnEvent(tick=0, channel=0, data=[79, 96]),
   midi.NoteOffEvent(tick=227, channel=0, data=[67, 0]),
   midi.NoteOffEvent(tick=0, channel=0, data=[70, 0]),
   midi.NoteOffEvent(tick=0, channel=0, data=[76, 0]),
   midi.NoteOffEvent(tick=0, channel=0, data=[79, 0]),
   midi.NoteOnEvent(tick=13, channel=0, data=[67, 96]),
   midi.NoteOnEvent(tick=0, channel=0, data=[79, 96]),
   midi.NoteOffEvent(tick=227, channel=0, data=[67, 0]),
   midi.NoteOffEvent(tick=0, channel=0, data=[79, 0]),
   midi.NoteOnEvent(tick=13, channel=0, data=[67, 96]),
   midi.NoteOnEvent(tick=0, channel=0, data=[79, 96]),
   midi.NoteOffEvent(tick=227, channel=0, data=[67, 0]),
   midi.NoteOffEvent(tick=0, channel=0, data=[79, 0]),
   midi.NoteOnEvent(tick=13, channel=0, data=[69, 96]),
   midi.NoteOnEvent(tick=0, channel=0, data=[81, 96]),
   midi.NoteOffEvent(tick=113, channel=0, data=[69, 0]),
   midi.NoteOffEvent(tick=0, channel=0, data=[81, 0]),
   midi.NoteOnEvent(tick=7, channel=0, data=[67, 96]),
   midi.NoteOnEvent(tick=0, channel=0, data=[79, 96]),
   midi.NoteOnEvent(tick=120, channel=0, data=[72, 96]),
   midi.NoteOffEvent(tick=220, channel=0, data=[67, 0]),
   midi.NoteOffEvent(tick=0, channel=0, data=[79, 0]),
   midi.NoteOffEvent(tick=6, channel=0, data=[72, 0]),
   midi.NoteOnEvent(tick=14, channel=0, data=[73, 96]),
   midi.NoteOffEvent(tick=226, channel=0, data=[73, 0]),
   midi.NoteOnEvent(tick=14, channel=0, data=[65, 96]),
   midi.NoteOnEvent(tick=0, channel=0, data=[77, 96]),
   midi.NoteOffEvent(tick=226, channel=0, data=[65, 0]),
   midi.NoteOffEvent(tick=0, channel=0, data=[77, 0]),
   midi.NoteOnEvent(tick=14, channel=0, data=[64, 96]),
   midi.NoteOnEvent(tick=0, channel=0, data=[76, 96]),
   midi.NoteOffEvent(tick=226, channel=0, data=[64, 0]),
   midi.NoteOffEvent(tick=0, channel=0, data=[76, 0]),
   midi.NoteOnEvent(tick=14, channel=0, data=[65, 96]),
   midi.NoteOnEvent(tick=0, channel=0, data=[69, 96]),
   midi.NoteOnEvent(tick=0, channel=0, data=[77, 96]),
   midi.NoteOffEvent(tick=112, channel=0, data=[65, 0]),
   midi.NoteOffEvent(tick=0, channel=0, data=[69, 0]),
   midi.NoteOffEvent(tick=0, channel=0, data=[77, 0]),
   midi.NoteOnEvent(tick=8, channel=0, data=[65, 96]),
   midi.NoteOffEvent(tick=55, channel=0, data=[65, 0]),
   midi.NoteOnEvent(tick=5, channel=0, data=[69, 96]),
   midi.NoteOffEvent(tick=55, channel=0, data=[69, 0]),
   midi.NoteOnEvent(tick=5, channel=0, data=[74, 96]),
   midi.NoteOffEvent(tick=55, channel=0, data=[74, 0]),
   midi.NoteOnEvent(tick=5, channel=0, data=[77, 96]),
   midi.NoteOffEvent(tick=55, channel=0, data=[77, 0]),
   midi.NoteOnEvent(tick=5, channel=0, data=[81, 96]),
   midi.NoteOffEvent(tick=55, channel=0, data=[81, 0]),
   midi.NoteOnEvent(tick=5, channel=0, data=[86, 96]),
   midi.NoteOffEvent(tick=55, channel=0, data=[86, 0]),
   midi.NoteOnEvent(tick=5, channel=0, data=[89, 96]),
   midi.NoteOffEvent(tick=226, channel=0, data=[89, 0]),
   midi.NoteOnEvent(tick=14, channel=0, data=[65, 96]),
   midi.NoteOnEvent(tick=0, channel=0, data=[77, 96]),
   midi.NoteOffEvent(tick=226, channel=0, data=[65, 0]),
   midi.NoteOffEvent(tick=0, channel=0, data=[77, 0]),
   midi.NoteOnEvent(tick=14, channel=0, data=[67, 96]),
   midi.NoteOnEvent(tick=0, channel=0, data=[72, 96]),
   midi.NoteOnEvent(tick=0, channel=0, data=[79, 96]),
   midi.NoteOffEvent(tick=226, channel=0, data=[67, 0]),
   midi.NoteOffEvent(tick=0, channel=0, data=[72, 0]),
   midi.NoteOffEvent(tick=0, channel=0, data=[79, 0]),
   midi.NoteOnEvent(tick=14, channel=0, data=[65, 96]),
   midi.NoteOnEvent(tick=0, channel=0, data=[77, 96]),
   midi.NoteOffEvent(tick=226, channel=0, data=[65, 0]),
   midi.NoteOffEvent(tick=0, channel=0, data=[77, 0]),
   midi.NoteOnEvent(tick=14, channel=0, data=[64, 96]),
   midi.NoteOnEvent(tick=0, channel=0, data=[76, 96]),
   midi.NoteOffEvent(tick=226, channel=0, data=[64, 0]),
   midi.NoteOffEvent(tick=0, channel=0, data=[76, 0]),
   midi.NoteOnEvent(tick=14, channel=0, data=[65, 96]),
   midi.NoteOnEvent(tick=0, channel=0, data=[77, 96]),
   midi.NoteOffEvent(tick=112, channel=0, data=[65, 0]),
   midi.NoteOffEvent(tick=0, channel=0, data=[77, 0]),
   midi.NoteOnEvent(tick=8, channel=0, data=[69, 96]),
   midi.NoteOnEvent(tick=0, channel=0, data=[72, 96]),
   midi.NoteOnEvent(tick=0, channel=0, data=[76, 96]),
   midi.NoteOnEvent(tick=0, channel=0, data=[81, 96]),
   midi.NoteOffEvent(tick=226, channel=0, data=[69, 0]),
   midi.NoteOffEvent(tick=0, channel=0, data=[72, 0]),
   midi.NoteOffEvent(tick=0, channel=0, data=[76, 0]),
   midi.NoteOffEvent(tick=0, channel=0, data=[81, 0]),
   midi.NoteOnEvent(tick=14, channel=0, data=[69, 96]),
   midi.NoteOffEvent(tick=55, channel=0, data=[69, 0]),
   midi.NoteOnEvent(tick=5, channel=0, data=[72, 96]),
   midi.NoteOffEvent(tick=56, channel=0, data=[72, 0]),
   midi.NoteOnEvent(tick=4, channel=0, data=[76, 96]),
   midi.NoteOffEvent(tick=56, channel=0, data=[76, 0]),
   midi.NoteOnEvent(tick=4, channel=0, data=[81, 96]),
   midi.NoteOffEvent(tick=56, channel=0, data=[81, 0]),
   midi.NoteOnEvent(tick=4, channel=0, data=[84, 96]),
   midi.NoteOffEvent(tick=56, channel=0, data=[84, 0]),
   midi.NoteOnEvent(tick=4, channel=0, data=[88, 96]),
   midi.NoteOffEvent(tick=56, channel=0, data=[88, 0]),
   midi.NoteOnEvent(tick=4, channel=0, data=[93, 96]),
   midi.NoteOffEvent(tick=227, channel=0, data=[93, 0]),
   midi.NoteOnEvent(tick=13, channel=0, data=[72, 96]),
   midi.NoteOffEvent(tick=227, channel=0, data=[72, 0]),
   midi.NoteOnEvent(tick=13, channel=0, data=[72, 96]),
   midi.NoteOnEvent(tick=0, channel=0, data=[77, 96]),
   midi.NoteOffEvent(tick=227, channel=0, data=[72, 0]),
   midi.NoteOffEvent(tick=0, channel=0, data=[77, 0]),
   midi.NoteOnEvent(tick=13, channel=0, data=[76, 96]),
   midi.NoteOffEvent(tick=227, channel=0, data=[76, 0]),
   midi.NoteOnEvent(tick=13, channel=0, data=[74, 96]),
   midi.NoteOffEvent(tick=227, channel=0, data=[74, 0]),
   midi.NoteOnEvent(tick=13, channel=0, data=[72, 96]),
   midi.NoteOffEvent(tick=227, channel=0, data=[72, 0]),
   midi.NoteOnEvent(tick=13, channel=0, data=[65, 96]),
   midi.NoteOnEvent(tick=0, channel=0, data=[70, 96]),
   midi.NoteOffEvent(tick=455, channel=0, data=[65, 0]),
   midi.NoteOffEvent(tick=0, channel=0, data=[70, 0]),
   midi.NoteOnEvent(tick=25, channel=0, data=[65, 96]),
   midi.NoteOnEvent(tick=0, channel=0, data=[70, 96]),
   midi.NoteOnEvent(tick=0, channel=0, data=[74, 96]),
   midi.NoteOffEvent(tick=113, channel=0, data=[65, 0]),
   midi.NoteOffEvent(tick=0, channel=0, data=[70, 0]),
   midi.NoteOffEvent(tick=0, channel=0, data=[74, 0]),
   midi.NoteOnEvent(tick=7, channel=0, data=[76, 96]),
   midi.NoteOffEvent(tick=113, channel=0, data=[76, 0]),
   midi.NoteOnEvent(tick=7, channel=0, data=[77, 96]),
   midi.NoteOffEvent(tick=227, channel=0, data=[77, 0]),
   midi.NoteOnEvent(tick=13, channel=0, data=[72, 96]),
   midi.NoteOnEvent(tick=0, channel=0, data=[76, 96]),
   midi.NoteOnEvent(tick=0, channel=0, data=[79, 96]),
   midi.NoteOffEvent(tick=227, channel=0, data=[72, 0]),
   midi.NoteOffEvent(tick=0, channel=0, data=[76, 0]),
   midi.NoteOffEvent(tick=0, channel=0, data=[79, 0]),
   midi.NoteOnEvent(tick=13, channel=0, data=[72, 96]),
   midi.NoteOffEvent(tick=113, channel=0, data=[72, 0]),
   midi.NoteOnEvent(tick=7, channel=0, data=[79, 96]),
   midi.NoteOnEvent(tick=0, channel=0, data=[84, 96]),
   midi.NoteOffEvent(tick=113, channel=0, data=[79, 0]),
   midi.NoteOffEvent(tick=0, channel=0, data=[84, 0]),
   midi.NoteOnEvent(tick=7, channel=0, data=[72, 96]),
   midi.NoteOffEvent(tick=113, channel=0, data=[72, 0]),
   midi.NoteOnEvent(tick=7, channel=0, data=[76, 96]),
   midi.NoteOnEvent(tick=0, channel=0, data=[79, 96]),
   midi.NoteOffEvent(tick=113, channel=0, data=[76, 0]),
   midi.NoteOffEvent(tick=0, channel=0, data=[79, 0]),
   midi.NoteOnEvent(tick=7, channel=0, data=[72, 96]),
   midi.NoteOffEvent(tick=227, channel=0, data=[72, 0]),
   midi.NoteOnEvent(tick=13, channel=0, data=[69, 96]),
   midi.NoteOnEvent(tick=0, channel=0, data=[72, 96]),
   midi.NoteOnEvent(tick=0, channel=0, data=[76, 96]),
   midi.NoteOnEvent(tick=0, channel=0, data=[81, 96]),
   midi.NoteOffEvent(tick=227, channel=0, data=[69, 0]),
   midi.NoteOffEvent(tick=0, channel=0, data=[72, 0]),
   midi.NoteOffEvent(tick=0, channel=0, data=[76, 0]),
   midi.NoteOffEvent(tick=0, channel=0, data=[81, 0]),
   midi.NoteOnEvent(tick=13, channel=0, data=[69, 96]),
   midi.NoteOnEvent(tick=0, channel=0, data=[81, 96]),
   midi.NoteOffEvent(tick=227, channel=0, data=[69, 0]),
   midi.NoteOffEvent(tick=0, channel=0, data=[81, 0]),
   midi.NoteOnEvent(tick=13, channel=0, data=[67, 96]),
   midi.NoteOnEvent(tick=0, channel=0, data=[73, 96]),
   midi.NoteOnEvent(tick=0, channel=0, data=[76, 96]),
   midi.NoteOnEvent(tick=0, channel=0, data=[79, 96]),
   midi.NoteOffEvent(tick=227, channel=0, data=[67, 0]),
   midi.NoteOffEvent(tick=0, channel=0, data=[73, 0]),
   midi.NoteOffEvent(tick=0, channel=0, data=[76, 0]),
   midi.NoteOffEvent(tick=0, channel=0, data=[79, 0]),
   midi.NoteOnEvent(tick=13, channel=0, data=[67, 96]),
   midi.NoteOnEvent(tick=0, channel=0, data=[79, 96]),
   midi.NoteOffEvent(tick=113, channel=0, data=[67, 0]),
   midi.NoteOffEvent(tick=0, channel=0, data=[79, 0]),
   midi.NoteOnEvent(tick=7, channel=0, data=[65, 96]),
   midi.NoteOnEvent(tick=0, channel=0, data=[77, 96]),
   midi.NoteOffEvent(tick=113, channel=0, data=[77, 0]),
   midi.NoteOnEvent(tick=7, channel=0, data=[72, 96]),
   midi.NoteOnEvent(tick=0, channel=0, data=[76, 96]),
   midi.NoteOffEvent(tick=107, channel=0, data=[65, 0]),
   midi.NoteOffEvent(tick=6, channel=0, data=[72, 0]),
   midi.NoteOffEvent(tick=0, channel=0, data=[76, 0]),
   midi.NoteOnEvent(tick=7, channel=0, data=[77, 96]),
   midi.NoteOffEvent(tick=113, channel=0, data=[77, 0]),
   midi.NoteOnEvent(tick=7, channel=0, data=[76, 96]),
   midi.NoteOffEvent(tick=113, channel=0, data=[76, 0]),
   midi.NoteOnEvent(tick=7, channel=0, data=[77, 96]),
   midi.NoteOffEvent(tick=113, channel=0, data=[77, 0]),
   midi.NoteOnEvent(tick=127, channel=0, data=[69, 96]),
   midi.NoteOnEvent(tick=0, channel=0, data=[72, 96]),
   midi.NoteOnEvent(tick=0, channel=0, data=[76, 96]),
   midi.NoteOffEvent(tick=341, channel=0, data=[69, 0]),
   midi.NoteOffEvent(tick=0, channel=0, data=[72, 0]),
   midi.NoteOffEvent(tick=0, channel=0, data=[76, 0]),
   midi.NoteOnEvent(tick=19, channel=0, data=[62, 80]),
   midi.NoteOnEvent(tick=0, channel=0, data=[65, 80]),
   midi.NoteOffEvent(tick=227, channel=0, data=[62, 0]),
   midi.NoteOffEvent(tick=0, channel=0, data=[65, 0]),
   midi.NoteOnEvent(tick=133, channel=0, data=[74, 80]),
   midi.NoteOffEvent(tick=113, channel=0, data=[74, 0]),
   midi.NoteOnEvent(tick=7, channel=0, data=[74, 80]),
   midi.NoteOffEvent(tick=113, channel=0, data=[74, 0]),
   midi.NoteOnEvent(tick=7, channel=0, data=[76, 80]),
   midi.NoteOffEvent(tick=113, channel=0, data=[76, 0]),
   midi.NoteOnEvent(tick=7, channel=0, data=[77, 80]),
   midi.NoteOffEvent(tick=227, channel=0, data=[77, 0]),
   midi.NoteOnEvent(tick=13, channel=0, data=[72, 80]),
   midi.NoteOnEvent(tick=0, channel=0, data=[76, 80]),
   midi.NoteOnEvent(tick=0, channel=0, data=[79, 80]),
   midi.NoteOffEvent(tick=227, channel=0, data=[72, 0]),
   midi.NoteOffEvent(tick=0, channel=0, data=[76, 0]),
   midi.NoteOffEvent(tick=0, channel=0, data=[79, 0]),
   midi.NoteOnEvent(tick=13, channel=0, data=[77, 84]),
   midi.NoteOffEvent(tick=227, channel=0, data=[77, 0]),
   midi.NoteOnEvent(tick=13, channel=0, data=[76, 88]),
   midi.NoteOffEvent(tick=227, channel=0, data=[76, 0]),
   midi.NoteOnEvent(tick=13, channel=0, data=[65, 92]),
   midi.NoteOnEvent(tick=0, channel=0, data=[77, 92]),
   midi.NoteOffEvent(tick=113, channel=0, data=[65, 0]),
   midi.NoteOffEvent(tick=0, channel=0, data=[77, 0]),
   midi.NoteOnEvent(tick=7, channel=0, data=[65, 94]),
   midi.NoteOnEvent(tick=0, channel=0, data=[77, 94]),
   midi.NoteOffEvent(tick=113, channel=0, data=[65, 0]),
   midi.NoteOnEvent(tick=7, channel=0, data=[65, 96]),
   midi.NoteOnEvent(tick=0, channel=0, data=[69, 96]),
   midi.NoteOffEvent(tick=335, channel=0, data=[77, 0]),
   midi.NoteOffEvent(tick=6, channel=0, data=[65, 0]),
   midi.NoteOffEvent(tick=0, channel=0, data=[69, 0]),
   midi.NoteOnEvent(tick=19, channel=0, data=[61, 96]),
   midi.NoteOnEvent(tick=0, channel=0, data=[64, 96]),
   midi.NoteOnEvent(tick=0, channel=0, data=[69, 96]),
   midi.NoteOffEvent(tick=341, channel=0, data=[61, 0]),
   midi.NoteOffEvent(tick=0, channel=0, data=[64, 0]),
   midi.NoteOffEvent(tick=0, channel=0, data=[69, 0]),
   midi.NoteOnEvent(tick=19, channel=0, data=[60, 96]),
   midi.NoteOnEvent(tick=0, channel=0, data=[64, 96]),
   midi.NoteOnEvent(tick=0, channel=0, data=[67, 96]),
   midi.NoteOffEvent(tick=227, channel=0, data=[60, 0]),
   midi.NoteOffEvent(tick=0, channel=0, data=[64, 0]),
   midi.NoteOffEvent(tick=0, channel=0, data=[67, 0]),
   midi.NoteOnEvent(tick=13, channel=0, data=[59, 96]),
   midi.NoteOnEvent(tick=0, channel=0, data=[62, 96]),
   midi.NoteOnEvent(tick=0, channel=0, data=[65, 96]),
   midi.NoteOnEvent(tick=0, channel=0, data=[69, 96]),
   midi.NoteOffEvent(tick=227, channel=0, data=[59, 0]),
   midi.NoteOffEvent(tick=0, channel=0, data=[62, 0]),
   midi.NoteOffEvent(tick=0, channel=0, data=[65, 0]),
   midi.NoteOffEvent(tick=0, channel=0, data=[69, 0]),
   midi.NoteOnEvent(tick=13, channel=0, data=[89, 96]),
   midi.NoteOffEvent(tick=56, channel=0, data=[89, 0]),
   midi.NoteOnEvent(tick=4, channel=0, data=[88, 96]),
   midi.NoteOffEvent(tick=56, channel=0, data=[88, 0]),
   midi.NoteOnEvent(tick=4, channel=0, data=[86, 96]),
   midi.NoteOffEvent(tick=56, channel=0, data=[86, 0]),
   midi.NoteOnEvent(tick=4, channel=0, data=[83, 96]),
   midi.NoteOffEvent(tick=56, channel=0, data=[83, 0]),
   midi.NoteOnEvent(tick=4, channel=0, data=[77, 96]),
   midi.NoteOffEvent(tick=56, channel=0, data=[77, 0]),
   midi.NoteOnEvent(tick=4, channel=0, data=[76, 96]),
   midi.NoteOffEvent(tick=56, channel=0, data=[76, 0]),
   midi.NoteOnEvent(tick=4, channel=0, data=[74, 96]),
   midi.NoteOffEvent(tick=56, channel=0, data=[74, 0]),
   midi.NoteOnEvent(tick=4, channel=0, data=[71, 96]),
   midi.NoteOffEvent(tick=56, channel=0, data=[71, 0]),
   midi.NoteOnEvent(tick=4, channel=0, data=[65, 96]),
   midi.NoteOffEvent(tick=56, channel=0, data=[65, 0]),
   midi.NoteOnEvent(tick=4, channel=0, data=[64, 96]),
   midi.NoteOffEvent(tick=56, channel=0, data=[64, 0]),
   midi.NoteOnEvent(tick=4, channel=0, data=[62, 96]),
   midi.NoteOffEvent(tick=113, channel=0, data=[62, 0]),
   midi.NoteOnEvent(tick=7, channel=0, data=[62, 96]),
   midi.NoteOnEvent(tick=0, channel=0, data=[65, 96]),
   midi.NoteOnEvent(tick=0, channel=0, data=[70, 96]),
   midi.NoteOffEvent(tick=341, channel=0, data=[62, 0]),
   midi.NoteOffEvent(tick=0, channel=0, data=[65, 0]),
   midi.NoteOffEvent(tick=0, channel=0, data=[70, 0]),
   midi.NoteOnEvent(tick=19, channel=0, data=[62, 96]),
   midi.NoteOnEvent(tick=0, channel=0, data=[74, 96]),
   midi.NoteOffEvent(tick=113, channel=0, data=[62, 0]),
   midi.NoteOffEvent(tick=0, channel=0, data=[74, 0]),
   midi.NoteOnEvent(tick=7, channel=0, data=[62, 96]),
   midi.NoteOnEvent(tick=0, channel=0, data=[74, 96]),
   midi.NoteOffEvent(tick=113, channel=0, data=[62, 0]),
   midi.NoteOffEvent(tick=0, channel=0, data=[74, 0]),
   midi.NoteOnEvent(tick=7, channel=0, data=[64, 96]),
   midi.NoteOnEvent(tick=0, channel=0, data=[76, 96]),
   midi.NoteOffEvent(tick=113, channel=0, data=[64, 0]),
   midi.NoteOffEvent(tick=0, channel=0, data=[76, 0]),
   midi.NoteOnEvent(tick=7, channel=0, data=[65, 96]),
   midi.NoteOnEvent(tick=0, channel=0, data=[77, 96]),
   midi.NoteOffEvent(tick=227, channel=0, data=[65, 0]),
   midi.NoteOffEvent(tick=0, channel=0, data=[77, 0]),
   midi.NoteOnEvent(tick=13, channel=0, data=[67, 96]),
   midi.NoteOnEvent(tick=0, channel=0, data=[72, 96]),
   midi.NoteOnEvent(tick=0, channel=0, data=[76, 96]),
   midi.NoteOnEvent(tick=0, channel=0, data=[79, 96]),
   midi.NoteOffEvent(tick=227, channel=0, data=[67, 0]),
   midi.NoteOffEvent(tick=0, channel=0, data=[72, 0]),
   midi.NoteOffEvent(tick=0, channel=0, data=[76, 0]),
   midi.NoteOffEvent(tick=0, channel=0, data=[79, 0]),
   midi.NoteOnEvent(tick=13, channel=0, data=[65, 96]),
   midi.NoteOnEvent(tick=0, channel=0, data=[77, 96]),
   midi.NoteOffEvent(tick=227, channel=0, data=[65, 0]),
   midi.NoteOffEvent(tick=0, channel=0, data=[77, 0]),
   midi.NoteOnEvent(tick=13, channel=0, data=[64, 96]),
   midi.NoteOnEvent(tick=0, channel=0, data=[76, 96]),
   midi.NoteOffEvent(tick=227, channel=0, data=[64, 0]),
   midi.NoteOffEvent(tick=0, channel=0, data=[76, 0]),
   midi.NoteOnEvent(tick=13, channel=0, data=[65, 96]),
   midi.NoteOnEvent(tick=0, channel=0, data=[77, 96]),
   midi.NoteOffEvent(tick=113, channel=0, data=[65, 0]),
   midi.NoteOffEvent(tick=0, channel=0, data=[77, 0]),
   midi.NoteOnEvent(tick=7, channel=0, data=[65, 96]),
   midi.NoteOnEvent(tick=0, channel=0, data=[77, 96]),
   midi.NoteOffEvent(tick=113, channel=0, data=[65, 0]),
   midi.NoteOnEvent(tick=7, channel=0, data=[65, 96]),
   midi.NoteOnEvent(tick=0, channel=0, data=[70, 96]),
   midi.NoteOffEvent(tick=449, channel=0, data=[77, 0]),
   midi.NoteOffEvent(tick=6, channel=0, data=[65, 0]),
   midi.NoteOffEvent(tick=0, channel=0, data=[70, 0]),
   midi.NoteOnEvent(tick=25, channel=0, data=[65, 96]),
   midi.NoteOnEvent(tick=0, channel=0, data=[70, 96]),
   midi.NoteOffEvent(tick=113, channel=0, data=[65, 0]),
   midi.NoteOffEvent(tick=0, channel=0, data=[70, 0]),
   midi.NoteOnEvent(tick=127, channel=0, data=[60, 96]),
   midi.NoteOnEvent(tick=0, channel=0, data=[65, 96]),
   midi.NoteOnEvent(tick=0, channel=0, data=[69, 96]),
   midi.NoteOffEvent(tick=2051, channel=0, data=[60, 0]),
   midi.NoteOffEvent(tick=0, channel=0, data=[65, 0]),
   midi.NoteOffEvent(tick=0, channel=0, data=[69, 0]),
   midi.TextMetaEvent(tick=1, text='end', data=[101, 110, 100]),
   midi.EndOfTrackEvent(tick=1, data=[])]),
 midi.Track(\
  [midi.TextMetaEvent(tick=0, text='start', data=[115, 116, 97, 114, 116]),
   midi.KeySignatureEvent(tick=0, data=[255, 0]),
   midi.PortEvent(tick=0, data=[0]),
   midi.ProgramChangeEvent(tick=0, channel=0, data=[0]),
   midi.NoteOnEvent(tick=0, channel=0, data=[74, 64]),
   midi.NoteOnEvent(tick=0, channel=0, data=[81, 64]),
   midi.NoteOffEvent(tick=911, channel=0, data=[74, 0]),
   midi.NoteOffEvent(tick=0, channel=0, data=[81, 0]),
   midi.NoteOnEvent(tick=49, channel=0, data=[72, 64]),
   midi.NoteOnEvent(tick=0, channel=0, data=[81, 64]),
   midi.NoteOffEvent(tick=911, channel=0, data=[72, 0]),
   midi.NoteOffEvent(tick=0, channel=0, data=[81, 0]),
   midi.NoteOnEvent(tick=49, channel=0, data=[70, 64]),
   midi.NoteOnEvent(tick=0, channel=0, data=[77, 64]),
   midi.NoteOffEvent(tick=1823, channel=0, data=[70, 0]),
   midi.NoteOffEvent(tick=0, channel=0, data=[77, 0]),
   midi.NoteOnEvent(tick=2017, channel=0, data=[62, 64]),
   midi.NoteOnEvent(tick=0, channel=0, data=[69, 64]),
   midi.NoteOffEvent(tick=911, channel=0, data=[62, 0]),
   midi.NoteOffEvent(tick=0, channel=0, data=[69, 0]),
   midi.NoteOnEvent(tick=49, channel=0, data=[60, 64]),
   midi.NoteOnEvent(tick=0, channel=0, data=[69, 64]),
   midi.NoteOffEvent(tick=911, channel=0, data=[60, 0]),
   midi.NoteOffEvent(tick=0, channel=0, data=[69, 0]),
   midi.NoteOnEvent(tick=49, channel=0, data=[58, 64]),
   midi.NoteOnEvent(tick=0, channel=0, data=[65, 64]),
   midi.NoteOffEvent(tick=911, channel=0, data=[58, 0]),
   midi.NoteOffEvent(tick=0, channel=0, data=[65, 0]),
   midi.NoteOnEvent(tick=49, channel=0, data=[57, 64]),
   midi.NoteOffEvent(tick=911, channel=0, data=[57, 0]),
   midi.NoteOnEvent(tick=49, channel=0, data=[67, 64]),
   midi.NoteOffEvent(tick=911, channel=0, data=[67, 0]),
   midi.NoteOnEvent(tick=49, channel=0, data=[65, 64]),
   midi.NoteOffEvent(tick=911, channel=0, data=[65, 0]),
   midi.NoteOnEvent(tick=49, channel=0, data=[64, 64]),
   midi.NoteOffEvent(tick=911, channel=0, data=[64, 0]),
   midi.NoteOnEvent(tick=49, channel=0, data=[57, 64]),
   midi.NoteOnEvent(tick=0, channel=0, data=[69, 64]),
   midi.NoteOffEvent(tick=455, channel=0, data=[57, 0]),
   midi.NoteOffEvent(tick=0, channel=0, data=[69, 0]),
   midi.NoteOnEvent(tick=25, channel=0, data=[45, 64]),
   midi.NoteOffEvent(tick=455, channel=0, data=[45, 0]),
   midi.NoteOnEvent(tick=25, channel=0, data=[50, 80]),
   midi.NoteOffEvent(tick=341, channel=0, data=[50, 0]),
   midi.NoteOnEvent(tick=19, channel=0, data=[57, 80]),
   midi.NoteOffEvent(tick=113, channel=0, data=[57, 0]),
   midi.NoteOnEvent(tick=7, channel=0, data=[62, 80]),
   midi.NoteOffEvent(tick=113, channel=0, data=[62, 0]),
   midi.NoteOnEvent(tick=7, channel=0, data=[65, 80]),
   midi.NoteOffEvent(tick=113, channel=0, data=[65, 0]),
   midi.NoteOnEvent(tick=7, channel=0, data=[69, 80]),
   midi.NoteOffEvent(tick=227, channel=0, data=[69, 0]),
   midi.NoteOnEvent(tick=13, channel=0, data=[48, 80]),
   midi.NoteOffEvent(tick=341, channel=0, data=[48, 0]),
   midi.NoteOnEvent(tick=19, channel=0, data=[57, 80]),
   midi.NoteOffEvent(tick=113, channel=0, data=[57, 0]),
   midi.NoteOnEvent(tick=7, channel=0, data=[60, 80]),
   midi.NoteOffEvent(tick=113, channel=0, data=[60, 0]),
   midi.NoteOnEvent(tick=7, channel=0, data=[64, 80]),
   midi.NoteOffEvent(tick=113, channel=0, data=[64, 0]),
   midi.NoteOnEvent(tick=7, channel=0, data=[69, 80]),
   midi.NoteOffEvent(tick=227, channel=0, data=[69, 0]),
   midi.NoteOnEvent(tick=13, channel=0, data=[46, 80]),
   midi.NoteOffEvent(tick=341, channel=0, data=[46, 0]),
   midi.NoteOnEvent(tick=19, channel=0, data=[53, 80]),
   midi.NoteOffEvent(tick=113, channel=0, data=[53, 0]),
   midi.NoteOnEvent(tick=7, channel=0, data=[58, 80]),
   midi.NoteOffEvent(tick=113, channel=0, data=[58, 0]),
   midi.NoteOnEvent(tick=7, channel=0, data=[62, 80]),
   midi.NoteOffEvent(tick=113, channel=0, data=[62, 0]),
   midi.NoteOnEvent(tick=7, channel=0, data=[65, 80]),
   midi.NoteOffEvent(tick=227, channel=0, data=[65, 0]),
   midi.NoteOnEvent(tick=13, channel=0, data=[41, 80]),
   midi.NoteOffEvent(tick=341, channel=0, data=[41, 0]),
   midi.NoteOnEvent(tick=19, channel=0, data=[48, 80]),
   midi.NoteOffEvent(tick=113, channel=0, data=[48, 0]),
   midi.NoteOnEvent(tick=7, channel=0, data=[53, 80]),
   midi.NoteOffEvent(tick=113, channel=0, data=[53, 0]),
   midi.NoteOnEvent(tick=7, channel=0, data=[57, 80]),
   midi.NoteOffEvent(tick=113, channel=0, data=[57, 0]),
   midi.NoteOnEvent(tick=7, channel=0, data=[60, 80]),
   midi.NoteOffEvent(tick=227, channel=0, data=[60, 0]),
   midi.NoteOnEvent(tick=13, channel=0, data=[43, 80]),
   midi.NoteOffEvent(tick=341, channel=0, data=[43, 0]),
   midi.NoteOnEvent(tick=19, channel=0, data=[50, 80]),
   midi.NoteOffEvent(tick=113, channel=0, data=[50, 0]),
   midi.NoteOnEvent(tick=7, channel=0, data=[55, 80]),
   midi.NoteOffEvent(tick=113, channel=0, data=[55, 0]),
   midi.NoteOnEvent(tick=7, channel=0, data=[58, 80]),
   midi.NoteOffEvent(tick=113, channel=0, data=[58, 0]),
   midi.NoteOnEvent(tick=7, channel=0, data=[62, 80]),
   midi.NoteOffEvent(tick=227, channel=0, data=[62, 0]),
   midi.NoteOnEvent(tick=13, channel=0, data=[38, 80]),
   midi.NoteOffEvent(tick=341, channel=0, data=[38, 0]),
   midi.NoteOnEvent(tick=19, channel=0, data=[45, 80]),
   midi.NoteOffEvent(tick=113, channel=0, data=[45, 0]),
   midi.NoteOnEvent(tick=7, channel=0, data=[50, 80]),
   midi.NoteOffEvent(tick=113, channel=0, data=[50, 0]),
   midi.NoteOnEvent(tick=7, channel=0, data=[53, 80]),
   midi.NoteOffEvent(tick=113, channel=0, data=[53, 0]),
   midi.NoteOnEvent(tick=7, channel=0, data=[57, 80]),
   midi.NoteOffEvent(tick=227, channel=0, data=[57, 0]),
   midi.NoteOnEvent(tick=13, channel=0, data=[43, 80]),
   midi.NoteOffEvent(tick=341, channel=0, data=[43, 0]),
   midi.NoteOnEvent(tick=19, channel=0, data=[50, 80]),
   midi.NoteOffEvent(tick=113, channel=0, data=[50, 0]),
   midi.NoteOnEvent(tick=7, channel=0, data=[55, 80]),
   midi.NoteOffEvent(tick=113, channel=0, data=[55, 0]),
   midi.NoteOnEvent(tick=7, channel=0, data=[57, 80]),
   midi.NoteOffEvent(tick=113, channel=0, data=[57, 0]),
   midi.NoteOnEvent(tick=7, channel=0, data=[58, 80]),
   midi.NoteOffEvent(tick=227, channel=0, data=[58, 0]),
   midi.NoteOnEvent(tick=13, channel=0, data=[45, 80]),
   midi.NoteOffEvent(tick=113, channel=0, data=[45, 0]),
   midi.NoteOnEvent(tick=7, channel=0, data=[52, 80]),
   midi.NoteOffEvent(tick=113, channel=0, data=[52, 0]),
   midi.NoteOnEvent(tick=127, channel=0, data=[57, 80]),
   midi.NoteOffEvent(tick=113, channel=0, data=[57, 0]),
   midi.NoteOnEvent(tick=247, channel=0, data=[45, 80]),
   midi.NoteOffEvent(tick=227, channel=0, data=[45, 0]),
   midi.NoteOnEvent(tick=13, channel=0, data=[50, 80]),
   midi.NoteOnEvent(tick=0, channel=0, data=[62, 80]),
   midi.NoteOffEvent(tick=227, channel=0, data=[50, 0]),
   midi.NoteOffEvent(tick=0, channel=0, data=[62, 0]),
   midi.NoteOnEvent(tick=13, channel=0, data=[76, 80]),
   midi.NoteOffEvent(tick=227, channel=0, data=[76, 0]),
   midi.NoteOnEvent(tick=13, channel=0, data=[74, 80]),
   midi.NoteOffEvent(tick=227, channel=0, data=[74, 0]),
   midi.NoteOnEvent(tick=13, channel=0, data=[69, 80]),
   midi.NoteOffEvent(tick=227, channel=0, data=[69, 0]),
   midi.NoteOnEvent(tick=13, channel=0, data=[60, 80]),
   midi.NoteOffEvent(tick=227, channel=0, data=[60, 0]),
   midi.NoteOnEvent(tick=13, channel=0, data=[76, 80]),
   midi.NoteOffEvent(tick=227, channel=0, data=[76, 0]),
   midi.NoteOnEvent(tick=13, channel=0, data=[74, 80]),
   midi.NoteOffEvent(tick=227, channel=0, data=[74, 0]),
   midi.NoteOnEvent(tick=13, channel=0, data=[69, 80]),
   midi.NoteOffEvent(tick=227, channel=0, data=[69, 0]),
   midi.NoteOnEvent(tick=13, channel=0, data=[58, 80]),
   midi.NoteOffEvent(tick=227, channel=0, data=[58, 0]),
   midi.NoteOnEvent(tick=13, channel=0, data=[76, 80]),
   midi.NoteOffEvent(tick=227, channel=0, data=[76, 0]),
   midi.NoteOnEvent(tick=13, channel=0, data=[74, 80]),
   midi.NoteOffEvent(tick=227, channel=0, data=[74, 0]),
   midi.NoteOnEvent(tick=13, channel=0, data=[69, 80]),
   midi.NoteOffEvent(tick=227, channel=0, data=[69, 0]),
   midi.NoteOnEvent(tick=13, channel=0, data=[77, 80]),
   midi.NoteOnEvent(tick=240, channel=0, data=[76, 80]),
   midi.NoteOffEvent(tick=167, channel=0, data=[77, 0]),
   midi.NoteOffEvent(tick=60, channel=0, data=[76, 0]),
   midi.NoteOnEvent(tick=13, channel=0, data=[74, 80]),
   midi.NoteOffEvent(tick=227, channel=0, data=[74, 0]),
   midi.NoteOnEvent(tick=13, channel=0, data=[69, 80]),
   midi.NoteOffEvent(tick=227, channel=0, data=[69, 0]),
   midi.NoteOnEvent(tick=13, channel=0, data=[50, 80]),
   midi.NoteOnEvent(tick=0, channel=0, data=[62, 80]),
   midi.NoteOffEvent(tick=227, channel=0, data=[50, 0]),
   midi.NoteOffEvent(tick=0, channel=0, data=[62, 0]),
   midi.NoteOnEvent(tick=13, channel=0, data=[76, 80]),
   midi.NoteOffEvent(tick=227, channel=0, data=[76, 0]),
   midi.NoteOnEvent(tick=13, channel=0, data=[74, 80]),
   midi.NoteOffEvent(tick=227, channel=0, data=[74, 0]),
   midi.NoteOnEvent(tick=13, channel=0, data=[69, 80]),
   midi.NoteOffEvent(tick=227, channel=0, data=[69, 0]),
   midi.NoteOnEvent(tick=13, channel=0, data=[60, 80]),
   midi.NoteOffEvent(tick=227, channel=0, data=[60, 0]),
   midi.NoteOnEvent(tick=13, channel=0, data=[76, 80]),
   midi.NoteOffEvent(tick=227, channel=0, data=[76, 0]),
   midi.NoteOnEvent(tick=13, channel=0, data=[74, 80]),
   midi.NoteOffEvent(tick=227, channel=0, data=[74, 0]),
   midi.NoteOnEvent(tick=13, channel=0, data=[69, 80]),
   midi.NoteOffEvent(tick=227, channel=0, data=[69, 0]),
   midi.NoteOnEvent(tick=13, channel=0, data=[58, 80]),
   midi.NoteOffEvent(tick=227, channel=0, data=[58, 0]),
   midi.NoteOnEvent(tick=13, channel=0, data=[76, 80]),
   midi.NoteOffEvent(tick=227, channel=0, data=[76, 0]),
   midi.NoteOnEvent(tick=13, channel=0, data=[74, 80]),
   midi.NoteOffEvent(tick=227, channel=0, data=[74, 0]),
   midi.NoteOnEvent(tick=13, channel=0, data=[69, 80]),
   midi.NoteOffEvent(tick=227, channel=0, data=[69, 0]),
   midi.NoteOnEvent(tick=13, channel=0, data=[77, 80]),
   midi.NoteOffEvent(tick=227, channel=0, data=[77, 0]),
   midi.NoteOnEvent(tick=13, channel=0, data=[76, 80]),
   midi.NoteOffEvent(tick=227, channel=0, data=[76, 0]),
   midi.NoteOnEvent(tick=13, channel=0, data=[74, 80]),
   midi.NoteOffEvent(tick=227, channel=0, data=[74, 0]),
   midi.NoteOnEvent(tick=13, channel=0, data=[69, 80]),
   midi.NoteOffEvent(tick=227, channel=0, data=[69, 0]),
   midi.NoteOnEvent(tick=13, channel=0, data=[58, 80]),
   midi.NoteOffEvent(tick=1823, channel=0, data=[58, 0]),
   midi.NoteOnEvent(tick=97, channel=0, data=[50, 80]),
   midi.NoteOffEvent(tick=1139, channel=0, data=[50, 0]),
   midi.NoteOnEvent(tick=61, channel=0, data=[57, 80]),
   midi.NoteOffEvent(tick=683, channel=0, data=[57, 0]),
   midi.NoteOnEvent(tick=37, channel=0, data=[46, 80]),
   midi.NoteOffEvent(tick=227, channel=0, data=[46, 0]),
   midi.NoteOnEvent(tick=13, channel=0, data=[53, 80]),
   midi.NoteOffEvent(tick=341, channel=0, data=[53, 0]),
   midi.NoteOnEvent(tick=19, channel=0, data=[58, 80]),
   midi.NoteOffEvent(tick=569, channel=0, data=[58, 0]),
   midi.NoteOnEvent(tick=31, channel=0, data=[46, 80]),
   midi.NoteOffEvent(tick=683, channel=0, data=[46, 0]),
   midi.NoteOnEvent(tick=37, channel=0, data=[48, 80]),
   midi.NoteOffEvent(tick=1823, channel=0, data=[48, 0]),
   midi.NoteOnEvent(tick=1537, channel=0, data=[36, 80]),
   midi.NoteOnEvent(tick=0, channel=0, data=[48, 80]),
   midi.NoteOffEvent(tick=170, channel=0, data=[36, 0]),
   midi.NoteOffEvent(tick=0, channel=0, data=[48, 0]),
   midi.NoteOnEvent(tick=10, channel=0, data=[36, 86]),
   midi.NoteOnEvent(tick=0, channel=0, data=[48, 86]),
   midi.NoteOffEvent(tick=170, channel=0, data=[36, 0]),
   midi.NoteOffEvent(tick=0, channel=0, data=[48, 0]),
   midi.NoteOnEvent(tick=10, channel=0, data=[36, 92]),
   midi.NoteOnEvent(tick=0, channel=0, data=[48, 92]),
   midi.NoteOffEvent(tick=113, channel=0, data=[36, 0]),
   midi.NoteOffEvent(tick=0, channel=0, data=[48, 0]),
   midi.NoteOnEvent(tick=7, channel=0, data=[38, 96]),
   midi.NoteOffEvent(tick=113, channel=0, data=[38, 0]),
   midi.NoteOnEvent(tick=7, channel=0, data=[50, 96]),
   midi.NoteOffEvent(tick=227, channel=0, data=[50, 0]),
   midi.NoteOnEvent(tick=13, channel=0, data=[50, 96]),
   midi.NoteOffEvent(tick=113, channel=0, data=[50, 0]),
   midi.NoteOnEvent(tick=7, channel=0, data=[57, 96]),
   midi.NoteOnEvent(tick=0, channel=0, data=[62, 96]),
   midi.NoteOffEvent(tick=113, channel=0, data=[57, 0]),
   midi.NoteOffEvent(tick=0, channel=0, data=[62, 0]),
   midi.NoteOnEvent(tick=7, channel=0, data=[50, 96]),
   midi.NoteOffEvent(tick=227, channel=0, data=[50, 0]),
   midi.NoteOnEvent(tick=13, channel=0, data=[50, 96]),
   midi.NoteOffEvent(tick=113, channel=0, data=[50, 0]),
   midi.NoteOnEvent(tick=7, channel=0, data=[36, 96]),
   midi.NoteOffEvent(tick=113, channel=0, data=[36, 0]),
   midi.NoteOnEvent(tick=7, channel=0, data=[48, 96]),
   midi.NoteOffEvent(tick=227, channel=0, data=[48, 0]),
   midi.NoteOnEvent(tick=13, channel=0, data=[48, 96]),
   midi.NoteOffEvent(tick=113, channel=0, data=[48, 0]),
   midi.NoteOnEvent(tick=7, channel=0, data=[57, 96]),
   midi.NoteOnEvent(tick=0, channel=0, data=[60, 96]),
   midi.NoteOffEvent(tick=113, channel=0, data=[57, 0]),
   midi.NoteOffEvent(tick=0, channel=0, data=[60, 0]),
   midi.NoteOnEvent(tick=7, channel=0, data=[48, 96]),
   midi.NoteOffEvent(tick=227, channel=0, data=[48, 0]),
   midi.NoteOnEvent(tick=13, channel=0, data=[48, 96]),
   midi.NoteOffEvent(tick=113, channel=0, data=[48, 0]),
   midi.NoteOnEvent(tick=7, channel=0, data=[46, 96]),
   midi.NoteOffEvent(tick=113, channel=0, data=[46, 0]),
   midi.NoteOnEvent(tick=7, channel=0, data=[58, 96]),
   midi.NoteOffEvent(tick=227, channel=0, data=[58, 0]),
   midi.NoteOnEvent(tick=13, channel=0, data=[58, 96]),
   midi.NoteOffEvent(tick=113, channel=0, data=[58, 0]),
   midi.NoteOnEvent(tick=7, channel=0, data=[62, 96]),
   midi.NoteOnEvent(tick=0, channel=0, data=[65, 96]),
   midi.NoteOffEvent(tick=113, channel=0, data=[62, 0]),
   midi.NoteOffEvent(tick=0, channel=0, data=[65, 0]),
   midi.NoteOnEvent(tick=7, channel=0, data=[58, 96]),
   midi.NoteOffEvent(tick=227, channel=0, data=[58, 0]),
   midi.NoteOnEvent(tick=13, channel=0, data=[58, 96]),
   midi.NoteOffEvent(tick=113, channel=0, data=[58, 0]),
   midi.NoteOnEvent(tick=7, channel=0, data=[45, 96]),
   midi.NoteOffEvent(tick=113, channel=0, data=[45, 0]),
   midi.NoteOnEvent(tick=7, channel=0, data=[57, 96]),
   midi.NoteOffEvent(tick=227, channel=0, data=[57, 0]),
   midi.NoteOnEvent(tick=13, channel=0, data=[57, 96]),
   midi.NoteOffEvent(tick=113, channel=0, data=[57, 0]),
   midi.NoteOnEvent(tick=7, channel=0, data=[60, 96]),
   midi.NoteOnEvent(tick=0, channel=0, data=[65, 96]),
   midi.NoteOffEvent(tick=113, channel=0, data=[60, 0]),
   midi.NoteOffEvent(tick=0, channel=0, data=[65, 0]),
   midi.NoteOnEvent(tick=7, channel=0, data=[57, 96]),
   midi.NoteOffEvent(tick=227, channel=0, data=[57, 0]),
   midi.NoteOnEvent(tick=13, channel=0, data=[57, 96]),
   midi.NoteOffEvent(tick=113, channel=0, data=[57, 0]),
   midi.NoteOnEvent(tick=7, channel=0, data=[43, 96]),
   midi.NoteOffEvent(tick=113, channel=0, data=[43, 0]),
   midi.NoteOnEvent(tick=7, channel=0, data=[55, 96]),
   midi.NoteOffEvent(tick=227, channel=0, data=[55, 0]),
   midi.NoteOnEvent(tick=13, channel=0, data=[55, 96]),
   midi.NoteOffEvent(tick=113, channel=0, data=[55, 0]),
   midi.NoteOnEvent(tick=7, channel=0, data=[58, 96]),
   midi.NoteOnEvent(tick=0, channel=0, data=[62, 96]),
   midi.NoteOffEvent(tick=113, channel=0, data=[58, 0]),
   midi.NoteOffEvent(tick=0, channel=0, data=[62, 0]),
   midi.NoteOnEvent(tick=7, channel=0, data=[55, 96]),
   midi.NoteOffEvent(tick=227, channel=0, data=[55, 0]),
   midi.NoteOnEvent(tick=13, channel=0, data=[55, 96]),
   midi.NoteOffEvent(tick=113, channel=0, data=[55, 0]),
   midi.NoteOnEvent(tick=7, channel=0, data=[38, 96]),
   midi.NoteOffEvent(tick=113, channel=0, data=[38, 0]),
   midi.NoteOnEvent(tick=7, channel=0, data=[50, 96]),
   midi.NoteOffEvent(tick=227, channel=0, data=[50, 0]),
   midi.NoteOnEvent(tick=13, channel=0, data=[50, 96]),
   midi.NoteOffEvent(tick=113, channel=0, data=[50, 0]),
   midi.NoteOnEvent(tick=7, channel=0, data=[57, 96]),
   midi.NoteOnEvent(tick=0, channel=0, data=[62, 96]),
   midi.NoteOffEvent(tick=113, channel=0, data=[57, 0]),
   midi.NoteOffEvent(tick=0, channel=0, data=[62, 0]),
   midi.NoteOnEvent(tick=7, channel=0, data=[50, 96]),
   midi.NoteOffEvent(tick=227, channel=0, data=[50, 0]),
   midi.NoteOnEvent(tick=13, channel=0, data=[50, 96]),
   midi.NoteOffEvent(tick=113, channel=0, data=[50, 0]),
   midi.NoteOnEvent(tick=7, channel=0, data=[40, 96]),
   midi.NoteOffEvent(tick=113, channel=0, data=[40, 0]),
   midi.NoteOnEvent(tick=7, channel=0, data=[52, 96]),
   midi.NoteOffEvent(tick=227, channel=0, data=[52, 0]),
   midi.NoteOnEvent(tick=13, channel=0, data=[52, 96]),
   midi.NoteOffEvent(tick=113, channel=0, data=[52, 0]),
   midi.NoteOnEvent(tick=7, channel=0, data=[58, 96]),
   midi.NoteOnEvent(tick=0, channel=0, data=[62, 96]),
   midi.NoteOffEvent(tick=113, channel=0, data=[58, 0]),
   midi.NoteOffEvent(tick=0, channel=0, data=[62, 0]),
   midi.NoteOnEvent(tick=7, channel=0, data=[52, 96]),
   midi.NoteOffEvent(tick=227, channel=0, data=[52, 0]),
   midi.NoteOnEvent(tick=13, channel=0, data=[52, 96]),
   midi.NoteOffEvent(tick=113, channel=0, data=[52, 0]),
   midi.NoteOnEvent(tick=7, channel=0, data=[33, 96]),
   midi.NoteOffEvent(tick=113, channel=0, data=[33, 0]),
   midi.NoteOnEvent(tick=7, channel=0, data=[45, 96]),
   midi.NoteOffEvent(tick=227, channel=0, data=[45, 0]),
   midi.NoteOnEvent(tick=13, channel=0, data=[45, 96]),
   midi.NoteOffEvent(tick=113, channel=0, data=[45, 0]),
   midi.NoteOnEvent(tick=7, channel=0, data=[52, 96]),
   midi.NoteOnEvent(tick=0, channel=0, data=[57, 96]),
   midi.NoteOffEvent(tick=113, channel=0, data=[52, 0]),
   midi.NoteOffEvent(tick=0, channel=0, data=[57, 0]),
   midi.NoteOnEvent(tick=7, channel=0, data=[45, 96]),
   midi.NoteOffEvent(tick=227, channel=0, data=[45, 0]),
   midi.NoteOnEvent(tick=13, channel=0, data=[45, 96]),
   midi.NoteOffEvent(tick=113, channel=0, data=[45, 0]),
   midi.NoteOnEvent(tick=7, channel=0, data=[46, 80]),
   midi.NoteOffEvent(tick=113, channel=0, data=[46, 0]),
   midi.NoteOnEvent(tick=7, channel=0, data=[53, 80]),
   midi.NoteOffEvent(tick=113, channel=0, data=[53, 0]),
   midi.NoteOnEvent(tick=7, channel=0, data=[58, 80]),
   midi.NoteOffEvent(tick=113, channel=0, data=[58, 0]),
   midi.NoteOnEvent(tick=7, channel=0, data=[53, 80]),
   midi.NoteOffEvent(tick=113, channel=0, data=[53, 0]),
   midi.NoteOnEvent(tick=7, channel=0, data=[62, 80]),
   midi.NoteOffEvent(tick=113, channel=0, data=[62, 0]),
   midi.NoteOnEvent(tick=7, channel=0, data=[58, 80]),
   midi.NoteOffEvent(tick=113, channel=0, data=[58, 0]),
   midi.NoteOnEvent(tick=7, channel=0, data=[65, 80]),
   midi.NoteOffEvent(tick=113, channel=0, data=[65, 0]),
   midi.NoteOnEvent(tick=7, channel=0, data=[62, 80]),
   midi.NoteOffEvent(tick=113, channel=0, data=[62, 0]),
   midi.NoteOnEvent(tick=7, channel=0, data=[70, 80]),
   midi.NoteOffEvent(tick=113, channel=0, data=[70, 0]),
   midi.NoteOnEvent(tick=7, channel=0, data=[65, 80]),
   midi.NoteOffEvent(tick=113, channel=0, data=[65, 0]),
   midi.NoteOnEvent(tick=7, channel=0, data=[62, 80]),
   midi.NoteOffEvent(tick=113, channel=0, data=[62, 0]),
   midi.NoteOnEvent(tick=7, channel=0, data=[58, 80]),
   midi.NoteOffEvent(tick=113, channel=0, data=[58, 0]),
   midi.NoteOnEvent(tick=7, channel=0, data=[53, 80]),
   midi.NoteOffEvent(tick=113, channel=0, data=[53, 0]),
   midi.NoteOnEvent(tick=7, channel=0, data=[50, 80]),
   midi.NoteOffEvent(tick=113, channel=0, data=[50, 0]),
   midi.NoteOnEvent(tick=7, channel=0, data=[46, 80]),
   midi.NoteOffEvent(tick=227, channel=0, data=[46, 0]),
   midi.NoteOnEvent(tick=13, channel=0, data=[45, 80]),
   midi.NoteOffEvent(tick=113, channel=0, data=[45, 0]),
   midi.NoteOnEvent(tick=7, channel=0, data=[53, 80]),
   midi.NoteOffEvent(tick=113, channel=0, data=[53, 0]),
   midi.NoteOnEvent(tick=7, channel=0, data=[57, 80]),
   midi.NoteOffEvent(tick=113, channel=0, data=[57, 0]),
   midi.NoteOnEvent(tick=7, channel=0, data=[53, 80]),
   midi.NoteOffEvent(tick=113, channel=0, data=[53, 0]),
   midi.NoteOnEvent(tick=7, channel=0, data=[60, 80]),
   midi.NoteOffEvent(tick=227, channel=0, data=[60, 0]),
   midi.NoteOnEvent(tick=13, channel=0, data=[37, 80]),
   midi.NoteOnEvent(tick=0, channel=0, data=[49, 80]),
   midi.NoteOffEvent(tick=227, channel=0, data=[37, 0]),
   midi.NoteOffEvent(tick=0, channel=0, data=[49, 0]),
   midi.NoteOnEvent(tick=13, channel=0, data=[38, 80]),
   midi.NoteOnEvent(tick=0, channel=0, data=[50, 80]),
   midi.NoteOffEvent(tick=227, channel=0, data=[38, 0]),
   midi.NoteOffEvent(tick=0, channel=0, data=[50, 0]),
   midi.NoteOnEvent(tick=13, channel=0, data=[50, 80]),
   midi.NoteOffEvent(tick=113, channel=0, data=[50, 0]),
   midi.NoteOnEvent(tick=7, channel=0, data=[57, 80]),
   midi.NoteOffEvent(tick=113, channel=0, data=[57, 0]),
   midi.NoteOnEvent(tick=7, channel=0, data=[65, 80]),
   midi.NoteOffEvent(tick=113, channel=0, data=[65, 0]),
   midi.NoteOnEvent(tick=7, channel=0, data=[57, 80]),
   midi.NoteOffEvent(tick=113, channel=0, data=[57, 0]),
   midi.NoteOnEvent(tick=7, channel=0, data=[50, 80]),
   midi.NoteOffEvent(tick=227, channel=0, data=[50, 0]),
   midi.NoteOnEvent(tick=13, channel=0, data=[43, 80]),
   midi.NoteOffEvent(tick=113, channel=0, data=[43, 0]),
   midi.NoteOnEvent(tick=7, channel=0, data=[50, 80]),
   midi.NoteOffEvent(tick=113, channel=0, data=[50, 0]),
   midi.NoteOnEvent(tick=7, channel=0, data=[55, 80]),
   midi.NoteOffEvent(tick=113, channel=0, data=[55, 0]),
   midi.NoteOnEvent(tick=7, channel=0, data=[50, 80]),
   midi.NoteOffEvent(tick=113, channel=0, data=[50, 0]),
   midi.NoteOnEvent(tick=7, channel=0, data=[58, 80]),
   midi.NoteOffEvent(tick=113, channel=0, data=[58, 0]),
   midi.NoteOnEvent(tick=7, channel=0, data=[50, 80]),
   midi.NoteOffEvent(tick=113, channel=0, data=[50, 0]),
   midi.NoteOnEvent(tick=7, channel=0, data=[55, 80]),
   midi.NoteOffEvent(tick=113, channel=0, data=[55, 0]),
   midi.NoteOnEvent(tick=7, channel=0, data=[50, 80]),
   midi.NoteOffEvent(tick=113, channel=0, data=[50, 0]),
   midi.NoteOnEvent(tick=7, channel=0, data=[45, 80]),
   midi.NoteOffEvent(tick=113, channel=0, data=[45, 0]),
   midi.NoteOnEvent(tick=7, channel=0, data=[52, 80]),
   midi.NoteOffEvent(tick=113, channel=0, data=[52, 0]),
   midi.NoteOnEvent(tick=7, channel=0, data=[57, 80]),
   midi.NoteOffEvent(tick=113, channel=0, data=[57, 0]),
   midi.NoteOnEvent(tick=7, channel=0, data=[52, 80]),
   midi.NoteOffEvent(tick=113, channel=0, data=[52, 0]),
   midi.NoteOnEvent(tick=7, channel=0, data=[61, 80]),
   midi.NoteOffEvent(tick=227, channel=0, data=[61, 0]),
   midi.NoteOnEvent(tick=13, channel=0, data=[37, 80]),
   midi.NoteOnEvent(tick=0, channel=0, data=[49, 80]),
   midi.NoteOffEvent(tick=227, channel=0, data=[37, 0]),
   midi.NoteOffEvent(tick=0, channel=0, data=[49, 0]),
   midi.NoteOnEvent(tick=13, channel=0, data=[38, 80]),
   midi.NoteOnEvent(tick=0, channel=0, data=[50, 80]),
   midi.NoteOffEvent(tick=227, channel=0, data=[38, 0]),
   midi.NoteOffEvent(tick=0, channel=0, data=[50, 0]),
   midi.NoteOnEvent(tick=13, channel=0, data=[50, 80]),
   midi.NoteOffEvent(tick=113, channel=0, data=[50, 0]),
   midi.NoteOnEvent(tick=7, channel=0, data=[57, 80]),
   midi.NoteOffEvent(tick=113, channel=0, data=[57, 0]),
   midi.NoteOnEvent(tick=7, channel=0, data=[65, 80]),
   midi.NoteOffEvent(tick=113, channel=0, data=[65, 0]),
   midi.NoteOnEvent(tick=7, channel=0, data=[57, 80]),
   midi.NoteOffEvent(tick=113, channel=0, data=[57, 0]),
   midi.NoteOnEvent(tick=7, channel=0, data=[50, 80]),
   midi.NoteOffEvent(tick=227, channel=0, data=[50, 0]),
   midi.NoteOnEvent(tick=13, channel=0, data=[48, 80]),
   midi.NoteOffEvent(tick=113, channel=0, data=[48, 0]),
   midi.NoteOnEvent(tick=7, channel=0, data=[57, 80]),
   midi.NoteOffEvent(tick=113, channel=0, data=[57, 0]),
   midi.NoteOnEvent(tick=7, channel=0, data=[60, 80]),
   midi.NoteOffEvent(tick=113, channel=0, data=[60, 0]),
   midi.NoteOnEvent(tick=7, channel=0, data=[57, 80]),
   midi.NoteOffEvent(tick=113, channel=0, data=[57, 0]),
   midi.NoteOnEvent(tick=7, channel=0, data=[60, 80]),
   midi.NoteOffEvent(tick=113, channel=0, data=[60, 0]),
   midi.NoteOnEvent(tick=7, channel=0, data=[57, 80]),
   midi.NoteOffEvent(tick=113, channel=0, data=[57, 0]),
   midi.NoteOnEvent(tick=7, channel=0, data=[48, 80]),
   midi.NoteOffEvent(tick=227, channel=0, data=[48, 0]),
   midi.NoteOnEvent(tick=13, channel=0, data=[46, 80]),
   midi.NoteOffEvent(tick=113, channel=0, data=[46, 0]),
   midi.NoteOnEvent(tick=7, channel=0, data=[53, 80]),
   midi.NoteOffEvent(tick=113, channel=0, data=[53, 0]),
   midi.NoteOnEvent(tick=7, channel=0, data=[58, 80]),
   midi.NoteOffEvent(tick=113, channel=0, data=[58, 0]),
   midi.NoteOnEvent(tick=7, channel=0, data=[53, 80]),
   midi.NoteOffEvent(tick=113, channel=0, data=[53, 0]),
   midi.NoteOnEvent(tick=7, channel=0, data=[62, 80]),
   midi.NoteOffEvent(tick=113, channel=0, data=[62, 0]),
   midi.NoteOnEvent(tick=7, channel=0, data=[58, 80]),
   midi.NoteOffEvent(tick=113, channel=0, data=[58, 0]),
   midi.NoteOnEvent(tick=7, channel=0, data=[65, 80]),
   midi.NoteOffEvent(tick=113, channel=0, data=[65, 0]),
   midi.NoteOnEvent(tick=7, channel=0, data=[62, 80]),
   midi.NoteOffEvent(tick=113, channel=0, data=[62, 0]),
   midi.NoteOnEvent(tick=7, channel=0, data=[70, 80]),
   midi.NoteOffEvent(tick=113, channel=0, data=[70, 0]),
   midi.NoteOnEvent(tick=7, channel=0, data=[65, 80]),
   midi.NoteOffEvent(tick=113, channel=0, data=[65, 0]),
   midi.NoteOnEvent(tick=7, channel=0, data=[62, 80]),
   midi.NoteOffEvent(tick=113, channel=0, data=[62, 0]),
   midi.NoteOnEvent(tick=7, channel=0, data=[58, 80]),
   midi.NoteOffEvent(tick=113, channel=0, data=[58, 0]),
   midi.NoteOnEvent(tick=7, channel=0, data=[53, 80]),
   midi.NoteOffEvent(tick=113, channel=0, data=[53, 0]),
   midi.NoteOnEvent(tick=7, channel=0, data=[50, 80]),
   midi.NoteOffEvent(tick=113, channel=0, data=[50, 0]),
   midi.NoteOnEvent(tick=7, channel=0, data=[46, 80]),
   midi.NoteOffEvent(tick=227, channel=0, data=[46, 0]),
   midi.NoteOnEvent(tick=13, channel=0, data=[45, 80]),
   midi.NoteOffEvent(tick=113, channel=0, data=[45, 0]),
   midi.NoteOnEvent(tick=7, channel=0, data=[53, 80]),
   midi.NoteOffEvent(tick=113, channel=0, data=[53, 0]),
   midi.NoteOnEvent(tick=7, channel=0, data=[57, 80]),
   midi.NoteOffEvent(tick=113, channel=0, data=[57, 0]),
   midi.NoteOnEvent(tick=7, channel=0, data=[53, 80]),
   midi.NoteOffEvent(tick=113, channel=0, data=[53, 0]),
   midi.NoteOnEvent(tick=7, channel=0, data=[60, 80]),
   midi.NoteOffEvent(tick=227, channel=0, data=[60, 0]),
   midi.NoteOnEvent(tick=13, channel=0, data=[37, 80]),
   midi.NoteOnEvent(tick=0, channel=0, data=[49, 80]),
   midi.NoteOffEvent(tick=227, channel=0, data=[37, 0]),
   midi.NoteOffEvent(tick=0, channel=0, data=[49, 0]),
   midi.NoteOnEvent(tick=13, channel=0, data=[38, 80]),
   midi.NoteOnEvent(tick=0, channel=0, data=[50, 80]),
   midi.NoteOffEvent(tick=227, channel=0, data=[38, 0]),
   midi.NoteOffEvent(tick=0, channel=0, data=[50, 0]),
   midi.NoteOnEvent(tick=13, channel=0, data=[50, 80]),
   midi.NoteOffEvent(tick=113, channel=0, data=[50, 0]),
   midi.NoteOnEvent(tick=7, channel=0, data=[57, 80]),
   midi.NoteOffEvent(tick=113, channel=0, data=[57, 0]),
   midi.NoteOnEvent(tick=7, channel=0, data=[65, 80]),
   midi.NoteOffEvent(tick=113, channel=0, data=[65, 0]),
   midi.NoteOnEvent(tick=7, channel=0, data=[57, 80]),
   midi.NoteOffEvent(tick=113, channel=0, data=[57, 0]),
   midi.NoteOnEvent(tick=7, channel=0, data=[50, 80]),
   midi.NoteOffEvent(tick=227, channel=0, data=[50, 0]),
   midi.NoteOnEvent(tick=13, channel=0, data=[43, 80]),
   midi.NoteOnEvent(tick=0, channel=0, data=[55, 80]),
   midi.NoteOffEvent(tick=113, channel=0, data=[43, 0]),
   midi.NoteOffEvent(tick=0, channel=0, data=[55, 0]),
   midi.NoteOnEvent(tick=127, channel=0, data=[43, 80]),
   midi.NoteOnEvent(tick=0, channel=0, data=[55, 80]),
   midi.NoteOffEvent(tick=227, channel=0, data=[43, 0]),
   midi.NoteOffEvent(tick=0, channel=0, data=[55, 0]),
   midi.NoteOnEvent(tick=13, channel=0, data=[58, 81]),
   midi.NoteOnEvent(tick=0, channel=0, data=[62, 81]),
   midi.NoteOnEvent(tick=0, channel=0, data=[65, 81]),
   midi.NoteOffEvent(tick=455, channel=0, data=[58, 0]),
   midi.NoteOffEvent(tick=0, channel=0, data=[62, 0]),
   midi.NoteOffEvent(tick=0, channel=0, data=[65, 0]),
   midi.NoteOnEvent(tick=25, channel=0, data=[45, 82]),
   midi.NoteOnEvent(tick=0, channel=0, data=[57, 82]),
   midi.NoteOffEvent(tick=113, channel=0, data=[45, 0]),
   midi.NoteOffEvent(tick=0, channel=0, data=[57, 0]),
   midi.NoteOnEvent(tick=127, channel=0, data=[45, 83]),
   midi.NoteOnEvent(tick=0, channel=0, data=[57, 83]),
   midi.NoteOffEvent(tick=227, channel=0, data=[45, 0]),
   midi.NoteOffEvent(tick=0, channel=0, data=[57, 0]),
   midi.NoteOnEvent(tick=13, channel=0, data=[60, 84]),
   midi.NoteOnEvent(tick=0, channel=0, data=[65, 84]),
   midi.NoteOffEvent(tick=455, channel=0, data=[60, 0]),
   midi.NoteOffEvent(tick=0, channel=0, data=[65, 0]),
   midi.NoteOnEvent(tick=25, channel=0, data=[35, 85]),
   midi.NoteOnEvent(tick=0, channel=0, data=[47, 85]),
   midi.NoteOffEvent(tick=113, channel=0, data=[35, 0]),
   midi.NoteOffEvent(tick=0, channel=0, data=[47, 0]),
   midi.NoteOnEvent(tick=127, channel=0, data=[35, 86]),
   midi.NoteOnEvent(tick=0, channel=0, data=[47, 86]),
   midi.NoteOffEvent(tick=227, channel=0, data=[35, 0]),
   midi.NoteOffEvent(tick=0, channel=0, data=[47, 0]),
   midi.NoteOnEvent(tick=13, channel=0, data=[55, 86]),
   midi.NoteOnEvent(tick=0, channel=0, data=[59, 86]),
   midi.NoteOffEvent(tick=227, channel=0, data=[55, 0]),
   midi.NoteOffEvent(tick=0, channel=0, data=[59, 0]),
   midi.NoteOnEvent(tick=13, channel=0, data=[47, 87]),
   midi.NoteOffEvent(tick=227, channel=0, data=[47, 0]),
   midi.NoteOnEvent(tick=13, channel=0, data=[31, 88]),
   midi.NoteOnEvent(tick=0, channel=0, data=[43, 88]),
   midi.NoteOffEvent(tick=113, channel=0, data=[31, 0]),
   midi.NoteOffEvent(tick=0, channel=0, data=[43, 0]),
   midi.NoteOnEvent(tick=127, channel=0, data=[31, 88]),
   midi.NoteOnEvent(tick=0, channel=0, data=[43, 88]),
   midi.NoteOffEvent(tick=227, channel=0, data=[31, 0]),
   midi.NoteOffEvent(tick=0, channel=0, data=[43, 0]),
   midi.NoteOnEvent(tick=13, channel=0, data=[50, 89]),
   midi.NoteOnEvent(tick=0, channel=0, data=[55, 89]),
   midi.NoteOffEvent(tick=227, channel=0, data=[50, 0]),
   midi.NoteOffEvent(tick=0, channel=0, data=[55, 0]),
   midi.NoteOnEvent(tick=13, channel=0, data=[43, 90]),
   midi.NoteOffEvent(tick=227, channel=0, data=[43, 0]),
   midi.NoteOnEvent(tick=13, channel=0, data=[31, 90]),
   midi.NoteOnEvent(tick=0, channel=0, data=[43, 90]),
   midi.NoteOffEvent(tick=227, channel=0, data=[31, 0]),
   midi.NoteOffEvent(tick=0, channel=0, data=[43, 0]),
   midi.NoteOnEvent(tick=13, channel=0, data=[43, 91]),
   midi.NoteOffEvent(tick=227, channel=0, data=[43, 0]),
   midi.NoteOnEvent(tick=13, channel=0, data=[31, 92]),
   midi.NoteOnEvent(tick=0, channel=0, data=[43, 92]),
   midi.NoteOffEvent(tick=227, channel=0, data=[31, 0]),
   midi.NoteOffEvent(tick=0, channel=0, data=[43, 0]),
   midi.NoteOnEvent(tick=13, channel=0, data=[43, 92]),
   midi.NoteOffEvent(tick=227, channel=0, data=[43, 0]),
   midi.NoteOnEvent(tick=13, channel=0, data=[31, 93]),
   midi.NoteOnEvent(tick=0, channel=0, data=[43, 93]),
   midi.NoteOffEvent(tick=227, channel=0, data=[31, 0]),
   midi.NoteOffEvent(tick=0, channel=0, data=[43, 0]),
   midi.NoteOnEvent(tick=13, channel=0, data=[43, 94]),
   midi.NoteOffEvent(tick=227, channel=0, data=[43, 0]),
   midi.NoteOnEvent(tick=13, channel=0, data=[31, 94]),
   midi.NoteOnEvent(tick=0, channel=0, data=[43, 94]),
   midi.NoteOffEvent(tick=227, channel=0, data=[31, 0]),
   midi.NoteOffEvent(tick=0, channel=0, data=[43, 0]),
   midi.NoteOnEvent(tick=13, channel=0, data=[43, 95]),
   midi.NoteOffEvent(tick=227, channel=0, data=[43, 0]),
   midi.NoteOnEvent(tick=13, channel=0, data=[36, 96]),
   midi.NoteOnEvent(tick=0, channel=0, data=[48, 96]),
   midi.NoteOffEvent(tick=227, channel=0, data=[36, 0]),
   midi.NoteOffEvent(tick=0, channel=0, data=[48, 0]),
   midi.NoteOnEvent(tick=13, channel=0, data=[48, 96]),
   midi.NoteOffEvent(tick=227, channel=0, data=[48, 0]),
   midi.NoteOnEvent(tick=13, channel=0, data=[55, 96]),
   midi.NoteOnEvent(tick=0, channel=0, data=[60, 96]),
   midi.NoteOnEvent(tick=0, channel=0, data=[65, 96]),
   midi.NoteOffEvent(tick=227, channel=0, data=[55, 0]),
   midi.NoteOffEvent(tick=0, channel=0, data=[60, 0]),
   midi.NoteOffEvent(tick=0, channel=0, data=[65, 0]),
   midi.NoteOnEvent(tick=13, channel=0, data=[48, 96]),
   midi.NoteOffEvent(tick=227, channel=0, data=[48, 0]),
   midi.NoteOnEvent(tick=13, channel=0, data=[36, 96]),
   midi.NoteOnEvent(tick=0, channel=0, data=[48, 96]),
   midi.NoteOffEvent(tick=227, channel=0, data=[36, 0]),
   midi.NoteOffEvent(tick=0, channel=0, data=[48, 0]),
   midi.NoteOnEvent(tick=13, channel=0, data=[48, 96]),
   midi.NoteOffEvent(tick=113, channel=0, data=[48, 0]),
   midi.NoteOnEvent(tick=7, channel=0, data=[52, 96]),
   midi.NoteOffEvent(tick=113, channel=0, data=[52, 0]),
   midi.NoteOnEvent(tick=7, channel=0, data=[55, 96]),
   midi.NoteOnEvent(tick=0, channel=0, data=[60, 96]),
   midi.NoteOffEvent(tick=113, channel=0, data=[55, 0]),
   midi.NoteOffEvent(tick=0, channel=0, data=[60, 0]),
   midi.NoteOnEvent(tick=7, channel=0, data=[52, 96]),
   midi.NoteOffEvent(tick=113, channel=0, data=[52, 0]),
   midi.NoteOnEvent(tick=7, channel=0, data=[48, 96]),
   midi.NoteOffEvent(tick=113, channel=0, data=[48, 0]),
   midi.NoteOnEvent(tick=7, channel=0, data=[36, 96]),
   midi.NoteOffEvent(tick=113, channel=0, data=[36, 0]),
   midi.NoteOnEvent(tick=7, channel=0, data=[29, 96]),
   midi.NoteOnEvent(tick=0, channel=0, data=[41, 96]),
   midi.NoteOffEvent(tick=227, channel=0, data=[29, 0]),
   midi.NoteOffEvent(tick=0, channel=0, data=[41, 0]),
   midi.NoteOnEvent(tick=13, channel=0, data=[41, 96]),
   midi.NoteOffEvent(tick=113, channel=0, data=[41, 0]),
   midi.NoteOnEvent(tick=7, channel=0, data=[48, 96]),
   midi.NoteOffEvent(tick=113, channel=0, data=[48, 0]),
   midi.NoteOnEvent(tick=7, channel=0, data=[57, 96]),
   midi.NoteOffEvent(tick=227, channel=0, data=[57, 0]),
   midi.NoteOnEvent(tick=13, channel=0, data=[53, 96]),
   midi.NoteOffEvent(tick=113, channel=0, data=[53, 0]),
   midi.NoteOnEvent(tick=7, channel=0, data=[57, 96]),
   midi.NoteOffEvent(tick=113, channel=0, data=[57, 0]),
   midi.NoteOnEvent(tick=7, channel=0, data=[60, 96]),
   midi.NoteOnEvent(tick=0, channel=0, data=[65, 96]),
   midi.NoteOffEvent(tick=113, channel=0, data=[60, 0]),
   midi.NoteOffEvent(tick=0, channel=0, data=[65, 0]),
   midi.NoteOnEvent(tick=7, channel=0, data=[57, 96]),
   midi.NoteOffEvent(tick=113, channel=0, data=[57, 0]),
   midi.NoteOnEvent(tick=7, channel=0, data=[53, 96]),
   midi.NoteOffEvent(tick=227, channel=0, data=[53, 0]),
   midi.NoteOnEvent(tick=13, channel=0, data=[57, 96]),
   midi.NoteOffEvent(tick=113, channel=0, data=[57, 0]),
   midi.NoteOnEvent(tick=7, channel=0, data=[48, 96]),
   midi.NoteOffEvent(tick=113, channel=0, data=[48, 0]),
   midi.NoteOnEvent(tick=7, channel=0, data=[41, 96]),
   midi.NoteOffEvent(tick=227, channel=0, data=[41, 0]),
   midi.NoteOnEvent(tick=13, channel=0, data=[40, 96]),
   midi.NoteOnEvent(tick=0, channel=0, data=[52, 96]),
   midi.NoteOffEvent(tick=227, channel=0, data=[40, 0]),
   midi.NoteOffEvent(tick=0, channel=0, data=[52, 0]),
   midi.NoteOnEvent(tick=13, channel=0, data=[52, 96]),
   midi.NoteOffEvent(tick=113, channel=0, data=[52, 0]),
   midi.NoteOnEvent(tick=7, channel=0, data=[55, 96]),
   midi.NoteOffEvent(tick=113, channel=0, data=[55, 0]),
   midi.NoteOnEvent(tick=7, channel=0, data=[58, 96]),
   midi.NoteOnEvent(tick=0, channel=0, data=[62, 96]),
   midi.NoteOffEvent(tick=227, channel=0, data=[58, 0]),
   midi.NoteOffEvent(tick=0, channel=0, data=[62, 0]),
   midi.NoteOnEvent(tick=13, channel=0, data=[52, 96]),
   midi.NoteOffEvent(tick=227, channel=0, data=[52, 0]),
   midi.NoteOnEvent(tick=13, channel=0, data=[33, 96]),
   midi.NoteOnEvent(tick=0, channel=0, data=[45, 96]),
   midi.NoteOffEvent(tick=227, channel=0, data=[33, 0]),
   midi.NoteOffEvent(tick=0, channel=0, data=[45, 0]),
   midi.NoteOnEvent(tick=13, channel=0, data=[45, 96]),
   midi.NoteOffEvent(tick=113, channel=0, data=[45, 0]),
   midi.NoteOnEvent(tick=7, channel=0, data=[52, 96]),
   midi.NoteOffEvent(tick=113, channel=0, data=[52, 0]),
   midi.NoteOnEvent(tick=7, channel=0, data=[55, 96]),
   midi.NoteOnEvent(tick=0, channel=0, data=[61, 96]),
   midi.NoteOffEvent(tick=227, channel=0, data=[55, 0]),
   midi.NoteOffEvent(tick=0, channel=0, data=[61, 0]),
   midi.NoteOnEvent(tick=13, channel=0, data=[45, 96]),
   midi.NoteOffEvent(tick=227, channel=0, data=[45, 0]),
   midi.NoteOnEvent(tick=13, channel=0, data=[38, 96]),
   midi.NoteOnEvent(tick=0, channel=0, data=[50, 96]),
   midi.NoteOffEvent(tick=227, channel=0, data=[38, 0]),
   midi.NoteOffEvent(tick=0, channel=0, data=[50, 0]),
   midi.NoteOnEvent(tick=13, channel=0, data=[50, 96]),
   midi.NoteOffEvent(tick=113, channel=0, data=[50, 0]),
   midi.NoteOnEvent(tick=7, channel=0, data=[53, 96]),
   midi.NoteOffEvent(tick=113, channel=0, data=[53, 0]),
   midi.NoteOnEvent(tick=7, channel=0, data=[57, 96]),
   midi.NoteOnEvent(tick=0, channel=0, data=[62, 96]),
   midi.NoteOffEvent(tick=227, channel=0, data=[57, 0]),
   midi.NoteOffEvent(tick=0, channel=0, data=[62, 0]),
   midi.NoteOnEvent(tick=13, channel=0, data=[50, 96]),
   midi.NoteOffEvent(tick=227, channel=0, data=[50, 0]),
   midi.NoteOnEvent(tick=13, channel=0, data=[36, 96]),
   midi.NoteOnEvent(tick=0, channel=0, data=[48, 96]),
   midi.NoteOffEvent(tick=227, channel=0, data=[36, 0]),
   midi.NoteOffEvent(tick=0, channel=0, data=[48, 0]),
   midi.NoteOnEvent(tick=13, channel=0, data=[48, 96]),
   midi.NoteOffEvent(tick=113, channel=0, data=[48, 0]),
   midi.NoteOnEvent(tick=7, channel=0, data=[53, 96]),
   midi.NoteOffEvent(tick=113, channel=0, data=[53, 0]),
   midi.NoteOnEvent(tick=7, channel=0, data=[57, 96]),
   midi.NoteOnEvent(tick=0, channel=0, data=[60, 96]),
   midi.NoteOffEvent(tick=227, channel=0, data=[57, 0]),
   midi.NoteOffEvent(tick=0, channel=0, data=[60, 0]),
   midi.NoteOnEvent(tick=13, channel=0, data=[48, 96]),
   midi.NoteOffEvent(tick=227, channel=0, data=[48, 0]),
   midi.NoteOnEvent(tick=13, channel=0, data=[35, 96]),
   midi.NoteOnEvent(tick=0, channel=0, data=[47, 96]),
   midi.NoteOffEvent(tick=227, channel=0, data=[35, 0]),
   midi.NoteOffEvent(tick=0, channel=0, data=[47, 0]),
   midi.NoteOnEvent(tick=13, channel=0, data=[47, 96]),
   midi.NoteOffEvent(tick=113, channel=0, data=[47, 0]),
   midi.NoteOnEvent(tick=7, channel=0, data=[55, 96]),
   midi.NoteOffEvent(tick=113, channel=0, data=[55, 0]),
   midi.NoteOnEvent(tick=7, channel=0, data=[62, 96]),
   midi.NoteOffEvent(tick=227, channel=0, data=[62, 0]),
   midi.NoteOnEvent(tick=13, channel=0, data=[59, 96]),
   midi.NoteOffEvent(tick=113, channel=0, data=[59, 0]),
   midi.NoteOnEvent(tick=7, channel=0, data=[62, 96]),
   midi.NoteOffEvent(tick=113, channel=0, data=[62, 0]),
   midi.NoteOnEvent(tick=7, channel=0, data=[65, 96]),
   midi.NoteOnEvent(tick=0, channel=0, data=[69, 96]),
   midi.NoteOffEvent(tick=113, channel=0, data=[65, 0]),
   midi.NoteOffEvent(tick=0, channel=0, data=[69, 0]),
   midi.NoteOnEvent(tick=7, channel=0, data=[62, 96]),
   midi.NoteOffEvent(tick=113, channel=0, data=[62, 0]),
   midi.NoteOnEvent(tick=7, channel=0, data=[59, 96]),
   midi.NoteOffEvent(tick=227, channel=0, data=[59, 0]),
   midi.NoteOnEvent(tick=13, channel=0, data=[62, 96]),
   midi.NoteOffEvent(tick=113, channel=0, data=[62, 0]),
   midi.NoteOnEvent(tick=7, channel=0, data=[55, 96]),
   midi.NoteOffEvent(tick=113, channel=0, data=[55, 0]),
   midi.NoteOnEvent(tick=7, channel=0, data=[47, 96]),
   midi.NoteOffEvent(tick=227, channel=0, data=[47, 0]),
   midi.NoteOnEvent(tick=13, channel=0, data=[34, 96]),
   midi.NoteOnEvent(tick=0, channel=0, data=[46, 96]),
   midi.NoteOffEvent(tick=227, channel=0, data=[34, 0]),
   midi.NoteOffEvent(tick=0, channel=0, data=[46, 0]),
   midi.NoteOnEvent(tick=13, channel=0, data=[46, 96]),
   midi.NoteOffEvent(tick=113, channel=0, data=[46, 0]),
   midi.NoteOnEvent(tick=7, channel=0, data=[50, 96]),
   midi.NoteOffEvent(tick=113, channel=0, data=[50, 0]),
   midi.NoteOnEvent(tick=7, channel=0, data=[53, 96]),
   midi.NoteOnEvent(tick=0, channel=0, data=[58, 96]),
   midi.NoteOffEvent(tick=227, channel=0, data=[53, 0]),
   midi.NoteOffEvent(tick=0, channel=0, data=[58, 0]),
   midi.NoteOnEvent(tick=13, channel=0, data=[46, 96]),
   midi.NoteOffEvent(tick=227, channel=0, data=[46, 0]),
   midi.NoteOnEvent(tick=13, channel=0, data=[34, 96]),
   midi.NoteOnEvent(tick=0, channel=0, data=[46, 96]),
   midi.NoteOffEvent(tick=227, channel=0, data=[34, 0]),
   midi.NoteOffEvent(tick=0, channel=0, data=[46, 0]),
   midi.NoteOnEvent(tick=13, channel=0, data=[48, 96]),
   midi.NoteOffEvent(tick=113, channel=0, data=[48, 0]),
   midi.NoteOnEvent(tick=7, channel=0, data=[52, 96]),
   midi.NoteOffEvent(tick=113, channel=0, data=[52, 0]),
   midi.NoteOnEvent(tick=7, channel=0, data=[55, 96]),
   midi.NoteOnEvent(tick=0, channel=0, data=[60, 96]),
   midi.NoteOffEvent(tick=227, channel=0, data=[55, 0]),
   midi.NoteOffEvent(tick=0, channel=0, data=[60, 0]),
   midi.NoteOnEvent(tick=13, channel=0, data=[48, 96]),
   midi.NoteOffEvent(tick=227, channel=0, data=[48, 0]),
   midi.NoteOnEvent(tick=13, channel=0, data=[33, 96]),
   midi.NoteOnEvent(tick=0, channel=0, data=[45, 96]),
   midi.NoteOffEvent(tick=227, channel=0, data=[33, 0]),
   midi.NoteOffEvent(tick=0, channel=0, data=[45, 0]),
   midi.NoteOnEvent(tick=13, channel=0, data=[57, 96]),
   midi.NoteOnEvent(tick=0, channel=0, data=[60, 96]),
   midi.NoteOffEvent(tick=227, channel=0, data=[57, 0]),
   midi.NoteOffEvent(tick=0, channel=0, data=[60, 0]),
   midi.NoteOnEvent(tick=13, channel=0, data=[37, 96]),
   midi.NoteOnEvent(tick=0, channel=0, data=[49, 96]),
   midi.NoteOffEvent(tick=227, channel=0, data=[37, 0]),
   midi.NoteOffEvent(tick=0, channel=0, data=[49, 0]),
   midi.NoteOnEvent(tick=13, channel=0, data=[57, 96]),
   midi.NoteOnEvent(tick=0, channel=0, data=[61, 96]),
   midi.NoteOffEvent(tick=227, channel=0, data=[57, 0]),
   midi.NoteOffEvent(tick=0, channel=0, data=[61, 0]),
   midi.NoteOnEvent(tick=13, channel=0, data=[38, 96]),
   midi.NoteOnEvent(tick=0, channel=0, data=[50, 96]),
   midi.NoteOffEvent(tick=227, channel=0, data=[38, 0]),
   midi.NoteOffEvent(tick=0, channel=0, data=[50, 0]),
   midi.NoteOnEvent(tick=13, channel=0, data=[50, 96]),
   midi.NoteOffEvent(tick=113, channel=0, data=[50, 0]),
   midi.NoteOnEvent(tick=7, channel=0, data=[53, 96]),
   midi.NoteOffEvent(tick=113, channel=0, data=[53, 0]),
   midi.NoteOnEvent(tick=7, channel=0, data=[57, 96]),
   midi.NoteOnEvent(tick=0, channel=0, data=[60, 96]),
   midi.NoteOffEvent(tick=59, channel=0, data=[57, 0]),
   midi.NoteOffEvent(tick=0, channel=0, data=[60, 0]),
   midi.NoteOnEvent(tick=61, channel=0, data=[38, 96]),
   midi.NoteOnEvent(tick=0, channel=0, data=[50, 96]),
   midi.NoteOffEvent(tick=341, channel=0, data=[38, 0]),
   midi.NoteOffEvent(tick=0, channel=0, data=[50, 0]),
   midi.NoteOnEvent(tick=19, channel=0, data=[31, 96]),
   midi.NoteOnEvent(tick=0, channel=0, data=[43, 96]),
   midi.NoteOffEvent(tick=227, channel=0, data=[31, 0]),
   midi.NoteOffEvent(tick=0, channel=0, data=[43, 0]),
   midi.NoteOnEvent(tick=13, channel=0, data=[43, 96]),
   midi.NoteOffEvent(tick=113, channel=0, data=[43, 0]),
   midi.NoteOnEvent(tick=7, channel=0, data=[50, 96]),
   midi.NoteOffEvent(tick=113, channel=0, data=[50, 0]),
   midi.NoteOnEvent(tick=7, channel=0, data=[53, 96]),
   midi.NoteOnEvent(tick=0, channel=0, data=[58, 96]),
   midi.NoteOffEvent(tick=227, channel=0, data=[53, 0]),
   midi.NoteOffEvent(tick=0, channel=0, data=[58, 0]),
   midi.NoteOnEvent(tick=13, channel=0, data=[43, 96]),
   midi.NoteOffEvent(tick=227, channel=0, data=[43, 0]),
   midi.NoteOnEvent(tick=13, channel=0, data=[36, 96]),
   midi.NoteOnEvent(tick=0, channel=0, data=[48, 96]),
   midi.NoteOffEvent(tick=113, channel=0, data=[36, 0]),
   midi.NoteOffEvent(tick=0, channel=0, data=[48, 0]),
   midi.NoteOnEvent(tick=7, channel=0, data=[60, 96]),
   midi.NoteOffEvent(tick=113, channel=0, data=[60, 0]),
   midi.NoteOnEvent(tick=7, channel=0, data=[55, 96]),
   midi.NoteOffEvent(tick=113, channel=0, data=[55, 0]),
   midi.NoteOnEvent(tick=7, channel=0, data=[52, 96]),
   midi.NoteOffEvent(tick=113, channel=0, data=[52, 0]),
   midi.NoteOnEvent(tick=7, channel=0, data=[48, 96]),
   midi.NoteOffEvent(tick=113, channel=0, data=[48, 0]),
   midi.NoteOnEvent(tick=7, channel=0, data=[43, 96]),
   midi.NoteOffEvent(tick=113, channel=0, data=[43, 0]),
   midi.NoteOnEvent(tick=7, channel=0, data=[36, 96]),
   midi.NoteOffEvent(tick=227, channel=0, data=[36, 0]),
   midi.NoteOnEvent(tick=13, channel=0, data=[41, 96]),
   midi.NoteOnEvent(tick=0, channel=0, data=[53, 96]),
   midi.NoteOffEvent(tick=227, channel=0, data=[41, 0]),
   midi.NoteOffEvent(tick=0, channel=0, data=[53, 0]),
   midi.NoteOnEvent(tick=13, channel=0, data=[48, 96]),
   midi.NoteOffEvent(tick=227, channel=0, data=[48, 0]),
   midi.NoteOnEvent(tick=13, channel=0, data=[53, 96]),
   midi.NoteOnEvent(tick=0, channel=0, data=[58, 96]),
   midi.NoteOffEvent(tick=113, channel=0, data=[53, 0]),
   midi.NoteOffEvent(tick=0, channel=0, data=[58, 0]),
   midi.NoteOnEvent(tick=127, channel=0, data=[29, 96]),
   midi.NoteOnEvent(tick=0, channel=0, data=[41, 96]),
   midi.NoteOffEvent(tick=341, channel=0, data=[29, 0]),
   midi.NoteOffEvent(tick=0, channel=0, data=[41, 0]),
   midi.NoteOnEvent(tick=19, channel=0, data=[41, 96]),
   midi.NoteOffEvent(tick=113, channel=0, data=[41, 0]),
   midi.NoteOnEvent(tick=7, channel=0, data=[48, 96]),
   midi.NoteOffEvent(tick=113, channel=0, data=[48, 0]),
   midi.NoteOnEvent(tick=7, channel=0, data=[55, 96]),
   midi.NoteOffEvent(tick=113, channel=0, data=[55, 0]),
   midi.NoteOnEvent(tick=7, channel=0, data=[57, 96]),
   midi.NoteOffEvent(tick=113, channel=0, data=[57, 0]),
   midi.NoteOnEvent(tick=367, channel=0, data=[62, 96]),
   midi.NoteOffEvent(tick=59, channel=0, data=[62, 0]),
   midi.NoteOnEvent(tick=61, channel=0, data=[62, 96]),
   midi.NoteOffEvent(tick=59, channel=0, data=[62, 0]),
   midi.NoteOnEvent(tick=181, channel=0, data=[62, 96]),
   midi.NoteOffEvent(tick=59, channel=0, data=[62, 0]),
   midi.NoteOnEvent(tick=61, channel=0, data=[62, 96]),
   midi.NoteOffEvent(tick=59, channel=0, data=[62, 0]),
   midi.NoteOnEvent(tick=61, channel=0, data=[62, 96]),
   midi.NoteOffEvent(tick=59, channel=0, data=[62, 0]),
   midi.NoteOnEvent(tick=181, channel=0, data=[62, 96]),
   midi.NoteOffEvent(tick=59, channel=0, data=[62, 0]),
   midi.NoteOnEvent(tick=61, channel=0, data=[60, 96]),
   midi.NoteOffEvent(tick=59, channel=0, data=[60, 0]),
   midi.NoteOnEvent(tick=61, channel=0, data=[60, 96]),
   midi.NoteOffEvent(tick=59, channel=0, data=[60, 0]),
   midi.NoteOnEvent(tick=181, channel=0, data=[60, 96]),
   midi.NoteOffEvent(tick=59, channel=0, data=[60, 0]),
   midi.NoteOnEvent(tick=61, channel=0, data=[60, 96]),
   midi.NoteOffEvent(tick=59, channel=0, data=[60, 0]),
   midi.NoteOnEvent(tick=61, channel=0, data=[60, 96]),
   midi.NoteOffEvent(tick=59, channel=0, data=[60, 0]),
   midi.NoteOnEvent(tick=181, channel=0, data=[60, 96]),
   midi.NoteOffEvent(tick=59, channel=0, data=[60, 0]),
   midi.NoteOnEvent(tick=61, channel=0, data=[58, 96]),
   midi.NoteOffEvent(tick=59, channel=0, data=[58, 0]),
   midi.NoteOnEvent(tick=61, channel=0, data=[58, 96]),
   midi.NoteOffEvent(tick=59, channel=0, data=[58, 0]),
   midi.NoteOnEvent(tick=181, channel=0, data=[58, 96]),
   midi.NoteOffEvent(tick=59, channel=0, data=[58, 0]),
   midi.NoteOnEvent(tick=61, channel=0, data=[58, 96]),
   midi.NoteOffEvent(tick=59, channel=0, data=[58, 0]),
   midi.NoteOnEvent(tick=61, channel=0, data=[58, 96]),
   midi.NoteOffEvent(tick=59, channel=0, data=[58, 0]),
   midi.NoteOnEvent(tick=181, channel=0, data=[58, 96]),
   midi.NoteOffEvent(tick=59, channel=0, data=[58, 0]),
   midi.NoteOnEvent(tick=61, channel=0, data=[58, 96]),
   midi.NoteOffEvent(tick=59, channel=0, data=[58, 0]),
   midi.NoteOnEvent(tick=61, channel=0, data=[58, 96]),
   midi.NoteOffEvent(tick=59, channel=0, data=[58, 0]),
   midi.NoteOnEvent(tick=181, channel=0, data=[58, 96]),
   midi.NoteOffEvent(tick=59, channel=0, data=[58, 0]),
   midi.NoteOnEvent(tick=61, channel=0, data=[58, 96]),
   midi.NoteOffEvent(tick=59, channel=0, data=[58, 0]),
   midi.NoteOnEvent(tick=61, channel=0, data=[58, 96]),
   midi.NoteOffEvent(tick=59, channel=0, data=[58, 0]),
   midi.NoteOnEvent(tick=181, channel=0, data=[58, 96]),
   midi.NoteOffEvent(tick=59, channel=0, data=[58, 0]),
   midi.NoteOnEvent(tick=61, channel=0, data=[50, 96]),
   midi.NoteOffEvent(tick=59, channel=0, data=[50, 0]),
   midi.NoteOnEvent(tick=61, channel=0, data=[50, 96]),
   midi.NoteOffEvent(tick=59, channel=0, data=[50, 0]),
   midi.NoteOnEvent(tick=181, channel=0, data=[50, 96]),
   midi.NoteOffEvent(tick=59, channel=0, data=[50, 0]),
   midi.NoteOnEvent(tick=61, channel=0, data=[50, 96]),
   midi.NoteOffEvent(tick=59, channel=0, data=[50, 0]),
   midi.NoteOnEvent(tick=61, channel=0, data=[50, 96]),
   midi.NoteOffEvent(tick=59, channel=0, data=[50, 0]),
   midi.NoteOnEvent(tick=181, channel=0, data=[50, 96]),
   midi.NoteOffEvent(tick=59, channel=0, data=[50, 0]),
   midi.NoteOnEvent(tick=61, channel=0, data=[48, 96]),
   midi.NoteOffEvent(tick=59, channel=0, data=[48, 0]),
   midi.NoteOnEvent(tick=61, channel=0, data=[48, 96]),
   midi.NoteOffEvent(tick=59, channel=0, data=[48, 0]),
   midi.NoteOnEvent(tick=181, channel=0, data=[48, 96]),
   midi.NoteOffEvent(tick=59, channel=0, data=[48, 0]),
   midi.NoteOnEvent(tick=61, channel=0, data=[48, 96]),
   midi.NoteOffEvent(tick=59, channel=0, data=[48, 0]),
   midi.NoteOnEvent(tick=61, channel=0, data=[48, 96]),
   midi.NoteOffEvent(tick=59, channel=0, data=[48, 0]),
   midi.NoteOnEvent(tick=181, channel=0, data=[48, 96]),
   midi.NoteOffEvent(tick=59, channel=0, data=[48, 0]),
   midi.NoteOnEvent(tick=61, channel=0, data=[46, 96]),
   midi.NoteOffEvent(tick=59, channel=0, data=[46, 0]),
   midi.NoteOnEvent(tick=61, channel=0, data=[46, 96]),
   midi.NoteOffEvent(tick=59, channel=0, data=[46, 0]),
   midi.NoteOnEvent(tick=181, channel=0, data=[46, 96]),
   midi.NoteOffEvent(tick=59, channel=0, data=[46, 0]),
   midi.NoteOnEvent(tick=61, channel=0, data=[46, 96]),
   midi.NoteOffEvent(tick=59, channel=0, data=[46, 0]),
   midi.NoteOnEvent(tick=61, channel=0, data=[46, 96]),
   midi.NoteOffEvent(tick=59, channel=0, data=[46, 0]),
   midi.NoteOnEvent(tick=181, channel=0, data=[46, 96]),
   midi.NoteOffEvent(tick=59, channel=0, data=[46, 0]),
   midi.NoteOnEvent(tick=61, channel=0, data=[46, 96]),
   midi.NoteOffEvent(tick=59, channel=0, data=[46, 0]),
   midi.NoteOnEvent(tick=61, channel=0, data=[46, 96]),
   midi.NoteOffEvent(tick=59, channel=0, data=[46, 0]),
   midi.NoteOnEvent(tick=181, channel=0, data=[46, 96]),
   midi.NoteOffEvent(tick=59, channel=0, data=[46, 0]),
   midi.NoteOnEvent(tick=61, channel=0, data=[46, 96]),
   midi.NoteOffEvent(tick=59, channel=0, data=[46, 0]),
   midi.NoteOnEvent(tick=61, channel=0, data=[46, 96]),
   midi.NoteOffEvent(tick=59, channel=0, data=[46, 0]),
   midi.NoteOnEvent(tick=181, channel=0, data=[46, 96]),
   midi.NoteOffEvent(tick=59, channel=0, data=[46, 0]),
   midi.NoteOnEvent(tick=61, channel=0, data=[50, 80]),
   midi.NoteOffEvent(tick=59, channel=0, data=[50, 0]),
   midi.NoteOnEvent(tick=61, channel=0, data=[57, 80]),
   midi.NoteOffEvent(tick=59, channel=0, data=[57, 0]),
   midi.NoteOnEvent(tick=61, channel=0, data=[62, 80]),
   midi.NoteOffEvent(tick=59, channel=0, data=[62, 0]),
   midi.NoteOnEvent(tick=61, channel=0, data=[57, 80]),
   midi.NoteOffEvent(tick=59, channel=0, data=[57, 0]),
   midi.NoteOnEvent(tick=61, channel=0, data=[69, 80]),
   midi.NoteOffEvent(tick=59, channel=0, data=[69, 0]),
   midi.NoteOnEvent(tick=61, channel=0, data=[57, 80]),
   midi.NoteOffEvent(tick=59, channel=0, data=[57, 0]),
   midi.NoteOnEvent(tick=61, channel=0, data=[62, 80]),
   midi.NoteOffEvent(tick=59, channel=0, data=[62, 0]),
   midi.NoteOnEvent(tick=61, channel=0, data=[57, 80]),
   midi.NoteOffEvent(tick=59, channel=0, data=[57, 0]),
   midi.NoteOnEvent(tick=61, channel=0, data=[48, 80]),
   midi.NoteOffEvent(tick=59, channel=0, data=[48, 0]),
   midi.NoteOnEvent(tick=61, channel=0, data=[57, 80]),
   midi.NoteOffEvent(tick=59, channel=0, data=[57, 0]),
   midi.NoteOnEvent(tick=61, channel=0, data=[62, 80]),
   midi.NoteOffEvent(tick=59, channel=0, data=[62, 0]),
   midi.NoteOnEvent(tick=61, channel=0, data=[57, 80]),
   midi.NoteOffEvent(tick=59, channel=0, data=[57, 0]),
   midi.NoteOnEvent(tick=61, channel=0, data=[69, 80]),
   midi.NoteOffEvent(tick=59, channel=0, data=[69, 0]),
   midi.NoteOnEvent(tick=61, channel=0, data=[57, 80]),
   midi.NoteOffEvent(tick=59, channel=0, data=[57, 0]),
   midi.NoteOnEvent(tick=61, channel=0, data=[62, 80]),
   midi.NoteOffEvent(tick=59, channel=0, data=[62, 0]),
   midi.NoteOnEvent(tick=61, channel=0, data=[57, 80]),
   midi.NoteOffEvent(tick=59, channel=0, data=[57, 0]),
   midi.NoteOnEvent(tick=61, channel=0, data=[58, 80]),
   midi.NoteOnEvent(tick=0, channel=0, data=[65, 80]),
   midi.NoteOffEvent(tick=59, channel=0, data=[58, 0]),
   midi.NoteOffEvent(tick=0, channel=0, data=[65, 0]),
   midi.NoteOnEvent(tick=61, channel=0, data=[57, 80]),
   midi.NoteOffEvent(tick=59, channel=0, data=[57, 0]),
   midi.NoteOnEvent(tick=61, channel=0, data=[69, 80]),
   midi.NoteOffEvent(tick=59, channel=0, data=[69, 0]),
   midi.NoteOnEvent(tick=61, channel=0, data=[57, 80]),
   midi.NoteOffEvent(tick=59, channel=0, data=[57, 0]),
   midi.NoteOnEvent(tick=61, channel=0, data=[65, 80]),
   midi.NoteOffEvent(tick=59, channel=0, data=[65, 0]),
   midi.NoteOnEvent(tick=61, channel=0, data=[57, 80]),
   midi.NoteOffEvent(tick=59, channel=0, data=[57, 0]),
   midi.NoteOnEvent(tick=61, channel=0, data=[62, 80]),
   midi.NoteOffEvent(tick=59, channel=0, data=[62, 0]),
   midi.NoteOnEvent(tick=61, channel=0, data=[57, 80]),
   midi.NoteOffEvent(tick=59, channel=0, data=[57, 0]),
   midi.NoteOnEvent(tick=61, channel=0, data=[69, 80]),
   midi.NoteOffEvent(tick=59, channel=0, data=[69, 0]),
   midi.NoteOnEvent(tick=61, channel=0, data=[57, 80]),
   midi.NoteOffEvent(tick=59, channel=0, data=[57, 0]),
   midi.NoteOnEvent(tick=61, channel=0, data=[65, 80]),
   midi.NoteOffEvent(tick=59, channel=0, data=[65, 0]),
   midi.NoteOnEvent(tick=61, channel=0, data=[57, 80]),
   midi.NoteOffEvent(tick=59, channel=0, data=[57, 0]),
   midi.NoteOnEvent(tick=61, channel=0, data=[53, 80]),
   midi.NoteOffEvent(tick=59, channel=0, data=[53, 0]),
   midi.NoteOnEvent(tick=61, channel=0, data=[57, 80]),
   midi.NoteOffEvent(tick=59, channel=0, data=[57, 0]),
   midi.NoteOnEvent(tick=61, channel=0, data=[62, 80]),
   midi.NoteOffEvent(tick=59, channel=0, data=[62, 0]),
   midi.NoteOnEvent(tick=61, channel=0, data=[57, 80]),
   midi.NoteOffEvent(tick=59, channel=0, data=[57, 0]),
   midi.NoteOnEvent(tick=61, channel=0, data=[43, 80]),
   midi.NoteOffEvent(tick=59, channel=0, data=[43, 0]),
   midi.NoteOnEvent(tick=61, channel=0, data=[55, 80]),
   midi.NoteOffEvent(tick=59, channel=0, data=[55, 0]),
   midi.NoteOnEvent(tick=61, channel=0, data=[62, 80]),
   midi.NoteOffEvent(tick=59, channel=0, data=[62, 0]),
   midi.NoteOnEvent(tick=61, channel=0, data=[58, 80]),
   midi.NoteOffEvent(tick=59, channel=0, data=[58, 0]),
   midi.NoteOnEvent(tick=61, channel=0, data=[70, 80]),
   midi.NoteOffEvent(tick=59, channel=0, data=[70, 0]),
   midi.NoteOnEvent(tick=61, channel=0, data=[58, 80]),
   midi.NoteOffEvent(tick=59, channel=0, data=[58, 0]),
   midi.NoteOnEvent(tick=61, channel=0, data=[62, 80]),
   midi.NoteOffEvent(tick=59, channel=0, data=[62, 0]),
   midi.NoteOnEvent(tick=61, channel=0, data=[58, 80]),
   midi.NoteOffEvent(tick=59, channel=0, data=[58, 0]),
   midi.NoteOnEvent(tick=61, channel=0, data=[45, 80]),
   midi.NoteOffEvent(tick=59, channel=0, data=[45, 0]),
   midi.NoteOnEvent(tick=61, channel=0, data=[57, 80]),
   midi.NoteOffEvent(tick=59, channel=0, data=[57, 0]),
   midi.NoteOnEvent(tick=61, channel=0, data=[60, 80]),
   midi.NoteOffEvent(tick=59, channel=0, data=[60, 0]),
   midi.NoteOnEvent(tick=61, channel=0, data=[57, 80]),
   midi.NoteOffEvent(tick=59, channel=0, data=[57, 0]),
   midi.NoteOnEvent(tick=61, channel=0, data=[69, 80]),
   midi.NoteOffEvent(tick=59, channel=0, data=[69, 0]),
   midi.NoteOnEvent(tick=61, channel=0, data=[57, 80]),
   midi.NoteOffEvent(tick=59, channel=0, data=[57, 0]),
   midi.NoteOnEvent(tick=61, channel=0, data=[60, 80]),
   midi.NoteOffEvent(tick=59, channel=0, data=[60, 0]),
   midi.NoteOnEvent(tick=61, channel=0, data=[57, 80]),
   midi.NoteOffEvent(tick=59, channel=0, data=[57, 0]),
   midi.NoteOnEvent(tick=61, channel=0, data=[47, 80]),
   midi.NoteOffEvent(tick=59, channel=0, data=[47, 0]),
   midi.NoteOnEvent(tick=61, channel=0, data=[59, 80]),
   midi.NoteOffEvent(tick=59, channel=0, data=[59, 0]),
   midi.NoteOnEvent(tick=61, channel=0, data=[62, 80]),
   midi.NoteOffEvent(tick=59, channel=0, data=[62, 0]),
   midi.NoteOnEvent(tick=61, channel=0, data=[59, 80]),
   midi.NoteOffEvent(tick=59, channel=0, data=[59, 0]),
   midi.NoteOnEvent(tick=61, channel=0, data=[65, 80]),
   midi.NoteOffEvent(tick=59, channel=0, data=[65, 0]),
   midi.NoteOnEvent(tick=61, channel=0, data=[59, 80]),
   midi.NoteOffEvent(tick=59, channel=0, data=[59, 0]),
   midi.NoteOnEvent(tick=61, channel=0, data=[71, 80]),
   midi.NoteOffEvent(tick=59, channel=0, data=[71, 0]),
   midi.NoteOnEvent(tick=61, channel=0, data=[59, 80]),
   midi.NoteOffEvent(tick=59, channel=0, data=[59, 0]),
   midi.NoteOnEvent(tick=61, channel=0, data=[69, 80]),
   midi.NoteOffEvent(tick=113, channel=0, data=[69, 0]),
   midi.NoteOnEvent(tick=7, channel=0, data=[64, 80]),
   midi.NoteOffEvent(tick=113, channel=0, data=[64, 0]),
   midi.NoteOnEvent(tick=7, channel=0, data=[61, 80]),
   midi.NoteOffEvent(tick=113, channel=0, data=[61, 0]),
   midi.NoteOnEvent(tick=7, channel=0, data=[57, 80]),
   midi.NoteOffEvent(tick=113, channel=0, data=[57, 0]),
   midi.NoteOnEvent(tick=7, channel=0, data=[52, 80]),
   midi.NoteOffEvent(tick=113, channel=0, data=[52, 0]),
   midi.NoteOnEvent(tick=7, channel=0, data=[49, 80]),
   midi.NoteOffEvent(tick=113, channel=0, data=[49, 0]),
   midi.NoteOnEvent(tick=7, channel=0, data=[45, 80]),
   midi.NoteOffEvent(tick=227, channel=0, data=[45, 0]),
   midi.NoteOnEvent(tick=13, channel=0, data=[38, 80]),
   midi.NoteOnEvent(tick=0, channel=0, data=[50, 80]),
   midi.NoteOffEvent(tick=341, channel=0, data=[38, 0]),
   midi.NoteOffEvent(tick=0, channel=0, data=[50, 0]),
   midi.NoteOnEvent(tick=19, channel=0, data=[57, 80]),
   midi.NoteOffEvent(tick=113, channel=0, data=[57, 0]),
   midi.NoteOnEvent(tick=7, channel=0, data=[62, 80]),
   midi.NoteOffEvent(tick=113, channel=0, data=[62, 0]),
   midi.NoteOnEvent(tick=7, channel=0, data=[65, 80]),
   midi.NoteOffEvent(tick=113, channel=0, data=[65, 0]),
   midi.NoteOnEvent(tick=7, channel=0, data=[69, 80]),
   midi.NoteOffEvent(tick=227, channel=0, data=[69, 0]),
   midi.NoteOnEvent(tick=13, channel=0, data=[48, 80]),
   midi.NoteOffEvent(tick=341, channel=0, data=[48, 0]),
   midi.NoteOnEvent(tick=19, channel=0, data=[57, 80]),
   midi.NoteOffEvent(tick=113, channel=0, data=[57, 0]),
   midi.NoteOnEvent(tick=7, channel=0, data=[60, 80]),
   midi.NoteOffEvent(tick=113, channel=0, data=[60, 0]),
   midi.NoteOnEvent(tick=7, channel=0, data=[64, 80]),
   midi.NoteOffEvent(tick=113, channel=0, data=[64, 0]),
   midi.NoteOnEvent(tick=7, channel=0, data=[69, 80]),
   midi.NoteOffEvent(tick=227, channel=0, data=[69, 0]),
   midi.NoteOnEvent(tick=13, channel=0, data=[46, 80]),
   midi.NoteOffEvent(tick=341, channel=0, data=[46, 0]),
   midi.NoteOnEvent(tick=19, channel=0, data=[53, 80]),
   midi.NoteOffEvent(tick=113, channel=0, data=[53, 0]),
   midi.NoteOnEvent(tick=7, channel=0, data=[58, 80]),
   midi.NoteOffEvent(tick=113, channel=0, data=[58, 0]),
   midi.NoteOnEvent(tick=7, channel=0, data=[62, 80]),
   midi.NoteOffEvent(tick=113, channel=0, data=[62, 0]),
   midi.NoteOnEvent(tick=7, channel=0, data=[65, 80]),
   midi.NoteOffEvent(tick=227, channel=0, data=[65, 0]),
   midi.NoteOnEvent(tick=13, channel=0, data=[45, 80]),
   midi.NoteOffEvent(tick=341, channel=0, data=[45, 0]),
   midi.NoteOnEvent(tick=19, channel=0, data=[53, 80]),
   midi.NoteOffEvent(tick=113, channel=0, data=[53, 0]),
   midi.NoteOnEvent(tick=7, channel=0, data=[57, 80]),
   midi.NoteOffEvent(tick=113, channel=0, data=[57, 0]),
   midi.NoteOnEvent(tick=7, channel=0, data=[60, 80]),
   midi.NoteOffEvent(tick=113, channel=0, data=[60, 0]),
   midi.NoteOnEvent(tick=7, channel=0, data=[65, 80]),
   midi.NoteOffEvent(tick=227, channel=0, data=[65, 0]),
   midi.NoteOnEvent(tick=13, channel=0, data=[43, 80]),
   midi.NoteOffEvent(tick=113, channel=0, data=[43, 0]),
   midi.NoteOnEvent(tick=7, channel=0, data=[50, 80]),
   midi.NoteOffEvent(tick=113, channel=0, data=[50, 0]),
   midi.NoteOnEvent(tick=7, channel=0, data=[55, 80]),
   midi.NoteOffEvent(tick=113, channel=0, data=[55, 0]),
   midi.NoteOnEvent(tick=7, channel=0, data=[50, 80]),
   midi.NoteOffEvent(tick=113, channel=0, data=[50, 0]),
   midi.NoteOnEvent(tick=7, channel=0, data=[58, 80]),
   midi.NoteOffEvent(tick=113, channel=0, data=[58, 0]),
   midi.NoteOnEvent(tick=7, channel=0, data=[50, 80]),
   midi.NoteOffEvent(tick=113, channel=0, data=[50, 0]),
   midi.NoteOnEvent(tick=7, channel=0, data=[55, 80]),
   midi.NoteOffEvent(tick=113, channel=0, data=[55, 0]),
   midi.NoteOnEvent(tick=7, channel=0, data=[50, 80]),
   midi.NoteOffEvent(tick=113, channel=0, data=[50, 0]),
   midi.NoteOnEvent(tick=7, channel=0, data=[45, 80]),
   midi.NoteOffEvent(tick=113, channel=0, data=[45, 0]),
   midi.NoteOnEvent(tick=7, channel=0, data=[52, 80]),
   midi.NoteOffEvent(tick=113, channel=0, data=[52, 0]),
   midi.NoteOnEvent(tick=7, channel=0, data=[57, 80]),
   midi.NoteOffEvent(tick=113, channel=0, data=[57, 0]),
   midi.NoteOnEvent(tick=7, channel=0, data=[52, 80]),
   midi.NoteOffEvent(tick=113, channel=0, data=[52, 0]),
   midi.NoteOnEvent(tick=7, channel=0, data=[60, 80]),
   midi.NoteOffEvent(tick=113, channel=0, data=[60, 0]),
   midi.NoteOnEvent(tick=7, channel=0, data=[52, 80]),
   midi.NoteOffEvent(tick=113, channel=0, data=[52, 0]),
   midi.NoteOnEvent(tick=7, channel=0, data=[57, 80]),
   midi.NoteOffEvent(tick=113, channel=0, data=[57, 0]),
   midi.NoteOnEvent(tick=7, channel=0, data=[52, 80]),
   midi.NoteOffEvent(tick=113, channel=0, data=[52, 0]),
   midi.NoteOnEvent(tick=7, channel=0, data=[46, 80]),
   midi.NoteOffEvent(tick=113, channel=0, data=[46, 0]),
   midi.NoteOnEvent(tick=7, channel=0, data=[53, 80]),
   midi.NoteOffEvent(tick=113, channel=0, data=[53, 0]),
   midi.NoteOnEvent(tick=7, channel=0, data=[58, 80]),
   midi.NoteOffEvent(tick=113, channel=0, data=[58, 0]),
   midi.NoteOnEvent(tick=7, channel=0, data=[53, 80]),
   midi.NoteOffEvent(tick=113, channel=0, data=[53, 0]),
   midi.NoteOnEvent(tick=7, channel=0, data=[62, 80]),
   midi.NoteOffEvent(tick=113, channel=0, data=[62, 0]),
   midi.NoteOnEvent(tick=7, channel=0, data=[53, 80]),
   midi.NoteOffEvent(tick=113, channel=0, data=[53, 0]),
   midi.NoteOnEvent(tick=7, channel=0, data=[58, 80]),
   midi.NoteOffEvent(tick=113, channel=0, data=[58, 0]),
   midi.NoteOnEvent(tick=7, channel=0, data=[53, 80]),
   midi.NoteOffEvent(tick=113, channel=0, data=[53, 0]),
   midi.NoteOnEvent(tick=7, channel=0, data=[52, 80]),
   midi.NoteOnEvent(tick=0, channel=0, data=[57, 80]),
   midi.NoteOnEvent(tick=0, channel=0, data=[64, 80]),
   midi.NoteOffEvent(tick=227, channel=0, data=[52, 0]),
   midi.NoteOffEvent(tick=0, channel=0, data=[57, 0]),
   midi.NoteOffEvent(tick=0, channel=0, data=[64, 0]),
   midi.NoteOnEvent(tick=13, channel=0, data=[50, 80]),
   midi.NoteOnEvent(tick=0, channel=0, data=[62, 80]),
   midi.NoteOffEvent(tick=227, channel=0, data=[50, 0]),
   midi.NoteOffEvent(tick=0, channel=0, data=[62, 0]),
   midi.NoteOnEvent(tick=13, channel=0, data=[49, 80]),
   midi.NoteOnEvent(tick=0, channel=0, data=[61, 80]),
   midi.NoteOffEvent(tick=227, channel=0, data=[49, 0]),
   midi.NoteOffEvent(tick=0, channel=0, data=[61, 0]),
   midi.NoteOnEvent(tick=13, channel=0, data=[45, 80]),
   midi.NoteOnEvent(tick=0, channel=0, data=[57, 80]),
   midi.NoteOffEvent(tick=227, channel=0, data=[45, 0]),
   midi.NoteOffEvent(tick=0, channel=0, data=[57, 0]),
   midi.NoteOnEvent(tick=13, channel=0, data=[46, 64]),
   midi.NoteOffEvent(tick=227, channel=0, data=[46, 0]),
   midi.NoteOnEvent(tick=13, channel=0, data=[53, 64]),
   midi.NoteOffEvent(tick=227, channel=0, data=[53, 0]),
   midi.NoteOnEvent(tick=13, channel=0, data=[58, 64]),
   midi.NoteOffEvent(tick=455, channel=0, data=[58, 0]),
   midi.NoteOnEvent(tick=25, channel=0, data=[62, 64]),
   midi.NoteOffEvent(tick=227, channel=0, data=[62, 0]),
   midi.NoteOnEvent(tick=13, channel=0, data=[53, 64]),
   midi.NoteOffEvent(tick=227, channel=0, data=[53, 0]),
   midi.NoteOnEvent(tick=13, channel=0, data=[58, 64]),
   midi.NoteOffEvent(tick=227, channel=0, data=[58, 0]),
   midi.NoteOnEvent(tick=13, channel=0, data=[53, 64]),
   midi.NoteOffEvent(tick=227, channel=0, data=[53, 0]),
   midi.NoteOnEvent(tick=13, channel=0, data=[45, 64]),
   midi.NoteOffEvent(tick=227, channel=0, data=[45, 0]),
   midi.NoteOnEvent(tick=13, channel=0, data=[53, 64]),
   midi.NoteOffEvent(tick=227, channel=0, data=[53, 0]),
   midi.NoteOnEvent(tick=13, channel=0, data=[57, 64]),
   midi.NoteOffEvent(tick=455, channel=0, data=[57, 0]),
   midi.NoteOnEvent(tick=25, channel=0, data=[67, 64]),
   midi.NoteOffEvent(tick=227, channel=0, data=[67, 0]),
   midi.NoteOnEvent(tick=13, channel=0, data=[60, 64]),
   midi.NoteOffEvent(tick=227, channel=0, data=[60, 0]),
   midi.NoteOnEvent(tick=13, channel=0, data=[65, 64]),
   midi.NoteOffEvent(tick=227, channel=0, data=[65, 0]),
   midi.NoteOnEvent(tick=13, channel=0, data=[57, 64]),
   midi.NoteOffEvent(tick=227, channel=0, data=[57, 0]),
   midi.NoteOnEvent(tick=13, channel=0, data=[43, 64]),
   midi.NoteOffEvent(tick=227, channel=0, data=[43, 0]),
   midi.NoteOnEvent(tick=13, channel=0, data=[50, 64]),
   midi.NoteOffEvent(tick=227, channel=0, data=[50, 0]),
   midi.NoteOnEvent(tick=13, channel=0, data=[58, 64]),
   midi.NoteOffEvent(tick=455, channel=0, data=[58, 0]),
   midi.NoteOnEvent(tick=25, channel=0, data=[45, 64]),
   midi.NoteOffEvent(tick=455, channel=0, data=[45, 0]),
   midi.NoteOnEvent(tick=25, channel=0, data=[33, 64]),
   midi.NoteOffEvent(tick=455, channel=0, data=[33, 0]),
   midi.NoteOnEvent(tick=25, channel=0, data=[38, 64]),
   midi.NoteOffEvent(tick=227, channel=0, data=[38, 0]),
   midi.NoteOnEvent(tick=13, channel=0, data=[45, 64]),
   midi.NoteOffEvent(tick=227, channel=0, data=[45, 0]),
   midi.NoteOnEvent(tick=13, channel=0, data=[53, 64]),
   midi.NoteOffEvent(tick=227, channel=0, data=[53, 0]),
   midi.NoteOnEvent(tick=13, channel=0, data=[45, 64]),
   midi.NoteOffEvent(tick=227, channel=0, data=[45, 0]),
   midi.NoteOnEvent(tick=13, channel=0, data=[41, 64]),
   midi.NoteOffEvent(tick=227, channel=0, data=[41, 0]),
   midi.NoteOnEvent(tick=13, channel=0, data=[48, 64]),
   midi.NoteOffEvent(tick=227, channel=0, data=[48, 0]),
   midi.NoteOnEvent(tick=13, channel=0, data=[57, 64]),
   midi.NoteOffEvent(tick=227, channel=0, data=[57, 0]),
   midi.NoteOnEvent(tick=13, channel=0, data=[41, 64]),
   midi.NoteOffEvent(tick=227, channel=0, data=[41, 0]),
   midi.NoteOnEvent(tick=13, channel=0, data=[46, 64]),
   midi.NoteOffEvent(tick=227, channel=0, data=[46, 0]),
   midi.NoteOnEvent(tick=13, channel=0, data=[53, 64]),
   midi.NoteOffEvent(tick=227, channel=0, data=[53, 0]),
   midi.NoteOnEvent(tick=13, channel=0, data=[58, 64]),
   midi.NoteOffEvent(tick=455, channel=0, data=[58, 0]),
   midi.NoteOnEvent(tick=25, channel=0, data=[62, 64]),
   midi.NoteOffEvent(tick=227, channel=0, data=[62, 0]),
   midi.NoteOnEvent(tick=13, channel=0, data=[53, 64]),
   midi.NoteOffEvent(tick=227, channel=0, data=[53, 0]),
   midi.NoteOnEvent(tick=13, channel=0, data=[58, 64]),
   midi.NoteOffEvent(tick=227, channel=0, data=[58, 0]),
   midi.NoteOnEvent(tick=13, channel=0, data=[53, 64]),
   midi.NoteOffEvent(tick=227, channel=0, data=[53, 0]),
   midi.NoteOnEvent(tick=13, channel=0, data=[45, 64]),
   midi.NoteOffEvent(tick=227, channel=0, data=[45, 0]),
   midi.NoteOnEvent(tick=13, channel=0, data=[53, 66]),
   midi.NoteOffEvent(tick=227, channel=0, data=[53, 0]),
   midi.NoteOnEvent(tick=13, channel=0, data=[57, 68]),
   midi.NoteOffEvent(tick=455, channel=0, data=[57, 0]),
   midi.NoteOnEvent(tick=25, channel=0, data=[50, 72]),
   midi.NoteOffEvent(tick=113, channel=0, data=[50, 0]),
   midi.NoteOnEvent(tick=7, channel=0, data=[65, 73]),
   midi.NoteOffEvent(tick=113, channel=0, data=[65, 0]),
   midi.NoteOnEvent(tick=7, channel=0, data=[64, 74]),
   midi.NoteOffEvent(tick=113, channel=0, data=[64, 0]),
   midi.NoteOnEvent(tick=7, channel=0, data=[62, 75]),
   midi.NoteOffEvent(tick=113, channel=0, data=[62, 0]),
   midi.NoteOnEvent(tick=7, channel=0, data=[57, 76]),
   midi.NoteOffEvent(tick=113, channel=0, data=[57, 0]),
   midi.NoteOnEvent(tick=7, channel=0, data=[53, 77]),
   midi.NoteOffEvent(tick=113, channel=0, data=[53, 0]),
   midi.NoteOnEvent(tick=7, channel=0, data=[50, 78]),
   midi.NoteOffEvent(tick=227, channel=0, data=[50, 0]),
   midi.NoteOnEvent(tick=13, channel=0, data=[43, 80]),
   midi.NoteOnEvent(tick=0, channel=0, data=[55, 80]),
   midi.NoteOffEvent(tick=113, channel=0, data=[43, 0]),
   midi.NoteOffEvent(tick=0, channel=0, data=[55, 0]),
   midi.NoteOnEvent(tick=127, channel=0, data=[43, 80]),
   midi.NoteOnEvent(tick=0, channel=0, data=[55, 80]),
   midi.NoteOffEvent(tick=227, channel=0, data=[43, 0]),
   midi.NoteOffEvent(tick=0, channel=0, data=[55, 0]),
   midi.NoteOnEvent(tick=13, channel=0, data=[58, 81]),
   midi.NoteOnEvent(tick=0, channel=0, data=[62, 81]),
   midi.NoteOnEvent(tick=0, channel=0, data=[65, 81]),
   midi.NoteOffEvent(tick=455, channel=0, data=[58, 0]),
   midi.NoteOffEvent(tick=0, channel=0, data=[62, 0]),
   midi.NoteOffEvent(tick=0, channel=0, data=[65, 0]),
   midi.NoteOnEvent(tick=25, channel=0, data=[45, 82]),
   midi.NoteOnEvent(tick=0, channel=0, data=[57, 82]),
   midi.NoteOffEvent(tick=113, channel=0, data=[45, 0]),
   midi.NoteOffEvent(tick=0, channel=0, data=[57, 0]),
   midi.NoteOnEvent(tick=127, channel=0, data=[45, 83]),
   midi.NoteOnEvent(tick=0, channel=0, data=[57, 83]),
   midi.NoteOffEvent(tick=227, channel=0, data=[45, 0]),
   midi.NoteOffEvent(tick=0, channel=0, data=[57, 0]),
   midi.NoteOnEvent(tick=13, channel=0, data=[60, 84]),
   midi.NoteOnEvent(tick=0, channel=0, data=[65, 84]),
   midi.NoteOffEvent(tick=455, channel=0, data=[60, 0]),
   midi.NoteOffEvent(tick=0, channel=0, data=[65, 0]),
   midi.NoteOnEvent(tick=25, channel=0, data=[35, 85]),
   midi.NoteOnEvent(tick=0, channel=0, data=[47, 85]),
   midi.NoteOffEvent(tick=113, channel=0, data=[35, 0]),
   midi.NoteOffEvent(tick=0, channel=0, data=[47, 0]),
   midi.NoteOnEvent(tick=127, channel=0, data=[35, 86]),
   midi.NoteOnEvent(tick=0, channel=0, data=[47, 86]),
   midi.NoteOffEvent(tick=227, channel=0, data=[35, 0]),
   midi.NoteOffEvent(tick=0, channel=0, data=[47, 0]),
   midi.NoteOnEvent(tick=13, channel=0, data=[55, 86]),
   midi.NoteOnEvent(tick=0, channel=0, data=[59, 86]),
   midi.NoteOffEvent(tick=227, channel=0, data=[55, 0]),
   midi.NoteOffEvent(tick=0, channel=0, data=[59, 0]),
   midi.NoteOnEvent(tick=13, channel=0, data=[47, 87]),
   midi.NoteOffEvent(tick=227, channel=0, data=[47, 0]),
   midi.NoteOnEvent(tick=13, channel=0, data=[31, 88]),
   midi.NoteOnEvent(tick=0, channel=0, data=[43, 88]),
   midi.NoteOffEvent(tick=113, channel=0, data=[31, 0]),
   midi.NoteOffEvent(tick=0, channel=0, data=[43, 0]),
   midi.NoteOnEvent(tick=127, channel=0, data=[31, 88]),
   midi.NoteOnEvent(tick=0, channel=0, data=[43, 88]),
   midi.NoteOffEvent(tick=227, channel=0, data=[31, 0]),
   midi.NoteOffEvent(tick=0, channel=0, data=[43, 0]),
   midi.NoteOnEvent(tick=13, channel=0, data=[50, 89]),
   midi.NoteOnEvent(tick=0, channel=0, data=[55, 89]),
   midi.NoteOffEvent(tick=227, channel=0, data=[50, 0]),
   midi.NoteOffEvent(tick=0, channel=0, data=[55, 0]),
   midi.NoteOnEvent(tick=13, channel=0, data=[43, 90]),
   midi.NoteOffEvent(tick=227, channel=0, data=[43, 0]),
   midi.NoteOnEvent(tick=13, channel=0, data=[31, 90]),
   midi.NoteOnEvent(tick=0, channel=0, data=[43, 90]),
   midi.NoteOffEvent(tick=227, channel=0, data=[31, 0]),
   midi.NoteOffEvent(tick=0, channel=0, data=[43, 0]),
   midi.NoteOnEvent(tick=13, channel=0, data=[43, 91]),
   midi.NoteOffEvent(tick=227, channel=0, data=[43, 0]),
   midi.NoteOnEvent(tick=13, channel=0, data=[31, 92]),
   midi.NoteOnEvent(tick=0, channel=0, data=[43, 92]),
   midi.NoteOffEvent(tick=227, channel=0, data=[31, 0]),
   midi.NoteOffEvent(tick=0, channel=0, data=[43, 0]),
   midi.NoteOnEvent(tick=13, channel=0, data=[43, 92]),
   midi.NoteOffEvent(tick=227, channel=0, data=[43, 0]),
   midi.NoteOnEvent(tick=13, channel=0, data=[31, 93]),
   midi.NoteOnEvent(tick=0, channel=0, data=[43, 93]),
   midi.NoteOffEvent(tick=227, channel=0, data=[31, 0]),
   midi.NoteOffEvent(tick=0, channel=0, data=[43, 0]),
   midi.NoteOnEvent(tick=13, channel=0, data=[43, 94]),
   midi.NoteOffEvent(tick=227, channel=0, data=[43, 0]),
   midi.NoteOnEvent(tick=13, channel=0, data=[31, 94]),
   midi.NoteOnEvent(tick=0, channel=0, data=[43, 94]),
   midi.NoteOffEvent(tick=227, channel=0, data=[31, 0]),
   midi.NoteOffEvent(tick=0, channel=0, data=[43, 0]),
   midi.NoteOnEvent(tick=13, channel=0, data=[43, 95]),
   midi.NoteOffEvent(tick=227, channel=0, data=[43, 0]),
   midi.NoteOnEvent(tick=13, channel=0, data=[36, 96]),
   midi.NoteOnEvent(tick=0, channel=0, data=[48, 96]),
   midi.NoteOffEvent(tick=227, channel=0, data=[36, 0]),
   midi.NoteOffEvent(tick=0, channel=0, data=[48, 0]),
   midi.NoteOnEvent(tick=13, channel=0, data=[48, 96]),
   midi.NoteOffEvent(tick=227, channel=0, data=[48, 0]),
   midi.NoteOnEvent(tick=13, channel=0, data=[55, 96]),
   midi.NoteOnEvent(tick=0, channel=0, data=[60, 96]),
   midi.NoteOnEvent(tick=0, channel=0, data=[65, 96]),
   midi.NoteOffEvent(tick=227, channel=0, data=[55, 0]),
   midi.NoteOffEvent(tick=0, channel=0, data=[60, 0]),
   midi.NoteOffEvent(tick=0, channel=0, data=[65, 0]),
   midi.NoteOnEvent(tick=13, channel=0, data=[48, 96]),
   midi.NoteOffEvent(tick=227, channel=0, data=[48, 0]),
   midi.NoteOnEvent(tick=13, channel=0, data=[36, 96]),
   midi.NoteOnEvent(tick=0, channel=0, data=[48, 96]),
   midi.NoteOffEvent(tick=227, channel=0, data=[36, 0]),
   midi.NoteOffEvent(tick=0, channel=0, data=[48, 0]),
   midi.NoteOnEvent(tick=13, channel=0, data=[48, 96]),
   midi.NoteOffEvent(tick=113, channel=0, data=[48, 0]),
   midi.NoteOnEvent(tick=7, channel=0, data=[52, 96]),
   midi.NoteOffEvent(tick=113, channel=0, data=[52, 0]),
   midi.NoteOnEvent(tick=7, channel=0, data=[55, 96]),
   midi.NoteOnEvent(tick=0, channel=0, data=[60, 96]),
   midi.NoteOffEvent(tick=113, channel=0, data=[55, 0]),
   midi.NoteOffEvent(tick=0, channel=0, data=[60, 0]),
   midi.NoteOnEvent(tick=7, channel=0, data=[52, 96]),
   midi.NoteOffEvent(tick=113, channel=0, data=[52, 0]),
   midi.NoteOnEvent(tick=7, channel=0, data=[48, 96]),
   midi.NoteOffEvent(tick=113, channel=0, data=[48, 0]),
   midi.NoteOnEvent(tick=7, channel=0, data=[36, 96]),
   midi.NoteOffEvent(tick=113, channel=0, data=[36, 0]),
   midi.NoteOnEvent(tick=7, channel=0, data=[29, 96]),
   midi.NoteOnEvent(tick=0, channel=0, data=[41, 96]),
   midi.NoteOffEvent(tick=227, channel=0, data=[29, 0]),
   midi.NoteOffEvent(tick=0, channel=0, data=[41, 0]),
   midi.NoteOnEvent(tick=13, channel=0, data=[41, 96]),
   midi.NoteOffEvent(tick=113, channel=0, data=[41, 0]),
   midi.NoteOnEvent(tick=7, channel=0, data=[48, 96]),
   midi.NoteOffEvent(tick=113, channel=0, data=[48, 0]),
   midi.NoteOnEvent(tick=7, channel=0, data=[57, 96]),
   midi.NoteOffEvent(tick=227, channel=0, data=[57, 0]),
   midi.NoteOnEvent(tick=13, channel=0, data=[53, 96]),
   midi.NoteOffEvent(tick=113, channel=0, data=[53, 0]),
   midi.NoteOnEvent(tick=7, channel=0, data=[57, 96]),
   midi.NoteOffEvent(tick=113, channel=0, data=[57, 0]),
   midi.NoteOnEvent(tick=7, channel=0, data=[60, 96]),
   midi.NoteOnEvent(tick=0, channel=0, data=[65, 96]),
   midi.NoteOffEvent(tick=113, channel=0, data=[60, 0]),
   midi.NoteOffEvent(tick=0, channel=0, data=[65, 0]),
   midi.NoteOnEvent(tick=7, channel=0, data=[57, 96]),
   midi.NoteOffEvent(tick=113, channel=0, data=[57, 0]),
   midi.NoteOnEvent(tick=7, channel=0, data=[53, 96]),
   midi.NoteOffEvent(tick=227, channel=0, data=[53, 0]),
   midi.NoteOnEvent(tick=13, channel=0, data=[57, 96]),
   midi.NoteOffEvent(tick=113, channel=0, data=[57, 0]),
   midi.NoteOnEvent(tick=7, channel=0, data=[48, 96]),
   midi.NoteOffEvent(tick=113, channel=0, data=[48, 0]),
   midi.NoteOnEvent(tick=7, channel=0, data=[41, 96]),
   midi.NoteOffEvent(tick=227, channel=0, data=[41, 0]),
   midi.NoteOnEvent(tick=13, channel=0, data=[40, 96]),
   midi.NoteOnEvent(tick=0, channel=0, data=[52, 96]),
   midi.NoteOffEvent(tick=227, channel=0, data=[40, 0]),
   midi.NoteOffEvent(tick=0, channel=0, data=[52, 0]),
   midi.NoteOnEvent(tick=13, channel=0, data=[52, 96]),
   midi.NoteOffEvent(tick=113, channel=0, data=[52, 0]),
   midi.NoteOnEvent(tick=7, channel=0, data=[55, 96]),
   midi.NoteOffEvent(tick=113, channel=0, data=[55, 0]),
   midi.NoteOnEvent(tick=7, channel=0, data=[58, 96]),
   midi.NoteOnEvent(tick=0, channel=0, data=[62, 96]),
   midi.NoteOffEvent(tick=227, channel=0, data=[58, 0]),
   midi.NoteOffEvent(tick=0, channel=0, data=[62, 0]),
   midi.NoteOnEvent(tick=13, channel=0, data=[52, 96]),
   midi.NoteOffEvent(tick=227, channel=0, data=[52, 0]),
   midi.NoteOnEvent(tick=13, channel=0, data=[33, 96]),
   midi.NoteOnEvent(tick=0, channel=0, data=[45, 96]),
   midi.NoteOffEvent(tick=227, channel=0, data=[33, 0]),
   midi.NoteOffEvent(tick=0, channel=0, data=[45, 0]),
   midi.NoteOnEvent(tick=13, channel=0, data=[45, 96]),
   midi.NoteOffEvent(tick=113, channel=0, data=[45, 0]),
   midi.NoteOnEvent(tick=7, channel=0, data=[52, 96]),
   midi.NoteOffEvent(tick=113, channel=0, data=[52, 0]),
   midi.NoteOnEvent(tick=7, channel=0, data=[55, 96]),
   midi.NoteOnEvent(tick=0, channel=0, data=[61, 96]),
   midi.NoteOffEvent(tick=227, channel=0, data=[55, 0]),
   midi.NoteOffEvent(tick=0, channel=0, data=[61, 0]),
   midi.NoteOnEvent(tick=13, channel=0, data=[45, 96]),
   midi.NoteOffEvent(tick=227, channel=0, data=[45, 0]),
   midi.NoteOnEvent(tick=13, channel=0, data=[38, 96]),
   midi.NoteOnEvent(tick=0, channel=0, data=[50, 96]),
   midi.NoteOffEvent(tick=227, channel=0, data=[38, 0]),
   midi.NoteOffEvent(tick=0, channel=0, data=[50, 0]),
   midi.NoteOnEvent(tick=13, channel=0, data=[50, 96]),
   midi.NoteOffEvent(tick=113, channel=0, data=[50, 0]),
   midi.NoteOnEvent(tick=7, channel=0, data=[53, 96]),
   midi.NoteOffEvent(tick=113, channel=0, data=[53, 0]),
   midi.NoteOnEvent(tick=7, channel=0, data=[57, 96]),
   midi.NoteOnEvent(tick=0, channel=0, data=[62, 96]),
   midi.NoteOffEvent(tick=227, channel=0, data=[57, 0]),
   midi.NoteOffEvent(tick=0, channel=0, data=[62, 0]),
   midi.NoteOnEvent(tick=13, channel=0, data=[50, 96]),
   midi.NoteOffEvent(tick=227, channel=0, data=[50, 0]),
   midi.NoteOnEvent(tick=13, channel=0, data=[36, 96]),
   midi.NoteOnEvent(tick=0, channel=0, data=[48, 96]),
   midi.NoteOffEvent(tick=227, channel=0, data=[36, 0]),
   midi.NoteOffEvent(tick=0, channel=0, data=[48, 0]),
   midi.NoteOnEvent(tick=13, channel=0, data=[48, 96]),
   midi.NoteOffEvent(tick=113, channel=0, data=[48, 0]),
   midi.NoteOnEvent(tick=7, channel=0, data=[53, 96]),
   midi.NoteOffEvent(tick=113, channel=0, data=[53, 0]),
   midi.NoteOnEvent(tick=7, channel=0, data=[57, 96]),
   midi.NoteOnEvent(tick=0, channel=0, data=[60, 96]),
   midi.NoteOffEvent(tick=227, channel=0, data=[57, 0]),
   midi.NoteOffEvent(tick=0, channel=0, data=[60, 0]),
   midi.NoteOnEvent(tick=13, channel=0, data=[48, 96]),
   midi.NoteOffEvent(tick=227, channel=0, data=[48, 0]),
   midi.NoteOnEvent(tick=13, channel=0, data=[33, 96]),
   midi.NoteOnEvent(tick=0, channel=0, data=[45, 96]),
   midi.NoteOffEvent(tick=227, channel=0, data=[33, 0]),
   midi.NoteOffEvent(tick=0, channel=0, data=[45, 0]),
   midi.NoteOnEvent(tick=13, channel=0, data=[45, 96]),
   midi.NoteOffEvent(tick=113, channel=0, data=[45, 0]),
   midi.NoteOnEvent(tick=7, channel=0, data=[52, 96]),
   midi.NoteOffEvent(tick=113, channel=0, data=[52, 0]),
   midi.NoteOnEvent(tick=7, channel=0, data=[60, 96]),
   midi.NoteOffEvent(tick=227, channel=0, data=[60, 0]),
   midi.NoteOnEvent(tick=13, channel=0, data=[57, 96]),
   midi.NoteOffEvent(tick=113, channel=0, data=[57, 0]),
   midi.NoteOnEvent(tick=7, channel=0, data=[60, 96]),
   midi.NoteOffEvent(tick=113, channel=0, data=[60, 0]),
   midi.NoteOnEvent(tick=7, channel=0, data=[64, 96]),
   midi.NoteOnEvent(tick=0, channel=0, data=[69, 96]),
   midi.NoteOffEvent(tick=113, channel=0, data=[64, 0]),
   midi.NoteOffEvent(tick=0, channel=0, data=[69, 0]),
   midi.NoteOnEvent(tick=7, channel=0, data=[60, 96]),
   midi.NoteOffEvent(tick=113, channel=0, data=[60, 0]),
   midi.NoteOnEvent(tick=7, channel=0, data=[57, 96]),
   midi.NoteOffEvent(tick=227, channel=0, data=[57, 0]),
   midi.NoteOnEvent(tick=13, channel=0, data=[60, 96]),
   midi.NoteOffEvent(tick=113, channel=0, data=[60, 0]),
   midi.NoteOnEvent(tick=7, channel=0, data=[52, 96]),
   midi.NoteOffEvent(tick=113, channel=0, data=[52, 0]),
   midi.NoteOnEvent(tick=7, channel=0, data=[45, 96]),
   midi.NoteOffEvent(tick=227, channel=0, data=[45, 0]),
   midi.NoteOnEvent(tick=13, channel=0, data=[34, 96]),
   midi.NoteOnEvent(tick=0, channel=0, data=[46, 96]),
   midi.NoteOffEvent(tick=227, channel=0, data=[34, 0]),
   midi.NoteOffEvent(tick=0, channel=0, data=[46, 0]),
   midi.NoteOnEvent(tick=13, channel=0, data=[46, 96]),
   midi.NoteOffEvent(tick=113, channel=0, data=[46, 0]),
   midi.NoteOnEvent(tick=7, channel=0, data=[50, 96]),
   midi.NoteOffEvent(tick=113, channel=0, data=[50, 0]),
   midi.NoteOnEvent(tick=7, channel=0, data=[53, 96]),
   midi.NoteOnEvent(tick=0, channel=0, data=[58, 96]),
   midi.NoteOffEvent(tick=227, channel=0, data=[53, 0]),
   midi.NoteOffEvent(tick=0, channel=0, data=[58, 0]),
   midi.NoteOnEvent(tick=13, channel=0, data=[46, 96]),
   midi.NoteOffEvent(tick=227, channel=0, data=[46, 0]),
   midi.NoteOnEvent(tick=13, channel=0, data=[34, 96]),
   midi.NoteOnEvent(tick=0, channel=0, data=[46, 96]),
   midi.NoteOffEvent(tick=227, channel=0, data=[34, 0]),
   midi.NoteOffEvent(tick=0, channel=0, data=[46, 0]),
   midi.NoteOnEvent(tick=13, channel=0, data=[48, 96]),
   midi.NoteOffEvent(tick=113, channel=0, data=[48, 0]),
   midi.NoteOnEvent(tick=7, channel=0, data=[52, 96]),
   midi.NoteOffEvent(tick=113, channel=0, data=[52, 0]),
   midi.NoteOnEvent(tick=7, channel=0, data=[55, 96]),
   midi.NoteOnEvent(tick=0, channel=0, data=[60, 96]),
   midi.NoteOffEvent(tick=227, channel=0, data=[55, 0]),
   midi.NoteOffEvent(tick=0, channel=0, data=[60, 0]),
   midi.NoteOnEvent(tick=13, channel=0, data=[48, 96]),
   midi.NoteOffEvent(tick=227, channel=0, data=[48, 0]),
   midi.NoteOnEvent(tick=13, channel=0, data=[33, 96]),
   midi.NoteOnEvent(tick=0, channel=0, data=[45, 96]),
   midi.NoteOffEvent(tick=227, channel=0, data=[33, 0]),
   midi.NoteOffEvent(tick=0, channel=0, data=[45, 0]),
   midi.NoteOnEvent(tick=13, channel=0, data=[57, 96]),
   midi.NoteOnEvent(tick=0, channel=0, data=[60, 96]),
   midi.NoteOffEvent(tick=227, channel=0, data=[57, 0]),
   midi.NoteOffEvent(tick=0, channel=0, data=[60, 0]),
   midi.NoteOnEvent(tick=13, channel=0, data=[25, 96]),
   midi.NoteOnEvent(tick=0, channel=0, data=[37, 96]),
   midi.NoteOffEvent(tick=227, channel=0, data=[25, 0]),
   midi.NoteOffEvent(tick=0, channel=0, data=[37, 0]),
   midi.NoteOnEvent(tick=13, channel=0, data=[57, 96]),
   midi.NoteOnEvent(tick=0, channel=0, data=[61, 96]),
   midi.NoteOffEvent(tick=227, channel=0, data=[57, 0]),
   midi.NoteOffEvent(tick=0, channel=0, data=[61, 0]),
   midi.NoteOnEvent(tick=13, channel=0, data=[38, 96]),
   midi.NoteOnEvent(tick=0, channel=0, data=[50, 96]),
   midi.NoteOffEvent(tick=227, channel=0, data=[38, 0]),
   midi.NoteOffEvent(tick=0, channel=0, data=[50, 0]),
   midi.NoteOnEvent(tick=13, channel=0, data=[50, 96]),
   midi.NoteOffEvent(tick=113, channel=0, data=[50, 0]),
   midi.NoteOnEvent(tick=7, channel=0, data=[53, 96]),
   midi.NoteOffEvent(tick=113, channel=0, data=[53, 0]),
   midi.NoteOnEvent(tick=7, channel=0, data=[57, 96]),
   midi.NoteOnEvent(tick=0, channel=0, data=[60, 96]),
   midi.NoteOffEvent(tick=59, channel=0, data=[57, 0]),
   midi.NoteOffEvent(tick=0, channel=0, data=[60, 0]),
   midi.NoteOnEvent(tick=61, channel=0, data=[38, 96]),
   midi.NoteOnEvent(tick=0, channel=0, data=[50, 96]),
   midi.NoteOffEvent(tick=341, channel=0, data=[38, 0]),
   midi.NoteOffEvent(tick=0, channel=0, data=[50, 0]),
   midi.NoteOnEvent(tick=19, channel=0, data=[46, 80]),
   midi.NoteOnEvent(tick=0, channel=0, data=[57, 80]),
   midi.NoteOffEvent(tick=227, channel=0, data=[46, 0]),
   midi.NoteOffEvent(tick=0, channel=0, data=[57, 0]),
   midi.NoteOnEvent(tick=13, channel=0, data=[64, 80]),
   midi.NoteOffEvent(tick=227, channel=0, data=[64, 0]),
   midi.NoteOnEvent(tick=13, channel=0, data=[57, 80]),
   midi.NoteOnEvent(tick=0, channel=0, data=[62, 80]),
   midi.NoteOffEvent(tick=227, channel=0, data=[57, 0]),
   midi.NoteOffEvent(tick=0, channel=0, data=[62, 0]),
   midi.NoteOnEvent(tick=13, channel=0, data=[60, 80]),
   midi.NoteOffEvent(tick=227, channel=0, data=[60, 0]),
   midi.NoteOnEvent(tick=13, channel=0, data=[48, 80]),
   midi.NoteOffEvent(tick=113, channel=0, data=[48, 0]),
   midi.NoteOnEvent(tick=7, channel=0, data=[43, 82]),
   midi.NoteOffEvent(tick=113, channel=0, data=[43, 0]),
   midi.NoteOnEvent(tick=7, channel=0, data=[36, 84]),
   midi.NoteOffEvent(tick=227, channel=0, data=[36, 0]),
   midi.NoteOnEvent(tick=13, channel=0, data=[55, 88]),
   midi.NoteOnEvent(tick=0, channel=0, data=[60, 88]),
   midi.NoteOffEvent(tick=113, channel=0, data=[55, 0]),
   midi.NoteOffEvent(tick=0, channel=0, data=[60, 0]),
   midi.NoteOnEvent(tick=7, channel=0, data=[52, 90]),
   midi.NoteOffEvent(tick=113, channel=0, data=[52, 0]),
   midi.NoteOnEvent(tick=7, channel=0, data=[48, 92]),
   midi.NoteOffEvent(tick=113, channel=0, data=[48, 0]),
   midi.NoteOnEvent(tick=7, channel=0, data=[36, 94]),
   midi.NoteOffEvent(tick=113, channel=0, data=[36, 0]),
   midi.NoteOnEvent(tick=7, channel=0, data=[38, 96]),
   midi.NoteOnEvent(tick=0, channel=0, data=[50, 96]),
   midi.NoteOffEvent(tick=227, channel=0, data=[38, 0]),
   midi.NoteOffEvent(tick=0, channel=0, data=[50, 0]),
   midi.NoteOnEvent(tick=13, channel=0, data=[38, 96]),
   midi.NoteOffEvent(tick=113, channel=0, data=[38, 0]),
   midi.NoteOnEvent(tick=7, channel=0, data=[37, 96]),
   midi.NoteOnEvent(tick=0, channel=0, data=[49, 96]),
   midi.NoteOffEvent(tick=227, channel=0, data=[37, 0]),
   midi.NoteOffEvent(tick=0, channel=0, data=[49, 0]),
   midi.NoteOnEvent(tick=13, channel=0, data=[37, 96]),
   midi.NoteOffEvent(tick=113, channel=0, data=[37, 0]),
   midi.NoteOnEvent(tick=7, channel=0, data=[36, 96]),
   midi.NoteOnEvent(tick=0, channel=0, data=[48, 96]),
   midi.NoteOffEvent(tick=227, channel=0, data=[36, 0]),
   midi.NoteOffEvent(tick=0, channel=0, data=[48, 0]),
   midi.NoteOnEvent(tick=13, channel=0, data=[35, 96]),
   midi.NoteOnEvent(tick=0, channel=0, data=[47, 96]),
   midi.NoteOffEvent(tick=227, channel=0, data=[35, 0]),
   midi.NoteOffEvent(tick=0, channel=0, data=[47, 0]),
   midi.NoteOnEvent(tick=13, channel=0, data=[47, 96]),
   midi.NoteOffEvent(tick=113, channel=0, data=[47, 0]),
   midi.NoteOnEvent(tick=7, channel=0, data=[53, 96]),
   midi.NoteOffEvent(tick=113, channel=0, data=[53, 0]),
   midi.NoteOnEvent(tick=7, channel=0, data=[57, 96]),
   midi.NoteOnEvent(tick=0, channel=0, data=[62, 96]),
   midi.NoteOffEvent(tick=227, channel=0, data=[57, 0]),
   midi.NoteOffEvent(tick=0, channel=0, data=[62, 0]),
   midi.NoteOnEvent(tick=13, channel=0, data=[47, 96]),
   midi.NoteOffEvent(tick=227, channel=0, data=[47, 0]),
   midi.NoteOnEvent(tick=13, channel=0, data=[31, 96]),
   midi.NoteOnEvent(tick=0, channel=0, data=[43, 96]),
   midi.NoteOffEvent(tick=227, channel=0, data=[31, 0]),
   midi.NoteOffEvent(tick=0, channel=0, data=[43, 0]),
   midi.NoteOnEvent(tick=13, channel=0, data=[43, 96]),
   midi.NoteOffEvent(tick=113, channel=0, data=[43, 0]),
   midi.NoteOnEvent(tick=7, channel=0, data=[50, 96]),
   midi.NoteOffEvent(tick=113, channel=0, data=[50, 0]),
   midi.NoteOnEvent(tick=7, channel=0, data=[53, 96]),
   midi.NoteOnEvent(tick=0, channel=0, data=[58, 96]),
   midi.NoteOffEvent(tick=227, channel=0, data=[53, 0]),
   midi.NoteOffEvent(tick=0, channel=0, data=[58, 0]),
   midi.NoteOnEvent(tick=13, channel=0, data=[43, 96]),
   midi.NoteOffEvent(tick=227, channel=0, data=[43, 0]),
   midi.NoteOnEvent(tick=13, channel=0, data=[36, 96]),
   midi.NoteOnEvent(tick=0, channel=0, data=[48, 96]),
   midi.NoteOffEvent(tick=113, channel=0, data=[36, 0]),
   midi.NoteOffEvent(tick=0, channel=0, data=[48, 0]),
   midi.NoteOnEvent(tick=7, channel=0, data=[60, 96]),
   midi.NoteOffEvent(tick=113, channel=0, data=[60, 0]),
   midi.NoteOnEvent(tick=7, channel=0, data=[55, 96]),
   midi.NoteOffEvent(tick=113, channel=0, data=[55, 0]),
   midi.NoteOnEvent(tick=7, channel=0, data=[52, 96]),
   midi.NoteOffEvent(tick=113, channel=0, data=[52, 0]),
   midi.NoteOnEvent(tick=7, channel=0, data=[48, 96]),
   midi.NoteOffEvent(tick=113, channel=0, data=[48, 0]),
   midi.NoteOnEvent(tick=7, channel=0, data=[43, 96]),
   midi.NoteOffEvent(tick=113, channel=0, data=[43, 0]),
   midi.NoteOnEvent(tick=7, channel=0, data=[36, 96]),
   midi.NoteOffEvent(tick=227, channel=0, data=[36, 0]),
   midi.NoteOnEvent(tick=13, channel=0, data=[41, 96]),
   midi.NoteOnEvent(tick=0, channel=0, data=[53, 96]),
   midi.NoteOffEvent(tick=227, channel=0, data=[41, 0]),
   midi.NoteOffEvent(tick=0, channel=0, data=[53, 0]),
   midi.NoteOnEvent(tick=13, channel=0, data=[48, 96]),
   midi.NoteOffEvent(tick=227, channel=0, data=[48, 0]),
   midi.NoteOnEvent(tick=13, channel=0, data=[53, 96]),
   midi.NoteOnEvent(tick=0, channel=0, data=[58, 96]),
   midi.NoteOffEvent(tick=113, channel=0, data=[53, 0]),
   midi.NoteOffEvent(tick=0, channel=0, data=[58, 0]),
   midi.NoteOnEvent(tick=127, channel=0, data=[29, 96]),
   midi.NoteOnEvent(tick=0, channel=0, data=[41, 96]),
   midi.NoteOffEvent(tick=2051, channel=0, data=[29, 0]),
   midi.NoteOffEvent(tick=0, channel=0, data=[41, 0]),
   midi.TextMetaEvent(tick=1, text='end', data=[101, 110, 100]),
   midi.EndOfTrackEvent(tick=1, data=[])]),
 midi.Track(\
  [midi.ProgramChangeEvent(tick=0, channel=0, data=[0]),
   midi.TextMetaEvent(tick=5520, text='start', data=[115, 116, 97, 114, 116]),
   midi.NoteOnEvent(tick=0, channel=0, data=[77, 64]),
   midi.NoteOffEvent(tick=113, channel=0, data=[77, 0]),
   midi.NoteOnEvent(tick=7, channel=0, data=[76, 64]),
   midi.NoteOffEvent(tick=113, channel=0, data=[76, 0]),
   midi.NoteOnEvent(tick=7, channel=0, data=[77, 64]),
   midi.NoteOffEvent(tick=455, channel=0, data=[77, 0]),
   midi.NoteOnEvent(tick=25, channel=0, data=[81, 64]),
   midi.NoteOffEvent(tick=455, channel=0, data=[81, 0]),
   midi.NoteOnEvent(tick=25, channel=0, data=[76, 64]),
   midi.NoteOffEvent(tick=683, channel=0, data=[76, 0]),
   midi.NoteOnEvent(tick=37, channel=0, data=[74, 64]),
   midi.NoteOffEvent(tick=113, channel=0, data=[74, 0]),
   midi.NoteOnEvent(tick=7, channel=0, data=[72, 64]),
   midi.NoteOffEvent(tick=113, channel=0, data=[72, 0]),
   midi.NoteOnEvent(tick=7, channel=0, data=[69, 64]),
   midi.NoteOnEvent(tick=0, channel=0, data=[74, 64]),
   midi.NoteOffEvent(tick=455, channel=0, data=[69, 0]),
   midi.NoteOffEvent(tick=0, channel=0, data=[74, 0]),
   midi.NoteOnEvent(tick=25, channel=0, data=[77, 64]),
   midi.NoteOffEvent(tick=455, channel=0, data=[77, 0]),
   midi.NoteOnEvent(tick=25, channel=0, data=[72, 64]),
   midi.NoteOnEvent(tick=0, channel=0, data=[81, 64]),
   midi.NoteOffEvent(tick=683, channel=0, data=[72, 0]),
   midi.NoteOffEvent(tick=0, channel=0, data=[81, 0]),
   midi.NoteOnEvent(tick=37, channel=0, data=[82, 64]),
   midi.NoteOffEvent(tick=113, channel=0, data=[82, 0]),
   midi.NoteOnEvent(tick=7, channel=0, data=[81, 64]),
   midi.NoteOffEvent(tick=113, channel=0, data=[81, 0]),
   midi.NoteOnEvent(tick=7, channel=0, data=[74, 64]),
   midi.NoteOnEvent(tick=0, channel=0, data=[82, 64]),
   midi.NoteOffEvent(tick=455, channel=0, data=[74, 0]),
   midi.NoteOffEvent(tick=0, channel=0, data=[82, 0]),
   midi.NoteOnEvent(tick=25, channel=0, data=[86, 64]),
   midi.NoteOffEvent(tick=455, channel=0, data=[86, 0]),
   midi.NoteOnEvent(tick=25, channel=0, data=[74, 64]),
   midi.NoteOnEvent(tick=0, channel=0, data=[81, 64]),
   midi.NoteOffEvent(tick=683, channel=0, data=[74, 0]),
   midi.NoteOffEvent(tick=0, channel=0, data=[81, 0]),
   midi.NoteOnEvent(tick=37, channel=0, data=[79, 64]),
   midi.NoteOffEvent(tick=113, channel=0, data=[79, 0]),
   midi.NoteOnEvent(tick=7, channel=0, data=[77, 64]),
   midi.NoteOffEvent(tick=113, channel=0, data=[77, 0]),
   midi.NoteOnEvent(tick=7, channel=0, data=[70, 64]),
   midi.NoteOnEvent(tick=0, channel=0, data=[79, 64]),
   midi.NoteOffEvent(tick=455, channel=0, data=[70, 0]),
   midi.NoteOffEvent(tick=0, channel=0, data=[79, 0]),
   midi.NoteOnEvent(tick=25, channel=0, data=[74, 64]),
   midi.NoteOffEvent(tick=455, channel=0, data=[74, 0]),
   midi.NoteOnEvent(tick=25, channel=0, data=[74, 64]),
   midi.NoteOnEvent(tick=0, channel=0, data=[76, 64]),
   midi.NoteOnEvent(tick=0, channel=0, data=[81, 64]),
   midi.NoteOffEvent(tick=455, channel=0, data=[74, 0]),
   midi.NoteOffEvent(tick=0, channel=0, data=[76, 0]),
   midi.NoteOffEvent(tick=0, channel=0, data=[81, 0]),
   midi.NoteOnEvent(tick=25, channel=0, data=[73, 64]),
   midi.NoteOffEvent(tick=227, channel=0, data=[73, 0]),
   midi.NoteOnEvent(tick=13, channel=0, data=[77, 64]),
   midi.NoteOffEvent(tick=113, channel=0, data=[77, 0]),
   midi.NoteOnEvent(tick=7, channel=0, data=[76, 64]),
   midi.NoteOffEvent(tick=113, channel=0, data=[76, 0]),
   midi.NoteOnEvent(tick=7, channel=0, data=[69, 80]),
   midi.NoteOnEvent(tick=0, channel=0, data=[77, 80]),
   midi.NoteOffEvent(tick=455, channel=0, data=[69, 0]),
   midi.NoteOffEvent(tick=0, channel=0, data=[77, 0]),
   midi.NoteOnEvent(tick=25, channel=0, data=[81, 80]),
   midi.NoteOffEvent(tick=455, channel=0, data=[81, 0]),
   midi.NoteOnEvent(tick=25, channel=0, data=[69, 80]),
   midi.NoteOnEvent(tick=0, channel=0, data=[76, 80]),
   midi.NoteOffEvent(tick=683, channel=0, data=[69, 0]),
   midi.NoteOffEvent(tick=0, channel=0, data=[76, 0]),
   midi.NoteOnEvent(tick=37, channel=0, data=[74, 80]),
   midi.NoteOffEvent(tick=113, channel=0, data=[74, 0]),
   midi.NoteOnEvent(tick=7, channel=0, data=[72, 80]),
   midi.NoteOffEvent(tick=113, channel=0, data=[72, 0]),
   midi.NoteOnEvent(tick=7, channel=0, data=[69, 80]),
   midi.NoteOnEvent(tick=0, channel=0, data=[74, 80]),
   midi.NoteOffEvent(tick=455, channel=0, data=[69, 0]),
   midi.NoteOffEvent(tick=0, channel=0, data=[74, 0]),
   midi.NoteOnEvent(tick=25, channel=0, data=[77, 80]),
   midi.NoteOffEvent(tick=454, channel=0, data=[77, 0]),
   midi.NoteOnEvent(tick=26, channel=0, data=[72, 80]),
   midi.NoteOnEvent(tick=0, channel=0, data=[81, 80]),
   midi.NoteOffEvent(tick=682, channel=0, data=[72, 0]),
   midi.NoteOffEvent(tick=0, channel=0, data=[81, 0]),
   midi.NoteOnEvent(tick=38, channel=0, data=[82, 80]),
   midi.NoteOffEvent(tick=112, channel=0, data=[82, 0]),
   midi.NoteOnEvent(tick=8, channel=0, data=[81, 80]),
   midi.NoteOffEvent(tick=113, channel=0, data=[81, 0]),
   midi.NoteOnEvent(tick=7, channel=0, data=[74, 80]),
   midi.NoteOnEvent(tick=0, channel=0, data=[82, 80]),
   midi.NoteOffEvent(tick=455, channel=0, data=[74, 0]),
   midi.NoteOffEvent(tick=0, channel=0, data=[82, 0]),
   midi.NoteOnEvent(tick=25, channel=0, data=[86, 80]),
   midi.NoteOffEvent(tick=455, channel=0, data=[86, 0]),
   midi.NoteOnEvent(tick=25, channel=0, data=[74, 80]),
   midi.NoteOnEvent(tick=0, channel=0, data=[81, 80]),
   midi.NoteOffEvent(tick=683, channel=0, data=[74, 0]),
   midi.NoteOffEvent(tick=0, channel=0, data=[81, 0]),
   midi.NoteOnEvent(tick=37, channel=0, data=[79, 80]),
   midi.NoteOffEvent(tick=113, channel=0, data=[79, 0]),
   midi.NoteOnEvent(tick=7, channel=0, data=[77, 80]),
   midi.NoteOffEvent(tick=113, channel=0, data=[77, 0]),
   midi.NoteOnEvent(tick=7, channel=0, data=[70, 80]),
   midi.NoteOnEvent(tick=0, channel=0, data=[79, 80]),
   midi.NoteOffEvent(tick=455, channel=0, data=[70, 0]),
   midi.NoteOffEvent(tick=0, channel=0, data=[79, 0]),
   midi.NoteOnEvent(tick=25, channel=0, data=[74, 80]),
   midi.NoteOffEvent(tick=455, channel=0, data=[74, 0]),
   midi.NoteOnEvent(tick=25, channel=0, data=[74, 80]),
   midi.NoteOnEvent(tick=0, channel=0, data=[76, 80]),
   midi.NoteOnEvent(tick=0, channel=0, data=[81, 80]),
   midi.NoteOffEvent(tick=227, channel=0, data=[74, 0]),
   midi.NoteOffEvent(tick=0, channel=0, data=[76, 0]),
   midi.NoteOffEvent(tick=0, channel=0, data=[81, 0]),
   midi.NoteOnEvent(tick=13, channel=0, data=[62, 80]),
   midi.NoteOffEvent(tick=227, channel=0, data=[62, 0]),
   midi.NoteOnEvent(tick=13, channel=0, data=[61, 80]),
   midi.NoteOffEvent(tick=341, channel=0, data=[61, 0]),
   midi.NoteOnEvent(tick=19, channel=0, data=[89, 80]),
   midi.NoteOffEvent(tick=56, channel=0, data=[89, 0]),
   midi.NoteOnEvent(tick=4, channel=0, data=[88, 80]),
   midi.NoteOffEvent(tick=56, channel=0, data=[88, 0]),
   midi.NoteOnEvent(tick=4, channel=0, data=[77, 80]),
   midi.NoteOnEvent(tick=0, channel=0, data=[89, 80]),
   midi.NoteOffEvent(tick=455, channel=0, data=[77, 0]),
   midi.NoteOffEvent(tick=0, channel=0, data=[89, 0]),
   midi.NoteOnEvent(tick=25, channel=0, data=[93, 80]),
   midi.NoteOffEvent(tick=455, channel=0, data=[93, 0]),
   midi.NoteOnEvent(tick=25, channel=0, data=[77, 80]),
   midi.NoteOnEvent(tick=0, channel=0, data=[88, 80]),
   midi.NoteOffEvent(tick=797, channel=0, data=[77, 0]),
   midi.NoteOffEvent(tick=0, channel=0, data=[88, 0]),
   midi.NoteOnEvent(tick=43, channel=0, data=[89, 80]),
   midi.NoteOffEvent(tick=56, channel=0, data=[89, 0]),
   midi.NoteOnEvent(tick=4, channel=0, data=[88, 80]),
   midi.NoteOffEvent(tick=56, channel=0, data=[88, 0]),
   midi.NoteOnEvent(tick=4, channel=0, data=[77, 80]),
   midi.NoteOnEvent(tick=0, channel=0, data=[86, 80]),
   midi.NoteOffEvent(tick=960, channel=0, data=[77, 0]),
   midi.NoteOffEvent(tick=749, channel=0, data=[86, 0]),
   midi.NoteOnEvent(tick=91, channel=0, data=[89, 80]),
   midi.NoteOffEvent(tick=56, channel=0, data=[89, 0]),
   midi.NoteOnEvent(tick=4, channel=0, data=[88, 80]),
   midi.NoteOffEvent(tick=56, channel=0, data=[88, 0]),
   midi.NoteOnEvent(tick=4, channel=0, data=[89, 80]),
   midi.NoteOffEvent(tick=455, channel=0, data=[89, 0]),
   midi.NoteOnEvent(tick=25, channel=0, data=[93, 80]),
   midi.NoteOffEvent(tick=455, channel=0, data=[93, 0]),
   midi.NoteOnEvent(tick=25, channel=0, data=[96, 80]),
   midi.NoteOffEvent(tick=797, channel=0, data=[96, 0]),
   midi.NoteOnEvent(tick=43, channel=0, data=[98, 80]),
   midi.NoteOffEvent(tick=56, channel=0, data=[98, 0]),
   midi.NoteOnEvent(tick=4, channel=0, data=[96, 80]),
   midi.NoteOffEvent(tick=56, channel=0, data=[96, 0]),
   midi.NoteOnEvent(tick=4, channel=0, data=[98, 80]),
   midi.NoteOffEvent(tick=1823, channel=0, data=[98, 0]),
   midi.TextMetaEvent(tick=22, text='end', data=[101, 110, 100]),
   midi.TextMetaEvent(tick=9163, text='start', data=[115, 116, 97, 114, 116]),
   midi.NoteOnEvent(tick=32, channel=0, data=[64, 80]),
   midi.NoteOnEvent(tick=0, channel=0, data=[67, 80]),
   midi.NoteOnEvent(tick=0, channel=0, data=[72, 80]),
   midi.NoteOffEvent(tick=227, channel=0, data=[64, 0]),
   midi.NoteOffEvent(tick=0, channel=0, data=[67, 0]),
   midi.NoteOffEvent(tick=0, channel=0, data=[72, 0]),
   midi.NoteOnEvent(tick=13, channel=0, data=[77, 88]),
   midi.NoteOffEvent(tick=113, channel=0, data=[77, 0]),
   midi.NoteOnEvent(tick=7, channel=0, data=[76, 92]),
   midi.NoteOffEvent(tick=113, channel=0, data=[76, 0]),
   midi.NoteOnEvent(tick=7, channel=0, data=[69, 96]),
   midi.NoteOnEvent(tick=0, channel=0, data=[74, 96]),
   midi.NoteOnEvent(tick=0, channel=0, data=[77, 96]),
   midi.NoteOffEvent(tick=455, channel=0, data=[69, 0]),
   midi.NoteOffEvent(tick=0, channel=0, data=[74, 0]),
   midi.NoteOffEvent(tick=0, channel=0, data=[77, 0]),
   midi.NoteOnEvent(tick=25, channel=0, data=[81, 96]),
   midi.NoteOffEvent(tick=455, channel=0, data=[81, 0]),
   midi.NoteOnEvent(tick=25, channel=0, data=[69, 96]),
   midi.NoteOnEvent(tick=0, channel=0, data=[72, 96]),
   midi.NoteOnEvent(tick=0, channel=0, data=[76, 96]),
   midi.NoteOffEvent(tick=683, channel=0, data=[69, 0]),
   midi.NoteOffEvent(tick=0, channel=0, data=[72, 0]),
   midi.NoteOffEvent(tick=0, channel=0, data=[76, 0]),
   midi.NoteOnEvent(tick=37, channel=0, data=[74, 96]),
   midi.NoteOffEvent(tick=113, channel=0, data=[74, 0]),
   midi.NoteOnEvent(tick=7, channel=0, data=[72, 96]),
   midi.NoteOffEvent(tick=113, channel=0, data=[72, 0]),
   midi.NoteOnEvent(tick=7, channel=0, data=[65, 96]),
   midi.NoteOnEvent(tick=0, channel=0, data=[70, 96]),
   midi.NoteOnEvent(tick=0, channel=0, data=[74, 96]),
   midi.NoteOffEvent(tick=455, channel=0, data=[65, 0]),
   midi.NoteOffEvent(tick=0, channel=0, data=[70, 0]),
   midi.NoteOffEvent(tick=0, channel=0, data=[74, 0]),
   midi.NoteOnEvent(tick=25, channel=0, data=[77, 96]),
   midi.NoteOffEvent(tick=455, channel=0, data=[77, 0]),
   midi.NoteOnEvent(tick=25, channel=0, data=[72, 96]),
   midi.NoteOnEvent(tick=0, channel=0, data=[77, 96]),
   midi.NoteOnEvent(tick=0, channel=0, data=[81, 96]),
   midi.NoteOffEvent(tick=683, channel=0, data=[72, 0]),
   midi.NoteOffEvent(tick=0, channel=0, data=[77, 0]),
   midi.NoteOffEvent(tick=0, channel=0, data=[81, 0]),
   midi.NoteOnEvent(tick=37, channel=0, data=[82, 96]),
   midi.NoteOffEvent(tick=113, channel=0, data=[82, 0]),
   midi.NoteOnEvent(tick=7, channel=0, data=[81, 96]),
   midi.NoteOffEvent(tick=113, channel=0, data=[81, 0]),
   midi.NoteOnEvent(tick=7, channel=0, data=[74, 96]),
   midi.NoteOnEvent(tick=0, channel=0, data=[79, 96]),
   midi.NoteOnEvent(tick=0, channel=0, data=[82, 96]),
   midi.NoteOffEvent(tick=455, channel=0, data=[74, 0]),
   midi.NoteOffEvent(tick=0, channel=0, data=[79, 0]),
   midi.NoteOffEvent(tick=0, channel=0, data=[82, 0]),
   midi.NoteOnEvent(tick=25, channel=0, data=[86, 96]),
   midi.NoteOffEvent(tick=455, channel=0, data=[86, 0]),
   midi.NoteOnEvent(tick=25, channel=0, data=[74, 96]),
   midi.NoteOnEvent(tick=0, channel=0, data=[77, 96]),
   midi.NoteOnEvent(tick=0, channel=0, data=[81, 96]),
   midi.NoteOffEvent(tick=683, channel=0, data=[74, 0]),
   midi.NoteOffEvent(tick=0, channel=0, data=[77, 0]),
   midi.NoteOffEvent(tick=0, channel=0, data=[81, 0]),
   midi.NoteOnEvent(tick=37, channel=0, data=[79, 96]),
   midi.NoteOffEvent(tick=113, channel=0, data=[79, 0]),
   midi.NoteOnEvent(tick=7, channel=0, data=[77, 96]),
   midi.NoteOffEvent(tick=113, channel=0, data=[77, 0]),
   midi.NoteOnEvent(tick=7, channel=0, data=[70, 96]),
   midi.NoteOnEvent(tick=0, channel=0, data=[76, 96]),
   midi.NoteOnEvent(tick=0, channel=0, data=[79, 96]),
   midi.NoteOffEvent(tick=455, channel=0, data=[70, 0]),
   midi.NoteOffEvent(tick=0, channel=0, data=[76, 0]),
   midi.NoteOffEvent(tick=0, channel=0, data=[79, 0]),
   midi.NoteOnEvent(tick=25, channel=0, data=[74, 96]),
   midi.NoteOffEvent(tick=455, channel=0, data=[74, 0]),
   midi.NoteOnEvent(tick=25, channel=0, data=[74, 96]),
   midi.NoteOnEvent(tick=0, channel=0, data=[77, 96]),
   midi.NoteOnEvent(tick=0, channel=0, data=[81, 96]),
   midi.NoteOffEvent(tick=455, channel=0, data=[74, 0]),
   midi.NoteOffEvent(tick=0, channel=0, data=[77, 0]),
   midi.NoteOffEvent(tick=0, channel=0, data=[81, 0]),
   midi.NoteOnEvent(tick=25, channel=0, data=[73, 96]),
   midi.NoteOnEvent(tick=0, channel=0, data=[76, 96]),
   midi.NoteOffEvent(tick=455, channel=0, data=[73, 0]),
   midi.NoteOffEvent(tick=0, channel=0, data=[76, 0]),
   midi.NoteOnEvent(tick=505, channel=0, data=[74, 80]),
   midi.NoteOffEvent(tick=455, channel=0, data=[74, 0]),
   midi.NoteOnEvent(tick=25, channel=0, data=[74, 80]),
   midi.NoteOffEvent(tick=227, channel=0, data=[74, 0]),
   midi.NoteOnEvent(tick=13, channel=0, data=[74, 80]),
   midi.NoteOffEvent(tick=227, channel=0, data=[74, 0]),
   midi.NoteOnEvent(tick=13, channel=0, data=[76, 80]),
   midi.NoteOffEvent(tick=227, channel=0, data=[76, 0]),
   midi.NoteOnEvent(tick=13, channel=0, data=[77, 80]),
   midi.NoteOffEvent(tick=227, channel=0, data=[77, 0]),
   midi.NoteOnEvent(tick=13, channel=0, data=[65, 80]),
   midi.NoteOnEvent(tick=0, channel=0, data=[69, 80]),
   midi.NoteOnEvent(tick=0, channel=0, data=[72, 80]),
   midi.NoteOffEvent(tick=683, channel=0, data=[65, 0]),
   midi.NoteOffEvent(tick=0, channel=0, data=[69, 0]),
   midi.NoteOffEvent(tick=0, channel=0, data=[72, 0]),
   midi.NoteOnEvent(tick=37, channel=0, data=[79, 80]),
   midi.NoteOffEvent(tick=113, channel=0, data=[79, 0]),
   midi.NoteOnEvent(tick=7, channel=0, data=[69, 80]),
   midi.NoteOnEvent(tick=0, channel=0, data=[74, 80]),
   midi.NoteOnEvent(tick=0, channel=0, data=[77, 80]),
   midi.NoteOffEvent(tick=569, channel=0, data=[69, 0]),
   midi.NoteOffEvent(tick=0, channel=0, data=[74, 0]),
   midi.NoteOffEvent(tick=0, channel=0, data=[77, 0]),
   midi.NoteOnEvent(tick=991, channel=0, data=[74, 80]),
   midi.NoteOffEvent(tick=455, channel=0, data=[74, 0]),
   midi.NoteOnEvent(tick=25, channel=0, data=[69, 80]),
   midi.NoteOnEvent(tick=0, channel=0, data=[73, 80]),
   midi.NoteOffEvent(tick=227, channel=0, data=[69, 0]),
   midi.NoteOffEvent(tick=0, channel=0, data=[73, 0]),
   midi.NoteOnEvent(tick=13, channel=0, data=[74, 80]),
   midi.NoteOffEvent(tick=227, channel=0, data=[74, 0]),
   midi.NoteOnEvent(tick=13, channel=0, data=[76, 80]),
   midi.NoteOffEvent(tick=227, channel=0, data=[76, 0]),
   midi.NoteOnEvent(tick=13, channel=0, data=[69, 80]),
   midi.NoteOffEvent(tick=227, channel=0, data=[69, 0]),
   midi.NoteOnEvent(tick=13, channel=0, data=[74, 80]),
   midi.NoteOnEvent(tick=0, channel=0, data=[79, 80]),
   midi.NoteOnEvent(tick=0, channel=0, data=[81, 80]),
   midi.NoteOffEvent(tick=683, channel=0, data=[74, 0]),
   midi.NoteOffEvent(tick=0, channel=0, data=[79, 0]),
   midi.NoteOffEvent(tick=0, channel=0, data=[81, 0]),
   midi.NoteOnEvent(tick=37, channel=0, data=[65, 80]),
   midi.NoteOffEvent(tick=113, channel=0, data=[65, 0]),
   midi.NoteOnEvent(tick=7, channel=0, data=[67, 80]),
   midi.NoteOffEvent(tick=113, channel=0, data=[67, 0]),
   midi.NoteOnEvent(tick=7, channel=0, data=[65, 80]),
   midi.NoteOnEvent(tick=0, channel=0, data=[69, 80]),
   midi.NoteOffEvent(tick=455, channel=0, data=[65, 0]),
   midi.NoteOffEvent(tick=0, channel=0, data=[69, 0]),
   midi.NoteOnEvent(tick=25, channel=0, data=[63, 80]),
   midi.NoteOffEvent(tick=455, channel=0, data=[63, 0]),
   midi.NoteOnEvent(tick=25, channel=0, data=[58, 80]),
   midi.NoteOnEvent(tick=0, channel=0, data=[62, 80]),
   midi.NoteOffEvent(tick=227, channel=0, data=[58, 0]),
   midi.NoteOffEvent(tick=0, channel=0, data=[62, 0]),
   midi.NoteOnEvent(tick=253, channel=0, data=[74, 80]),
   midi.NoteOffEvent(tick=455, channel=0, data=[74, 0]),
   midi.NoteOnEvent(tick=25, channel=0, data=[74, 80]),
   midi.NoteOffEvent(tick=227, channel=0, data=[74, 0]),
   midi.NoteOnEvent(tick=13, channel=0, data=[74, 80]),
   midi.NoteOffEvent(tick=227, channel=0, data=[74, 0]),
   midi.NoteOnEvent(tick=13, channel=0, data=[76, 80]),
   midi.NoteOffEvent(tick=227, channel=0, data=[76, 0]),
   midi.NoteOnEvent(tick=13, channel=0, data=[77, 80]),
   midi.NoteOffEvent(tick=227, channel=0, data=[77, 0]),
   midi.NoteOnEvent(tick=13, channel=0, data=[65, 80]),
   midi.NoteOnEvent(tick=0, channel=0, data=[69, 80]),
   midi.NoteOnEvent(tick=0, channel=0, data=[72, 80]),
   midi.NoteOffEvent(tick=455, channel=0, data=[65, 0]),
   midi.NoteOffEvent(tick=0, channel=0, data=[69, 0]),
   midi.NoteOffEvent(tick=0, channel=0, data=[72, 0]),
   midi.NoteOnEvent(tick=25, channel=0, data=[72, 80]),
   midi.NoteOffEvent(tick=227, channel=0, data=[72, 0]),
   midi.NoteOnEvent(tick=13, channel=0, data=[79, 80]),
   midi.NoteOffEvent(tick=113, channel=0, data=[79, 0]),
   midi.NoteOnEvent(tick=7, channel=0, data=[69, 80]),
   midi.NoteOnEvent(tick=0, channel=0, data=[74, 80]),
   midi.NoteOnEvent(tick=0, channel=0, data=[77, 80]),
   midi.NoteOffEvent(tick=569, channel=0, data=[69, 0]),
   midi.NoteOffEvent(tick=0, channel=0, data=[74, 0]),
   midi.NoteOffEvent(tick=0, channel=0, data=[77, 0]),
   midi.NoteOnEvent(tick=271, channel=0, data=[77, 80]),
   midi.NoteOffEvent(tick=113, channel=0, data=[77, 0]),
   midi.NoteOnEvent(tick=7, channel=0, data=[79, 80]),
   midi.NoteOffEvent(tick=113, channel=0, data=[79, 0]),
   midi.NoteOnEvent(tick=7, channel=0, data=[70, 80]),
   midi.NoteOnEvent(tick=0, channel=0, data=[74, 80]),
   midi.NoteOnEvent(tick=0, channel=0, data=[81, 80]),
   midi.NoteOffEvent(tick=227, channel=0, data=[70, 0]),
   midi.NoteOffEvent(tick=0, channel=0, data=[74, 0]),
   midi.NoteOffEvent(tick=0, channel=0, data=[81, 0]),
   midi.NoteOnEvent(tick=13, channel=0, data=[89, 80]),
   midi.NoteOffEvent(tick=113, channel=0, data=[89, 0]),
   midi.NoteOnEvent(tick=7, channel=0, data=[91, 81]),
   midi.NoteOffEvent(tick=113, channel=0, data=[91, 0]),
   midi.NoteOnEvent(tick=7, channel=0, data=[93, 81]),
   midi.NoteOffEvent(tick=227, channel=0, data=[93, 0]),
   midi.NoteOnEvent(tick=13, channel=0, data=[77, 82]),
   midi.NoteOffEvent(tick=113, channel=0, data=[77, 0]),
   midi.NoteOnEvent(tick=7, channel=0, data=[79, 82]),
   midi.NoteOffEvent(tick=113, channel=0, data=[79, 0]),
   midi.NoteOnEvent(tick=7, channel=0, data=[72, 82]),
   midi.NoteOnEvent(tick=0, channel=0, data=[77, 82]),
   midi.NoteOnEvent(tick=0, channel=0, data=[81, 82]),
   midi.NoteOffEvent(tick=227, channel=0, data=[72, 0]),
   midi.NoteOffEvent(tick=0, channel=0, data=[77, 0]),
   midi.NoteOffEvent(tick=0, channel=0, data=[81, 0]),
   midi.NoteOnEvent(tick=13, channel=0, data=[89, 83]),
   midi.NoteOffEvent(tick=113, channel=0, data=[89, 0]),
   midi.NoteOnEvent(tick=7, channel=0, data=[91, 83]),
   midi.NoteOffEvent(tick=113, channel=0, data=[91, 0]),
   midi.NoteOnEvent(tick=7, channel=0, data=[93, 84]),
   midi.NoteOffEvent(tick=227, channel=0, data=[93, 0]),
   midi.NoteOnEvent(tick=13, channel=0, data=[77, 84]),
   midi.NoteOffEvent(tick=113, channel=0, data=[77, 0]),
   midi.NoteOnEvent(tick=7, channel=0, data=[79, 85]),
   midi.NoteOffEvent(tick=113, channel=0, data=[79, 0]),
   midi.NoteOnEvent(tick=7, channel=0, data=[71, 85]),
   midi.NoteOnEvent(tick=0, channel=0, data=[74, 85]),
   midi.NoteOnEvent(tick=0, channel=0, data=[81, 85]),
   midi.NoteOffEvent(tick=227, channel=0, data=[71, 0]),
   midi.NoteOffEvent(tick=0, channel=0, data=[74, 0]),
   midi.NoteOffEvent(tick=0, channel=0, data=[81, 0]),
   midi.NoteOnEvent(tick=13, channel=0, data=[89, 86]),
   midi.NoteOffEvent(tick=113, channel=0, data=[89, 0]),
   midi.NoteOnEvent(tick=7, channel=0, data=[91, 86]),
   midi.NoteOffEvent(tick=113, channel=0, data=[91, 0]),
   midi.NoteOnEvent(tick=7, channel=0, data=[93, 86]),
   midi.NoteOffEvent(tick=455, channel=0, data=[93, 0]),
   midi.NoteOnEvent(tick=265, channel=0, data=[74, 88]),
   midi.NoteOffEvent(tick=227, channel=0, data=[74, 0]),
   midi.NoteOnEvent(tick=13, channel=0, data=[76, 89]),
   midi.NoteOffEvent(tick=227, channel=0, data=[76, 0]),
   midi.NoteOnEvent(tick=13, channel=0, data=[77, 90]),
   midi.NoteOffEvent(tick=227, channel=0, data=[77, 0]),
   midi.NoteOnEvent(tick=13, channel=0, data=[74, 90]),
   midi.NoteOnEvent(tick=0, channel=0, data=[77, 90]),
   midi.NoteOnEvent(tick=0, channel=0, data=[81, 90]),
   midi.NoteOffEvent(tick=455, channel=0, data=[74, 0]),
   midi.NoteOffEvent(tick=0, channel=0, data=[77, 0]),
   midi.NoteOffEvent(tick=0, channel=0, data=[81, 0]),
   midi.NoteOnEvent(tick=25, channel=0, data=[62, 92]),
   midi.NoteOffEvent(tick=75, channel=0, data=[62, 0]),
   midi.NoteOnEvent(tick=5, channel=0, data=[65, 92]),
   midi.NoteOffEvent(tick=75, channel=0, data=[65, 0]),
   midi.NoteOnEvent(tick=5, channel=0, data=[70, 92]),
   midi.NoteOffEvent(tick=75, channel=0, data=[70, 0]),
   midi.NoteOnEvent(tick=5, channel=0, data=[74, 92]),
   midi.NoteOffEvent(tick=75, channel=0, data=[74, 0]),
   midi.NoteOnEvent(tick=5, channel=0, data=[77, 92]),
   midi.NoteOffEvent(tick=75, channel=0, data=[77, 0]),
   midi.NoteOnEvent(tick=5, channel=0, data=[82, 93]),
   midi.NoteOffEvent(tick=75, channel=0, data=[82, 0]),
   midi.NoteOnEvent(tick=5, channel=0, data=[86, 93]),
   midi.NoteOffEvent(tick=75, channel=0, data=[86, 0]),
   midi.NoteOnEvent(tick=5, channel=0, data=[89, 93]),
   midi.NoteOffEvent(tick=75, channel=0, data=[89, 0]),
   midi.NoteOnEvent(tick=5, channel=0, data=[94, 93]),
   midi.NoteOffEvent(tick=75, channel=0, data=[94, 0]),
   midi.NoteOnEvent(tick=5, channel=0, data=[98, 94]),
   midi.NoteOffEvent(tick=455, channel=0, data=[98, 0]),
   midi.NoteOnEvent(tick=25, channel=0, data=[82, 95]),
   midi.NoteOffEvent(tick=113, channel=0, data=[82, 0]),
   midi.NoteOnEvent(tick=7, channel=0, data=[79, 95]),
   midi.NoteOnEvent(tick=120, channel=0, data=[72, 96]),
   midi.NoteOnEvent(tick=0, channel=0, data=[84, 96]),
   midi.NoteOffEvent(tick=107, channel=0, data=[79, 0]),
   midi.NoteOffEvent(tick=6, channel=0, data=[72, 0]),
   midi.NoteOffEvent(tick=0, channel=0, data=[84, 0]),
   midi.NoteOnEvent(tick=7, channel=0, data=[72, 96]),
   midi.NoteOffEvent(tick=113, channel=0, data=[72, 0]),
   midi.NoteOnEvent(tick=7, channel=0, data=[77, 96]),
   midi.NoteOffEvent(tick=113, channel=0, data=[77, 0]),
   midi.NoteOnEvent(tick=7, channel=0, data=[79, 96]),
   midi.NoteOffEvent(tick=113, channel=0, data=[79, 0]),
   midi.NoteOnEvent(tick=7, channel=0, data=[72, 96]),
   midi.NoteOnEvent(tick=0, channel=0, data=[84, 96]),
   midi.NoteOffEvent(tick=455, channel=0, data=[72, 0]),
   midi.NoteOffEvent(tick=0, channel=0, data=[84, 0]),
   midi.NoteOnEvent(tick=25, channel=0, data=[60, 96]),
   midi.NoteOnEvent(tick=0, channel=0, data=[64, 96]),
   midi.NoteOffEvent(tick=226, channel=0, data=[60, 0]),
   midi.NoteOffEvent(tick=0, channel=0, data=[64, 0]),
   midi.NoteOnEvent(tick=14, channel=0, data=[74, 96]),
   midi.NoteOnEvent(tick=0, channel=0, data=[82, 96]),
   midi.NoteOnEvent(tick=0, channel=0, data=[86, 96]),
   midi.NoteOffEvent(tick=112, channel=0, data=[74, 0]),
   midi.NoteOffEvent(tick=0, channel=0, data=[82, 0]),
   midi.NoteOffEvent(tick=0, channel=0, data=[86, 0]),
   midi.NoteOnEvent(tick=8, channel=0, data=[72, 96]),
   midi.NoteOnEvent(tick=0, channel=0, data=[81, 96]),
   midi.NoteOnEvent(tick=0, channel=0, data=[84, 96]),
   midi.NoteOffEvent(tick=112, channel=0, data=[72, 0]),
   midi.NoteOffEvent(tick=0, channel=0, data=[81, 0]),
   midi.NoteOffEvent(tick=0, channel=0, data=[84, 0]),
   midi.NoteOnEvent(tick=8, channel=0, data=[76, 96]),
   midi.NoteOnEvent(tick=0, channel=0, data=[79, 96]),
   midi.NoteOffEvent(tick=226, channel=0, data=[76, 0]),
   midi.NoteOffEvent(tick=0, channel=0, data=[79, 0]),
   midi.NoteOnEvent(tick=14, channel=0, data=[60, 96]),
   midi.NoteOnEvent(tick=0, channel=0, data=[72, 96]),
   midi.NoteOffEvent(tick=226, channel=0, data=[60, 0]),
   midi.NoteOffEvent(tick=0, channel=0, data=[72, 0]),
   midi.NoteOnEvent(tick=14, channel=0, data=[69, 96]),
   midi.NoteOnEvent(tick=0, channel=0, data=[72, 96]),
   midi.NoteOnEvent(tick=0, channel=0, data=[77, 96]),
   midi.NoteOnEvent(tick=0, channel=0, data=[81, 96]),
   midi.NoteOffEvent(tick=226, channel=0, data=[69, 0]),
   midi.NoteOffEvent(tick=0, channel=0, data=[72, 0]),
   midi.NoteOffEvent(tick=0, channel=0, data=[77, 0]),
   midi.NoteOffEvent(tick=0, channel=0, data=[81, 0]),
   midi.NoteOnEvent(tick=14, channel=0, data=[69, 96]),
   midi.NoteOnEvent(tick=0, channel=0, data=[81, 96]),
   midi.NoteOffEvent(tick=454, channel=0, data=[69, 0]),
   midi.NoteOffEvent(tick=0, channel=0, data=[81, 0]),
   midi.NoteOnEvent(tick=26, channel=0, data=[70, 96]),
   midi.NoteOnEvent(tick=0, channel=0, data=[82, 96]),
   midi.NoteOffEvent(tick=112, channel=0, data=[70, 0]),
   midi.NoteOffEvent(tick=0, channel=0, data=[82, 0]),
   midi.NoteOnEvent(tick=8, channel=0, data=[69, 96]),
   midi.NoteOnEvent(tick=0, channel=0, data=[72, 96]),
   midi.NoteOnEvent(tick=0, channel=0, data=[81, 96]),
   midi.NoteOffEvent(tick=226, channel=0, data=[69, 0]),
   midi.NoteOffEvent(tick=0, channel=0, data=[72, 0]),
   midi.NoteOffEvent(tick=0, channel=0, data=[81, 0]),
   midi.NoteOnEvent(tick=14, channel=0, data=[69, 96]),
   midi.NoteOffEvent(tick=112, channel=0, data=[69, 0]),
   midi.NoteOnEvent(tick=8, channel=0, data=[72, 96]),
   midi.NoteOnEvent(tick=0, channel=0, data=[81, 96]),
   midi.NoteOffEvent(tick=112, channel=0, data=[72, 0]),
   midi.NoteOffEvent(tick=0, channel=0, data=[81, 0]),
   midi.NoteOnEvent(tick=8, channel=0, data=[81, 96]),
   midi.NoteOffEvent(tick=112, channel=0, data=[81, 0]),
   midi.NoteOnEvent(tick=8, channel=0, data=[84, 96]),
   midi.NoteOnEvent(tick=0, channel=0, data=[93, 96]),
   midi.NoteOffEvent(tick=226, channel=0, data=[84, 0]),
   midi.NoteOffEvent(tick=0, channel=0, data=[93, 0]),
   midi.NoteOnEvent(tick=14, channel=0, data=[65, 96]),
   midi.NoteOnEvent(tick=0, channel=0, data=[77, 96]),
   midi.NoteOffEvent(tick=226, channel=0, data=[65, 0]),
   midi.NoteOffEvent(tick=0, channel=0, data=[77, 0]),
   midi.NoteOnEvent(tick=14, channel=0, data=[67, 96]),
   midi.NoteOnEvent(tick=0, channel=0, data=[70, 96]),
   midi.NoteOnEvent(tick=0, channel=0, data=[76, 96]),
   midi.NoteOnEvent(tick=0, channel=0, data=[79, 96]),
   midi.NoteOffEvent(tick=226, channel=0, data=[67, 0]),
   midi.NoteOffEvent(tick=0, channel=0, data=[70, 0]),
   midi.NoteOffEvent(tick=0, channel=0, data=[76, 0]),
   midi.NoteOffEvent(tick=0, channel=0, data=[79, 0]),
   midi.NoteOnEvent(tick=14, channel=0, data=[67, 96]),
   midi.NoteOnEvent(tick=0, channel=0, data=[79, 96]),
   midi.NoteOffEvent(tick=454, channel=0, data=[67, 0]),
   midi.NoteOffEvent(tick=0, channel=0, data=[79, 0]),
   midi.NoteOnEvent(tick=26, channel=0, data=[69, 96]),
   midi.NoteOnEvent(tick=0, channel=0, data=[81, 96]),
   midi.NoteOffEvent(tick=112, channel=0, data=[69, 0]),
   midi.NoteOffEvent(tick=0, channel=0, data=[81, 0]),
   midi.NoteOnEvent(tick=8, channel=0, data=[67, 96]),
   midi.NoteOnEvent(tick=0, channel=0, data=[79, 96]),
   midi.NoteOnEvent(tick=120, channel=0, data=[72, 96]),
   midi.NoteOffEvent(tick=220, channel=0, data=[67, 0]),
   midi.NoteOffEvent(tick=0, channel=0, data=[79, 0]),
   midi.NoteOffEvent(tick=6, channel=0, data=[72, 0]),
   midi.NoteOnEvent(tick=14, channel=0, data=[73, 96]),
   midi.NoteOffEvent(tick=226, channel=0, data=[73, 0]),
   midi.NoteOnEvent(tick=14, channel=0, data=[65, 96]),
   midi.NoteOnEvent(tick=0, channel=0, data=[77, 96]),
   midi.NoteOffEvent(tick=227, channel=0, data=[65, 0]),
   midi.NoteOffEvent(tick=0, channel=0, data=[77, 0]),
   midi.NoteOnEvent(tick=13, channel=0, data=[64, 96]),
   midi.NoteOnEvent(tick=0, channel=0, data=[76, 96]),
   midi.NoteOffEvent(tick=227, channel=0, data=[64, 0]),
   midi.NoteOffEvent(tick=0, channel=0, data=[76, 0]),
   midi.NoteOnEvent(tick=13, channel=0, data=[69, 96]),
   midi.NoteOnEvent(tick=0, channel=0, data=[77, 96]),
   midi.NoteOffEvent(tick=113, channel=0, data=[69, 0]),
   midi.NoteOffEvent(tick=0, channel=0, data=[77, 0]),
   midi.NoteOnEvent(tick=7, channel=0, data=[65, 96]),
   midi.NoteOffEvent(tick=113, channel=0, data=[65, 0]),
   midi.NoteOnEvent(tick=7, channel=0, data=[69, 96]),
   midi.NoteOnEvent(tick=0, channel=0, data=[77, 96]),
   midi.NoteOffEvent(tick=113, channel=0, data=[69, 0]),
   midi.NoteOffEvent(tick=0, channel=0, data=[77, 0]),
   midi.NoteOnEvent(tick=7, channel=0, data=[77, 96]),
   midi.NoteOffEvent(tick=113, channel=0, data=[77, 0]),
   midi.NoteOnEvent(tick=7, channel=0, data=[81, 96]),
   midi.NoteOnEvent(tick=0, channel=0, data=[89, 96]),
   midi.NoteOffEvent(tick=227, channel=0, data=[81, 0]),
   midi.NoteOffEvent(tick=0, channel=0, data=[89, 0]),
   midi.NoteOnEvent(tick=13, channel=0, data=[65, 96]),
   midi.NoteOnEvent(tick=0, channel=0, data=[77, 96]),
   midi.NoteOffEvent(tick=227, channel=0, data=[65, 0]),
   midi.NoteOffEvent(tick=0, channel=0, data=[77, 0]),
   midi.NoteOnEvent(tick=13, channel=0, data=[67, 96]),
   midi.NoteOnEvent(tick=0, channel=0, data=[72, 96]),
   midi.NoteOnEvent(tick=0, channel=0, data=[79, 96]),
   midi.NoteOffEvent(tick=227, channel=0, data=[67, 0]),
   midi.NoteOffEvent(tick=0, channel=0, data=[72, 0]),
   midi.NoteOffEvent(tick=0, channel=0, data=[79, 0]),
   midi.NoteOnEvent(tick=13, channel=0, data=[65, 96]),
   midi.NoteOnEvent(tick=0, channel=0, data=[77, 96]),
   midi.NoteOffEvent(tick=227, channel=0, data=[65, 0]),
   midi.NoteOffEvent(tick=0, channel=0, data=[77, 0]),
   midi.NoteOnEvent(tick=13, channel=0, data=[64, 96]),
   midi.NoteOnEvent(tick=0, channel=0, data=[76, 96]),
   midi.NoteOffEvent(tick=227, channel=0, data=[64, 0]),
   midi.NoteOffEvent(tick=0, channel=0, data=[76, 0]),
   midi.NoteOnEvent(tick=13, channel=0, data=[65, 96]),
   midi.NoteOnEvent(tick=0, channel=0, data=[77, 96]),
   midi.NoteOffEvent(tick=227, channel=0, data=[65, 0]),
   midi.NoteOffEvent(tick=0, channel=0, data=[77, 0]),
   midi.NoteOnEvent(tick=13, channel=0, data=[74, 96]),
   midi.NoteOnEvent(tick=0, channel=0, data=[81, 96]),
   midi.NoteOffEvent(tick=113, channel=0, data=[74, 0]),
   midi.NoteOffEvent(tick=0, channel=0, data=[81, 0]),
   midi.NoteOnEvent(tick=7, channel=0, data=[69, 96]),
   midi.NoteOffEvent(tick=113, channel=0, data=[69, 0]),
   midi.NoteOnEvent(tick=7, channel=0, data=[74, 96]),
   midi.NoteOnEvent(tick=0, channel=0, data=[81, 96]),
   midi.NoteOffEvent(tick=113, channel=0, data=[74, 0]),
   midi.NoteOffEvent(tick=0, channel=0, data=[81, 0]),
   midi.NoteOnEvent(tick=7, channel=0, data=[81, 96]),
   midi.NoteOffEvent(tick=113, channel=0, data=[81, 0]),
   midi.NoteOnEvent(tick=7, channel=0, data=[86, 96]),
   midi.NoteOnEvent(tick=0, channel=0, data=[93, 96]),
   midi.NoteOffEvent(tick=227, channel=0, data=[86, 0]),
   midi.NoteOffEvent(tick=0, channel=0, data=[93, 0]),
   midi.NoteOnEvent(tick=13, channel=0, data=[71, 96]),
   midi.NoteOffEvent(tick=227, channel=0, data=[71, 0]),
   midi.NoteOnEvent(tick=13, channel=0, data=[74, 96]),
   midi.NoteOnEvent(tick=0, channel=0, data=[77, 96]),
   midi.NoteOffEvent(tick=227, channel=0, data=[74, 0]),
   midi.NoteOffEvent(tick=0, channel=0, data=[77, 0]),
   midi.NoteOnEvent(tick=13, channel=0, data=[76, 96]),
   midi.NoteOffEvent(tick=227, channel=0, data=[76, 0]),
   midi.NoteOnEvent(tick=13, channel=0, data=[74, 96]),
   midi.NoteOffEvent(tick=227, channel=0, data=[74, 0]),
   midi.NoteOnEvent(tick=13, channel=0, data=[71, 96]),
   midi.NoteOffEvent(tick=227, channel=0, data=[71, 0]),
   midi.NoteOnEvent(tick=13, channel=0, data=[65, 96]),
   midi.NoteOnEvent(tick=0, channel=0, data=[70, 96]),
   midi.NoteOffEvent(tick=341, channel=0, data=[65, 0]),
   midi.NoteOffEvent(tick=0, channel=0, data=[70, 0]),
   midi.NoteOnEvent(tick=19, channel=0, data=[74, 96]),
   midi.NoteOffEvent(tick=113, channel=0, data=[74, 0]),
   midi.NoteOnEvent(tick=7, channel=0, data=[65, 96]),
   midi.NoteOnEvent(tick=0, channel=0, data=[70, 96]),
   midi.NoteOnEvent(tick=0, channel=0, data=[74, 96]),
   midi.NoteOffEvent(tick=113, channel=0, data=[65, 0]),
   midi.NoteOffEvent(tick=0, channel=0, data=[70, 0]),
   midi.NoteOffEvent(tick=0, channel=0, data=[74, 0]),
   midi.NoteOnEvent(tick=7, channel=0, data=[76, 96]),
   midi.NoteOffEvent(tick=113, channel=0, data=[76, 0]),
   midi.NoteOnEvent(tick=7, channel=0, data=[77, 96]),
   midi.NoteOffEvent(tick=227, channel=0, data=[77, 0]),
   midi.NoteOnEvent(tick=13, channel=0, data=[72, 96]),
   midi.NoteOnEvent(tick=0, channel=0, data=[76, 96]),
   midi.NoteOnEvent(tick=0, channel=0, data=[79, 96]),
   midi.NoteOffEvent(tick=227, channel=0, data=[72, 0]),
   midi.NoteOffEvent(tick=0, channel=0, data=[76, 0]),
   midi.NoteOffEvent(tick=0, channel=0, data=[79, 0]),
   midi.NoteOnEvent(tick=13, channel=0, data=[72, 96]),
   midi.NoteOffEvent(tick=113, channel=0, data=[72, 0]),
   midi.NoteOnEvent(tick=7, channel=0, data=[79, 96]),
   midi.NoteOnEvent(tick=0, channel=0, data=[84, 96]),
   midi.NoteOffEvent(tick=113, channel=0, data=[79, 0]),
   midi.NoteOffEvent(tick=0, channel=0, data=[84, 0]),
   midi.NoteOnEvent(tick=7, channel=0, data=[72, 96]),
   midi.NoteOffEvent(tick=113, channel=0, data=[72, 0]),
   midi.NoteOnEvent(tick=7, channel=0, data=[76, 96]),
   midi.NoteOnEvent(tick=0, channel=0, data=[79, 96]),
   midi.NoteOffEvent(tick=113, channel=0, data=[76, 0]),
   midi.NoteOffEvent(tick=0, channel=0, data=[79, 0]),
   midi.NoteOnEvent(tick=7, channel=0, data=[72, 96]),
   midi.NoteOffEvent(tick=227, channel=0, data=[72, 0]),
   midi.NoteOnEvent(tick=13, channel=0, data=[69, 96]),
   midi.NoteOnEvent(tick=0, channel=0, data=[72, 96]),
   midi.NoteOnEvent(tick=0, channel=0, data=[76, 96]),
   midi.NoteOnEvent(tick=0, channel=0, data=[81, 96]),
   midi.NoteOffEvent(tick=227, channel=0, data=[69, 0]),
   midi.NoteOffEvent(tick=0, channel=0, data=[72, 0]),
   midi.NoteOffEvent(tick=0, channel=0, data=[76, 0]),
   midi.NoteOffEvent(tick=0, channel=0, data=[81, 0]),
   midi.NoteOnEvent(tick=13, channel=0, data=[69, 96]),
   midi.NoteOnEvent(tick=0, channel=0, data=[81, 96]),
   midi.NoteOffEvent(tick=227, channel=0, data=[69, 0]),
   midi.NoteOffEvent(tick=0, channel=0, data=[81, 0]),
   midi.NoteOnEvent(tick=13, channel=0, data=[67, 96]),
   midi.NoteOnEvent(tick=0, channel=0, data=[73, 96]),
   midi.NoteOnEvent(tick=0, channel=0, data=[76, 96]),
   midi.NoteOnEvent(tick=0, channel=0, data=[79, 96]),
   midi.NoteOffEvent(tick=227, channel=0, data=[67, 0]),
   midi.NoteOffEvent(tick=0, channel=0, data=[73, 0]),
   midi.NoteOffEvent(tick=0, channel=0, data=[76, 0]),
   midi.NoteOffEvent(tick=0, channel=0, data=[79, 0]),
   midi.NoteOnEvent(tick=13, channel=0, data=[67, 96]),
   midi.NoteOnEvent(tick=0, channel=0, data=[79, 96]),
   midi.NoteOffEvent(tick=113, channel=0, data=[67, 0]),
   midi.NoteOffEvent(tick=0, channel=0, data=[79, 0]),
   midi.NoteOnEvent(tick=7, channel=0, data=[65, 96]),
   midi.NoteOnEvent(tick=0, channel=0, data=[77, 96]),
   midi.NoteOffEvent(tick=113, channel=0, data=[77, 0]),
   midi.NoteOnEvent(tick=7, channel=0, data=[72, 96]),
   midi.NoteOnEvent(tick=0, channel=0, data=[76, 96]),
   midi.NoteOffEvent(tick=107, channel=0, data=[65, 0]),
   midi.NoteOffEvent(tick=6, channel=0, data=[72, 0]),
   midi.NoteOffEvent(tick=0, channel=0, data=[76, 0]),
   midi.NoteOnEvent(tick=7, channel=0, data=[77, 96]),
   midi.NoteOffEvent(tick=113, channel=0, data=[77, 0]),
   midi.NoteOnEvent(tick=7, channel=0, data=[76, 96]),
   midi.NoteOffEvent(tick=113, channel=0, data=[76, 0]),
   midi.NoteOnEvent(tick=7, channel=0, data=[77, 96]),
   midi.NoteOffEvent(tick=113, channel=0, data=[77, 0]),
   midi.NoteOnEvent(tick=127, channel=0, data=[69, 96]),
   midi.NoteOnEvent(tick=0, channel=0, data=[72, 96]),
   midi.NoteOnEvent(tick=0, channel=0, data=[76, 96]),
   midi.NoteOffEvent(tick=341, channel=0, data=[69, 0]),
   midi.NoteOffEvent(tick=0, channel=0, data=[72, 0]),
   midi.NoteOffEvent(tick=0, channel=0, data=[76, 0]),
   midi.NoteOnEvent(tick=19, channel=0, data=[62, 96]),
   midi.NoteOnEvent(tick=0, channel=0, data=[65, 96]),
   midi.NoteOnEvent(tick=0, channel=0, data=[70, 96]),
   midi.NoteOffEvent(tick=341, channel=0, data=[62, 0]),
   midi.NoteOffEvent(tick=0, channel=0, data=[65, 0]),
   midi.NoteOffEvent(tick=0, channel=0, data=[70, 0]),
   midi.NoteOnEvent(tick=19, channel=0, data=[62, 96]),
   midi.NoteOnEvent(tick=0, channel=0, data=[74, 96]),
   midi.NoteOffEvent(tick=113, channel=0, data=[62, 0]),
   midi.NoteOffEvent(tick=0, channel=0, data=[74, 0]),
   midi.NoteOnEvent(tick=7, channel=0, data=[62, 96]),
   midi.NoteOnEvent(tick=0, channel=0, data=[74, 96]),
   midi.NoteOffEvent(tick=113, channel=0, data=[62, 0]),
   midi.NoteOffEvent(tick=0, channel=0, data=[74, 0]),
   midi.NoteOnEvent(tick=7, channel=0, data=[64, 96]),
   midi.NoteOnEvent(tick=0, channel=0, data=[76, 96]),
   midi.NoteOffEvent(tick=113, channel=0, data=[64, 0]),
   midi.NoteOffEvent(tick=0, channel=0, data=[76, 0]),
   midi.NoteOnEvent(tick=7, channel=0, data=[65, 96]),
   midi.NoteOnEvent(tick=0, channel=0, data=[77, 96]),
   midi.NoteOffEvent(tick=227, channel=0, data=[65, 0]),
   midi.NoteOffEvent(tick=0, channel=0, data=[77, 0]),
   midi.NoteOnEvent(tick=13, channel=0, data=[67, 96]),
   midi.NoteOnEvent(tick=0, channel=0, data=[72, 96]),
   midi.NoteOnEvent(tick=0, channel=0, data=[76, 96]),
   midi.NoteOnEvent(tick=0, channel=0, data=[79, 96]),
   midi.NoteOffEvent(tick=227, channel=0, data=[67, 0]),
   midi.NoteOffEvent(tick=0, channel=0, data=[72, 0]),
   midi.NoteOffEvent(tick=0, channel=0, data=[76, 0]),
   midi.NoteOffEvent(tick=0, channel=0, data=[79, 0]),
   midi.NoteOnEvent(tick=13, channel=0, data=[65, 96]),
   midi.NoteOnEvent(tick=0, channel=0, data=[77, 96]),
   midi.NoteOffEvent(tick=227, channel=0, data=[65, 0]),
   midi.NoteOffEvent(tick=0, channel=0, data=[77, 0]),
   midi.NoteOnEvent(tick=13, channel=0, data=[64, 96]),
   midi.NoteOnEvent(tick=0, channel=0, data=[76, 96]),
   midi.NoteOffEvent(tick=227, channel=0, data=[64, 0]),
   midi.NoteOffEvent(tick=0, channel=0, data=[76, 0]),
   midi.NoteOnEvent(tick=13, channel=0, data=[65, 96]),
   midi.NoteOnEvent(tick=0, channel=0, data=[77, 96]),
   midi.NoteOffEvent(tick=113, channel=0, data=[65, 0]),
   midi.NoteOffEvent(tick=0, channel=0, data=[77, 0]),
   midi.NoteOnEvent(tick=7, channel=0, data=[65, 96]),
   midi.NoteOnEvent(tick=0, channel=0, data=[77, 96]),
   midi.NoteOffEvent(tick=113, channel=0, data=[65, 0]),
   midi.NoteOnEvent(tick=7, channel=0, data=[65, 96]),
   midi.NoteOnEvent(tick=0, channel=0, data=[70, 96]),
   midi.NoteOffEvent(tick=449, channel=0, data=[77, 0]),
   midi.NoteOffEvent(tick=6, channel=0, data=[65, 0]),
   midi.NoteOffEvent(tick=0, channel=0, data=[70, 0]),
   midi.NoteOnEvent(tick=25, channel=0, data=[65, 96]),
   midi.NoteOnEvent(tick=0, channel=0, data=[70, 96]),
   midi.NoteOffEvent(tick=113, channel=0, data=[65, 0]),
   midi.NoteOffEvent(tick=0, channel=0, data=[70, 0]),
   midi.NoteOnEvent(tick=127, channel=0, data=[60, 96]),
   midi.NoteOnEvent(tick=0, channel=0, data=[65, 96]),
   midi.NoteOnEvent(tick=0, channel=0, data=[69, 96]),
   midi.NoteOffEvent(tick=455, channel=0, data=[60, 0]),
   midi.NoteOffEvent(tick=0, channel=0, data=[65, 0]),
   midi.NoteOffEvent(tick=0, channel=0, data=[69, 0]),
   midi.NoteOnEvent(tick=385, channel=0, data=[60, 96]),
   midi.NoteOffEvent(tick=113, channel=0, data=[60, 0]),
   midi.NoteOnEvent(tick=7, channel=0, data=[65, 96]),
   midi.NoteOffEvent(tick=113, channel=0, data=[65, 0]),
   midi.NoteOnEvent(tick=7, channel=0, data=[69, 96]),
   midi.NoteOffEvent(tick=113, channel=0, data=[69, 0]),
   midi.NoteOnEvent(tick=7, channel=0, data=[74, 96]),
   midi.NoteOffEvent(tick=59, channel=0, data=[74, 0]),
   midi.NoteOnEvent(tick=61, channel=0, data=[69, 96]),
   midi.NoteOffEvent(tick=59, channel=0, data=[69, 0]),
   midi.NoteOnEvent(tick=61, channel=0, data=[74, 96]),
   midi.NoteOffEvent(tick=59, channel=0, data=[74, 0]),
   midi.NoteOnEvent(tick=61, channel=0, data=[69, 96]),
   midi.NoteOffEvent(tick=59, channel=0, data=[69, 0]),
   midi.NoteOnEvent(tick=61, channel=0, data=[81, 96]),
   midi.NoteOffEvent(tick=59, channel=0, data=[81, 0]),
   midi.NoteOnEvent(tick=61, channel=0, data=[69, 96]),
   midi.NoteOffEvent(tick=59, channel=0, data=[69, 0]),
   midi.NoteOnEvent(tick=61, channel=0, data=[74, 96]),
   midi.NoteOffEvent(tick=59, channel=0, data=[74, 0]),
   midi.NoteOnEvent(tick=61, channel=0, data=[69, 96]),
   midi.NoteOffEvent(tick=59, channel=0, data=[69, 0]),
   midi.NoteOnEvent(tick=61, channel=0, data=[76, 96]),
   midi.NoteOffEvent(tick=59, channel=0, data=[76, 0]),
   midi.NoteOnEvent(tick=61, channel=0, data=[69, 96]),
   midi.NoteOffEvent(tick=59, channel=0, data=[69, 0]),
   midi.NoteOnEvent(tick=61, channel=0, data=[74, 96]),
   midi.NoteOffEvent(tick=59, channel=0, data=[74, 0]),
   midi.NoteOnEvent(tick=61, channel=0, data=[69, 96]),
   midi.NoteOffEvent(tick=59, channel=0, data=[69, 0]),
   midi.NoteOnEvent(tick=61, channel=0, data=[81, 96]),
   midi.NoteOffEvent(tick=59, channel=0, data=[81, 0]),
   midi.NoteOnEvent(tick=61, channel=0, data=[69, 96]),
   midi.NoteOffEvent(tick=59, channel=0, data=[69, 0]),
   midi.NoteOnEvent(tick=61, channel=0, data=[74, 96]),
   midi.NoteOffEvent(tick=59, channel=0, data=[74, 0]),
   midi.NoteOnEvent(tick=61, channel=0, data=[69, 96]),
   midi.NoteOffEvent(tick=59, channel=0, data=[69, 0]),
   midi.NoteOnEvent(tick=61, channel=0, data=[77, 96]),
   midi.NoteOffEvent(tick=59, channel=0, data=[77, 0]),
   midi.NoteOnEvent(tick=61, channel=0, data=[69, 96]),
   midi.NoteOffEvent(tick=59, channel=0, data=[69, 0]),
   midi.NoteOnEvent(tick=61, channel=0, data=[81, 96]),
   midi.NoteOffEvent(tick=59, channel=0, data=[81, 0]),
   midi.NoteOnEvent(tick=61, channel=0, data=[69, 96]),
   midi.NoteOffEvent(tick=59, channel=0, data=[69, 0]),
   midi.NoteOnEvent(tick=61, channel=0, data=[77, 96]),
   midi.NoteOffEvent(tick=59, channel=0, data=[77, 0]),
   midi.NoteOnEvent(tick=61, channel=0, data=[69, 96]),
   midi.NoteOffEvent(tick=59, channel=0, data=[69, 0]),
   midi.NoteOnEvent(tick=61, channel=0, data=[74, 96]),
   midi.NoteOffEvent(tick=59, channel=0, data=[74, 0]),
   midi.NoteOnEvent(tick=61, channel=0, data=[69, 96]),
   midi.NoteOffEvent(tick=59, channel=0, data=[69, 0]),
   midi.NoteOnEvent(tick=61, channel=0, data=[81, 96]),
   midi.NoteOffEvent(tick=59, channel=0, data=[81, 0]),
   midi.NoteOnEvent(tick=61, channel=0, data=[69, 96]),
   midi.NoteOffEvent(tick=59, channel=0, data=[69, 0]),
   midi.NoteOnEvent(tick=61, channel=0, data=[77, 96]),
   midi.NoteOffEvent(tick=59, channel=0, data=[77, 0]),
   midi.NoteOnEvent(tick=61, channel=0, data=[69, 96]),
   midi.NoteOffEvent(tick=59, channel=0, data=[69, 0]),
   midi.NoteOnEvent(tick=61, channel=0, data=[65, 96]),
   midi.NoteOffEvent(tick=59, channel=0, data=[65, 0]),
   midi.NoteOnEvent(tick=61, channel=0, data=[69, 96]),
   midi.NoteOffEvent(tick=59, channel=0, data=[69, 0]),
   midi.NoteOnEvent(tick=61, channel=0, data=[74, 96]),
   midi.NoteOffEvent(tick=59, channel=0, data=[74, 0]),
   midi.NoteOnEvent(tick=61, channel=0, data=[69, 96]),
   midi.NoteOffEvent(tick=59, channel=0, data=[69, 0]),
   midi.NoteOnEvent(tick=61, channel=0, data=[74, 96]),
   midi.NoteOffEvent(tick=59, channel=0, data=[74, 0]),
   midi.NoteOnEvent(tick=61, channel=0, data=[69, 96]),
   midi.NoteOffEvent(tick=59, channel=0, data=[69, 0]),
   midi.NoteOnEvent(tick=61, channel=0, data=[74, 96]),
   midi.NoteOffEvent(tick=59, channel=0, data=[74, 0]),
   midi.NoteOnEvent(tick=61, channel=0, data=[69, 96]),
   midi.NoteOffEvent(tick=59, channel=0, data=[69, 0]),
   midi.NoteOnEvent(tick=61, channel=0, data=[77, 96]),
   midi.NoteOnEvent(tick=0, channel=0, data=[81, 96]),
   midi.NoteOffEvent(tick=59, channel=0, data=[77, 0]),
   midi.NoteOffEvent(tick=0, channel=0, data=[81, 0]),
   midi.NoteOnEvent(tick=61, channel=0, data=[69, 96]),
   midi.NoteOffEvent(tick=59, channel=0, data=[69, 0]),
   midi.NoteOnEvent(tick=61, channel=0, data=[74, 96]),
   midi.NoteOffEvent(tick=59, channel=0, data=[74, 0]),
   midi.NoteOnEvent(tick=61, channel=0, data=[69, 96]),
   midi.NoteOffEvent(tick=59, channel=0, data=[69, 0]),
   midi.NoteOnEvent(tick=61, channel=0, data=[72, 96]),
   midi.NoteOnEvent(tick=0, channel=0, data=[76, 96]),
   midi.NoteOffEvent(tick=59, channel=0, data=[72, 0]),
   midi.NoteOffEvent(tick=0, channel=0, data=[76, 0]),
   midi.NoteOnEvent(tick=61, channel=0, data=[69, 96]),
   midi.NoteOffEvent(tick=59, channel=0, data=[69, 0]),
   midi.NoteOnEvent(tick=61, channel=0, data=[74, 96]),
   midi.NoteOffEvent(tick=59, channel=0, data=[74, 0]),
   midi.NoteOnEvent(tick=61, channel=0, data=[69, 96]),
   midi.NoteOffEvent(tick=59, channel=0, data=[69, 0]),
   midi.NoteOnEvent(tick=61, channel=0, data=[76, 96]),
   midi.NoteOnEvent(tick=0, channel=0, data=[81, 96]),
   midi.NoteOffEvent(tick=59, channel=0, data=[76, 0]),
   midi.NoteOffEvent(tick=0, channel=0, data=[81, 0]),
   midi.NoteOnEvent(tick=61, channel=0, data=[69, 96]),
   midi.NoteOffEvent(tick=59, channel=0, data=[69, 0]),
   midi.NoteOnEvent(tick=61, channel=0, data=[74, 96]),
   midi.NoteOffEvent(tick=59, channel=0, data=[74, 0]),
   midi.NoteOnEvent(tick=61, channel=0, data=[69, 96]),
   midi.NoteOffEvent(tick=59, channel=0, data=[69, 0]),
   midi.NoteOnEvent(tick=61, channel=0, data=[74, 96]),
   midi.NoteOnEvent(tick=0, channel=0, data=[77, 96]),
   midi.NoteOffEvent(tick=59, channel=0, data=[74, 0]),
   midi.NoteOffEvent(tick=0, channel=0, data=[77, 0]),
   midi.NoteOnEvent(tick=61, channel=0, data=[69, 96]),
   midi.NoteOffEvent(tick=59, channel=0, data=[69, 0]),
   midi.NoteOnEvent(tick=61, channel=0, data=[77, 96]),
   midi.NoteOnEvent(tick=0, channel=0, data=[81, 96]),
   midi.NoteOffEvent(tick=59, channel=0, data=[77, 0]),
   midi.NoteOffEvent(tick=0, channel=0, data=[81, 0]),
   midi.NoteOnEvent(tick=61, channel=0, data=[69, 96]),
   midi.NoteOffEvent(tick=59, channel=0, data=[69, 0]),
   midi.NoteOnEvent(tick=61, channel=0, data=[74, 96]),
   midi.NoteOnEvent(tick=0, channel=0, data=[77, 96]),
   midi.NoteOffEvent(tick=59, channel=0, data=[74, 0]),
   midi.NoteOffEvent(tick=0, channel=0, data=[77, 0]),
   midi.NoteOnEvent(tick=61, channel=0, data=[69, 96]),
   midi.NoteOffEvent(tick=59, channel=0, data=[69, 0]),
   midi.NoteOnEvent(tick=61, channel=0, data=[74, 96]),
   midi.NoteOffEvent(tick=59, channel=0, data=[74, 0]),
   midi.NoteOnEvent(tick=61, channel=0, data=[69, 96]),
   midi.NoteOffEvent(tick=59, channel=0, data=[69, 0]),
   midi.NoteOnEvent(tick=61, channel=0, data=[77, 96]),
   midi.NoteOnEvent(tick=0, channel=0, data=[81, 96]),
   midi.NoteOffEvent(tick=59, channel=0, data=[77, 0]),
   midi.NoteOffEvent(tick=0, channel=0, data=[81, 0]),
   midi.NoteOnEvent(tick=61, channel=0, data=[69, 96]),
   midi.NoteOffEvent(tick=59, channel=0, data=[69, 0]),
   midi.NoteOnEvent(tick=61, channel=0, data=[74, 96]),
   midi.NoteOnEvent(tick=0, channel=0, data=[77, 96]),
   midi.NoteOffEvent(tick=59, channel=0, data=[74, 0]),
   midi.NoteOffEvent(tick=0, channel=0, data=[77, 0]),
   midi.NoteOnEvent(tick=61, channel=0, data=[69, 96]),
   midi.NoteOffEvent(tick=59, channel=0, data=[69, 0]),
   midi.NoteOnEvent(tick=61, channel=0, data=[65, 96]),
   midi.NoteOffEvent(tick=59, channel=0, data=[65, 0]),
   midi.NoteOnEvent(tick=61, channel=0, data=[69, 96]),
   midi.NoteOffEvent(tick=59, channel=0, data=[69, 0]),
   midi.NoteOnEvent(tick=61, channel=0, data=[89, 96]),
   midi.NoteOffEvent(tick=113, channel=0, data=[89, 0]),
   midi.NoteOnEvent(tick=7, channel=0, data=[88, 96]),
   midi.NoteOffEvent(tick=113, channel=0, data=[88, 0]),
   midi.NoteOnEvent(tick=7, channel=0, data=[86, 80]),
   midi.NoteOnEvent(tick=0, channel=0, data=[89, 80]),
   midi.NoteOffEvent(tick=455, channel=0, data=[86, 0]),
   midi.NoteOffEvent(tick=0, channel=0, data=[89, 0]),
   midi.NoteOnEvent(tick=25, channel=0, data=[89, 80]),
   midi.NoteOnEvent(tick=0, channel=0, data=[93, 80]),
   midi.NoteOffEvent(tick=455, channel=0, data=[89, 0]),
   midi.NoteOffEvent(tick=0, channel=0, data=[93, 0]),
   midi.NoteOnEvent(tick=25, channel=0, data=[81, 80]),
   midi.NoteOnEvent(tick=0, channel=0, data=[88, 80]),
   midi.NoteOffEvent(tick=455, channel=0, data=[81, 0]),
   midi.NoteOffEvent(tick=0, channel=0, data=[88, 0]),
   midi.NoteOnEvent(tick=265, channel=0, data=[86, 80]),
   midi.NoteOffEvent(tick=113, channel=0, data=[86, 0]),
   midi.NoteOnEvent(tick=7, channel=0, data=[84, 80]),
   midi.NoteOffEvent(tick=113, channel=0, data=[84, 0]),
   midi.NoteOnEvent(tick=7, channel=0, data=[82, 80]),
   midi.NoteOnEvent(tick=0, channel=0, data=[86, 80]),
   midi.NoteOffEvent(tick=455, channel=0, data=[82, 0]),
   midi.NoteOffEvent(tick=0, channel=0, data=[86, 0]),
   midi.NoteOnEvent(tick=25, channel=0, data=[86, 80]),
   midi.NoteOnEvent(tick=0, channel=0, data=[89, 80]),
   midi.NoteOffEvent(tick=455, channel=0, data=[86, 0]),
   midi.NoteOffEvent(tick=0, channel=0, data=[89, 0]),
   midi.NoteOnEvent(tick=25, channel=0, data=[89, 80]),
   midi.NoteOnEvent(tick=0, channel=0, data=[93, 80]),
   midi.NoteOffEvent(tick=683, channel=0, data=[89, 0]),
   midi.NoteOffEvent(tick=0, channel=0, data=[93, 0]),
   midi.NoteOnEvent(tick=37, channel=0, data=[94, 80]),
   midi.NoteOffEvent(tick=113, channel=0, data=[94, 0]),
   midi.NoteOnEvent(tick=7, channel=0, data=[93, 80]),
   midi.NoteOffEvent(tick=113, channel=0, data=[93, 0]),
   midi.NoteOnEvent(tick=7, channel=0, data=[91, 80]),
   midi.NoteOnEvent(tick=0, channel=0, data=[94, 80]),
   midi.NoteOffEvent(tick=455, channel=0, data=[91, 0]),
   midi.NoteOffEvent(tick=0, channel=0, data=[94, 0]),
   midi.NoteOnEvent(tick=25, channel=0, data=[94, 80]),
   midi.NoteOnEvent(tick=0, channel=0, data=[98, 80]),
   midi.NoteOffEvent(tick=455, channel=0, data=[94, 0]),
   midi.NoteOffEvent(tick=0, channel=0, data=[98, 0]),
   midi.NoteOnEvent(tick=25, channel=0, data=[89, 80]),
   midi.NoteOnEvent(tick=0, channel=0, data=[93, 80]),
   midi.NoteOffEvent(tick=683, channel=0, data=[89, 0]),
   midi.NoteOffEvent(tick=0, channel=0, data=[93, 0]),
   midi.NoteOnEvent(tick=37, channel=0, data=[91, 80]),
   midi.NoteOffEvent(tick=113, channel=0, data=[91, 0]),
   midi.NoteOnEvent(tick=7, channel=0, data=[89, 80]),
   midi.NoteOffEvent(tick=113, channel=0, data=[89, 0]),
   midi.NoteOnEvent(tick=7, channel=0, data=[86, 80]),
   midi.NoteOnEvent(tick=0, channel=0, data=[91, 80]),
   midi.NoteOffEvent(tick=455, channel=0, data=[86, 0]),
   midi.NoteOffEvent(tick=0, channel=0, data=[91, 0]),
   midi.NoteOnEvent(tick=25, channel=0, data=[83, 80]),
   midi.NoteOnEvent(tick=0, channel=0, data=[86, 80]),
   midi.NoteOffEvent(tick=227, channel=0, data=[83, 0]),
   midi.NoteOffEvent(tick=0, channel=0, data=[86, 0]),
   midi.NoteOnEvent(tick=253, channel=0, data=[85, 80]),
   midi.NoteOnEvent(tick=0, channel=0, data=[88, 80]),
   midi.NoteOnEvent(tick=0, channel=0, data=[93, 80]),
   midi.NoteOffEvent(tick=683, channel=0, data=[85, 0]),
   midi.NoteOffEvent(tick=0, channel=0, data=[88, 0]),
   midi.NoteOffEvent(tick=0, channel=0, data=[93, 0]),
   midi.NoteOnEvent(tick=37, channel=0, data=[89, 80]),
   midi.NoteOffEvent(tick=113, channel=0, data=[89, 0]),
   midi.NoteOnEvent(tick=7, channel=0, data=[88, 80]),
   midi.NoteOffEvent(tick=113, channel=0, data=[88, 0]),
   midi.NoteOnEvent(tick=7, channel=0, data=[81, 80]),
   midi.NoteOnEvent(tick=0, channel=0, data=[89, 80]),
   midi.NoteOffEvent(tick=455, channel=0, data=[81, 0]),
   midi.NoteOffEvent(tick=0, channel=0, data=[89, 0]),
   midi.NoteOnEvent(tick=25, channel=0, data=[93, 80]),
   midi.NoteOffEvent(tick=455, channel=0, data=[93, 0]),
   midi.NoteOnEvent(tick=25, channel=0, data=[81, 80]),
   midi.NoteOnEvent(tick=0, channel=0, data=[88, 80]),
   midi.NoteOffEvent(tick=683, channel=0, data=[81, 0]),
   midi.NoteOffEvent(tick=0, channel=0, data=[88, 0]),
   midi.NoteOnEvent(tick=37, channel=0, data=[86, 80]),
   midi.NoteOffEvent(tick=113, channel=0, data=[86, 0]),
   midi.NoteOnEvent(tick=7, channel=0, data=[84, 80]),
   midi.NoteOffEvent(tick=113, channel=0, data=[84, 0]),
   midi.NoteOnEvent(tick=7, channel=0, data=[81, 80]),
   midi.NoteOnEvent(tick=0, channel=0, data=[86, 80]),
   midi.NoteOffEvent(tick=455, channel=0, data=[81, 0]),
   midi.NoteOffEvent(tick=0, channel=0, data=[86, 0]),
   midi.NoteOnEvent(tick=25, channel=0, data=[89, 80]),
   midi.NoteOffEvent(tick=455, channel=0, data=[89, 0]),
   midi.NoteOnEvent(tick=25, channel=0, data=[84, 80]),
   midi.NoteOnEvent(tick=0, channel=0, data=[93, 80]),
   midi.NoteOffEvent(tick=683, channel=0, data=[84, 0]),
   midi.NoteOffEvent(tick=0, channel=0, data=[93, 0]),
   midi.NoteOnEvent(tick=37, channel=0, data=[94, 80]),
   midi.NoteOffEvent(tick=113, channel=0, data=[94, 0]),
   midi.NoteOnEvent(tick=7, channel=0, data=[93, 80]),
   midi.NoteOffEvent(tick=113, channel=0, data=[93, 0]),
   midi.NoteOnEvent(tick=7, channel=0, data=[86, 80]),
   midi.NoteOnEvent(tick=0, channel=0, data=[94, 80]),
   midi.NoteOffEvent(tick=455, channel=0, data=[86, 0]),
   midi.NoteOffEvent(tick=0, channel=0, data=[94, 0]),
   midi.NoteOnEvent(tick=25, channel=0, data=[98, 80]),
   midi.NoteOffEvent(tick=455, channel=0, data=[98, 0]),
   midi.NoteOnEvent(tick=25, channel=0, data=[88, 80]),
   midi.NoteOnEvent(tick=0, channel=0, data=[93, 80]),
   midi.NoteOffEvent(tick=683, channel=0, data=[88, 0]),
   midi.NoteOffEvent(tick=0, channel=0, data=[93, 0]),
   midi.NoteOnEvent(tick=37, channel=0, data=[91, 80]),
   midi.NoteOffEvent(tick=113, channel=0, data=[91, 0]),
   midi.NoteOnEvent(tick=7, channel=0, data=[89, 80]),
   midi.NoteOffEvent(tick=113, channel=0, data=[89, 0]),
   midi.NoteOnEvent(tick=7, channel=0, data=[82, 80]),
   midi.NoteOnEvent(tick=0, channel=0, data=[91, 80]),
   midi.NoteOffEvent(tick=455, channel=0, data=[82, 0]),
   midi.NoteOffEvent(tick=0, channel=0, data=[91, 0]),
   midi.NoteOnEvent(tick=25, channel=0, data=[86, 80]),
   midi.NoteOffEvent(tick=455, channel=0, data=[86, 0]),
   midi.NoteOnEvent(tick=25, channel=0, data=[86, 80]),
   midi.NoteOnEvent(tick=0, channel=0, data=[88, 80]),
   midi.NoteOnEvent(tick=0, channel=0, data=[93, 80]),
   midi.NoteOffEvent(tick=227, channel=0, data=[86, 0]),
   midi.NoteOffEvent(tick=0, channel=0, data=[88, 0]),
   midi.NoteOffEvent(tick=0, channel=0, data=[93, 0]),
   midi.NoteOnEvent(tick=13, channel=0, data=[81, 80]),
   midi.NoteOffEvent(tick=75, channel=0, data=[81, 0]),
   midi.NoteOnEvent(tick=5, channel=0, data=[86, 80]),
   midi.NoteOffEvent(tick=75, channel=0, data=[86, 0]),
   midi.NoteOnEvent(tick=5, channel=0, data=[88, 80]),
   midi.NoteOffEvent(tick=75, channel=0, data=[88, 0]),
   midi.NoteOnEvent(tick=5, channel=0, data=[93, 80]),
   midi.NoteOffEvent(tick=75, channel=0, data=[93, 0]),
   midi.NoteOnEvent(tick=5, channel=0, data=[97, 80]),
   midi.NoteOffEvent(tick=75, channel=0, data=[97, 0]),
   midi.NoteOnEvent(tick=5, channel=0, data=[100, 80]),
   midi.NoteOffEvent(tick=75, channel=0, data=[100, 0]),
   midi.NoteOnEvent(tick=5, channel=0, data=[105, 80]),
   midi.NoteOffEvent(tick=227, channel=0, data=[105, 0]),
   midi.NoteOnEvent(tick=493, channel=0, data=[86, 64]),
   midi.NoteOffEvent(tick=455, channel=0, data=[86, 0]),
   midi.NoteOnEvent(tick=25, channel=0, data=[86, 64]),
   midi.NoteOffEvent(tick=227, channel=0, data=[86, 0]),
   midi.NoteOnEvent(tick=13, channel=0, data=[86, 64]),
   midi.NoteOffEvent(tick=227, channel=0, data=[86, 0]),
   midi.NoteOnEvent(tick=13, channel=0, data=[88, 64]),
   midi.NoteOffEvent(tick=227, channel=0, data=[88, 0]),
   midi.NoteOnEvent(tick=13, channel=0, data=[89, 64]),
   midi.NoteOffEvent(tick=227, channel=0, data=[89, 0]),
   midi.NoteOnEvent(tick=13, channel=0, data=[77, 64]),
   midi.NoteOnEvent(tick=0, channel=0, data=[81, 64]),
   midi.NoteOnEvent(tick=0, channel=0, data=[84, 64]),
   midi.NoteOffEvent(tick=683, channel=0, data=[77, 0]),
   midi.NoteOffEvent(tick=0, channel=0, data=[81, 0]),
   midi.NoteOffEvent(tick=0, channel=0, data=[84, 0]),
   midi.NoteOnEvent(tick=37, channel=0, data=[91, 64]),
   midi.NoteOffEvent(tick=113, channel=0, data=[91, 0]),
   midi.NoteOnEvent(tick=7, channel=0, data=[89, 64]),
   midi.NoteOffEvent(tick=569, channel=0, data=[89, 0]),
   midi.NoteOnEvent(tick=991, channel=0, data=[77, 64]),
   midi.NoteOnEvent(tick=0, channel=0, data=[82, 64]),
   midi.NoteOnEvent(tick=0, channel=0, data=[86, 64]),
   midi.NoteOffEvent(tick=455, channel=0, data=[77, 0]),
   midi.NoteOffEvent(tick=0, channel=0, data=[82, 0]),
   midi.NoteOffEvent(tick=0, channel=0, data=[86, 0]),
   midi.NoteOnEvent(tick=25, channel=0, data=[81, 64]),
   midi.NoteOnEvent(tick=0, channel=0, data=[85, 64]),
   midi.NoteOffEvent(tick=227, channel=0, data=[81, 0]),
   midi.NoteOffEvent(tick=0, channel=0, data=[85, 0]),
   midi.NoteOnEvent(tick=13, channel=0, data=[86, 64]),
   midi.NoteOffEvent(tick=227, channel=0, data=[86, 0]),
   midi.NoteOnEvent(tick=13, channel=0, data=[88, 64]),
   midi.NoteOffEvent(tick=227, channel=0, data=[88, 0]),
   midi.NoteOnEvent(tick=13, channel=0, data=[81, 64]),
   midi.NoteOffEvent(tick=227, channel=0, data=[81, 0]),
   midi.NoteOnEvent(tick=13, channel=0, data=[86, 64]),
   midi.NoteOnEvent(tick=0, channel=0, data=[91, 64]),
   midi.NoteOnEvent(tick=0, channel=0, data=[93, 64]),
   midi.NoteOffEvent(tick=911, channel=0, data=[86, 0]),
   midi.NoteOffEvent(tick=0, channel=0, data=[91, 0]),
   midi.NoteOffEvent(tick=0, channel=0, data=[93, 0]),
   midi.NoteOnEvent(tick=49, channel=0, data=[72, 64]),
   midi.NoteOnEvent(tick=0, channel=0, data=[75, 64]),
   midi.NoteOffEvent(tick=151, channel=0, data=[72, 0]),
   midi.NoteOffEvent(tick=0, channel=0, data=[75, 0]),
   midi.NoteOnEvent(tick=9, channel=0, data=[82, 64]),
   midi.NoteOffEvent(tick=151, channel=0, data=[82, 0]),
   midi.NoteOnEvent(tick=9, channel=0, data=[83, 64]),
   midi.NoteOffEvent(tick=151, channel=0, data=[83, 0]),
   midi.NoteOnEvent(tick=9, channel=0, data=[77, 64]),
   midi.NoteOnEvent(tick=0, channel=0, data=[84, 64]),
   midi.NoteOffEvent(tick=455, channel=0, data=[77, 0]),
   midi.NoteOffEvent(tick=0, channel=0, data=[84, 0]),
   midi.NoteOnEvent(tick=505, channel=0, data=[86, 64]),
   midi.NoteOffEvent(tick=455, channel=0, data=[86, 0]),
   midi.NoteOnEvent(tick=25, channel=0, data=[86, 64]),
   midi.NoteOffEvent(tick=227, channel=0, data=[86, 0]),
   midi.NoteOnEvent(tick=13, channel=0, data=[86, 64]),
   midi.NoteOffEvent(tick=227, channel=0, data=[86, 0]),
   midi.NoteOnEvent(tick=13, channel=0, data=[88, 64]),
   midi.NoteOffEvent(tick=227, channel=0, data=[88, 0]),
   midi.NoteOnEvent(tick=13, channel=0, data=[89, 64]),
   midi.NoteOffEvent(tick=227, channel=0, data=[89, 0]),
   midi.NoteOnEvent(tick=13, channel=0, data=[77, 64]),
   midi.NoteOnEvent(tick=0, channel=0, data=[81, 64]),
   midi.NoteOnEvent(tick=0, channel=0, data=[84, 64]),
   midi.NoteOffEvent(tick=455, channel=0, data=[77, 0]),
   midi.NoteOffEvent(tick=0, channel=0, data=[81, 0]),
   midi.NoteOffEvent(tick=0, channel=0, data=[84, 0]),
   midi.NoteOnEvent(tick=25, channel=0, data=[84, 68]),
   midi.NoteOffEvent(tick=227, channel=0, data=[84, 0]),
   midi.NoteOnEvent(tick=13, channel=0, data=[91, 70]),
   midi.NoteOffEvent(tick=113, channel=0, data=[91, 0]),
   midi.NoteOnEvent(tick=7, channel=0, data=[89, 71]),
   midi.NoteOffEvent(tick=797, channel=0, data=[89, 0]),
   midi.NoteOnEvent(tick=43, channel=0, data=[89, 78]),
   midi.NoteOffEvent(tick=113, channel=0, data=[89, 0]),
   midi.NoteOnEvent(tick=7, channel=0, data=[91, 79]),
   midi.NoteOffEvent(tick=113, channel=0, data=[91, 0]),
   midi.NoteOnEvent(tick=7, channel=0, data=[82, 80]),
   midi.NoteOnEvent(tick=0, channel=0, data=[86, 80]),
   midi.NoteOnEvent(tick=0, channel=0, data=[93, 80]),
   midi.NoteOffEvent(tick=227, channel=0, data=[82, 0]),
   midi.NoteOffEvent(tick=0, channel=0, data=[86, 0]),
   midi.NoteOffEvent(tick=0, channel=0, data=[93, 0]),
   midi.NoteOnEvent(tick=13, channel=0, data=[101, 80]),
   midi.NoteOffEvent(tick=113, channel=0, data=[101, 0]),
   midi.NoteOnEvent(tick=7, channel=0, data=[103, 81]),
   midi.NoteOffEvent(tick=113, channel=0, data=[103, 0]),
   midi.NoteOnEvent(tick=7, channel=0, data=[105, 81]),
   midi.NoteOffEvent(tick=227, channel=0, data=[105, 0]),
   midi.NoteOnEvent(tick=13, channel=0, data=[89, 82]),
   midi.NoteOffEvent(tick=113, channel=0, data=[89, 0]),
   midi.NoteOnEvent(tick=7, channel=0, data=[91, 82]),
   midi.NoteOffEvent(tick=113, channel=0, data=[91, 0]),
   midi.NoteOnEvent(tick=7, channel=0, data=[84, 82]),
   midi.NoteOnEvent(tick=0, channel=0, data=[89, 82]),
   midi.NoteOnEvent(tick=0, channel=0, data=[93, 82]),
   midi.NoteOffEvent(tick=227, channel=0, data=[84, 0]),
   midi.NoteOffEvent(tick=0, channel=0, data=[89, 0]),
   midi.NoteOffEvent(tick=0, channel=0, data=[93, 0]),
   midi.NoteOnEvent(tick=13, channel=0, data=[101, 83]),
   midi.NoteOffEvent(tick=113, channel=0, data=[101, 0]),
   midi.NoteOnEvent(tick=7, channel=0, data=[103, 83]),
   midi.NoteOffEvent(tick=113, channel=0, data=[103, 0]),
   midi.NoteOnEvent(tick=7, channel=0, data=[105, 84]),
   midi.NoteOffEvent(tick=227, channel=0, data=[105, 0]),
   midi.NoteOnEvent(tick=13, channel=0, data=[89, 84]),
   midi.NoteOffEvent(tick=113, channel=0, data=[89, 0]),
   midi.NoteOnEvent(tick=7, channel=0, data=[91, 85]),
   midi.NoteOffEvent(tick=113, channel=0, data=[91, 0]),
   midi.NoteOnEvent(tick=7, channel=0, data=[83, 85]),
   midi.NoteOnEvent(tick=0, channel=0, data=[86, 85]),
   midi.NoteOnEvent(tick=0, channel=0, data=[93, 85]),
   midi.NoteOffEvent(tick=227, channel=0, data=[83, 0]),
   midi.NoteOffEvent(tick=0, channel=0, data=[86, 0]),
   midi.NoteOffEvent(tick=0, channel=0, data=[93, 0]),
   midi.NoteOnEvent(tick=13, channel=0, data=[101, 86]),
   midi.NoteOffEvent(tick=113, channel=0, data=[101, 0]),
   midi.NoteOnEvent(tick=7, channel=0, data=[103, 86]),
   midi.NoteOffEvent(tick=113, channel=0, data=[103, 0]),
   midi.NoteOnEvent(tick=7, channel=0, data=[105, 86]),
   midi.NoteOffEvent(tick=455, channel=0, data=[105, 0]),
   midi.NoteOnEvent(tick=265, channel=0, data=[86, 88]),
   midi.NoteOffEvent(tick=227, channel=0, data=[86, 0]),
   midi.NoteOnEvent(tick=13, channel=0, data=[88, 89]),
   midi.NoteOffEvent(tick=227, channel=0, data=[88, 0]),
   midi.NoteOnEvent(tick=13, channel=0, data=[89, 90]),
   midi.NoteOffEvent(tick=227, channel=0, data=[89, 0]),
   midi.NoteOnEvent(tick=13, channel=0, data=[86, 90]),
   midi.NoteOnEvent(tick=0, channel=0, data=[89, 90]),
   midi.NoteOnEvent(tick=0, channel=0, data=[93, 90]),
   midi.NoteOffEvent(tick=455, channel=0, data=[86, 0]),
   midi.NoteOffEvent(tick=0, channel=0, data=[89, 0]),
   midi.NoteOffEvent(tick=0, channel=0, data=[93, 0]),
   midi.NoteOnEvent(tick=25, channel=0, data=[74, 92]),
   midi.NoteOffEvent(tick=75, channel=0, data=[74, 0]),
   midi.NoteOnEvent(tick=5, channel=0, data=[77, 92]),
   midi.NoteOffEvent(tick=75, channel=0, data=[77, 0]),
   midi.NoteOnEvent(tick=5, channel=0, data=[82, 92]),
   midi.NoteOffEvent(tick=75, channel=0, data=[82, 0]),
   midi.NoteOnEvent(tick=5, channel=0, data=[86, 92]),
   midi.NoteOffEvent(tick=75, channel=0, data=[86, 0]),
   midi.NoteOnEvent(tick=5, channel=0, data=[89, 92]),
   midi.NoteOffEvent(tick=75, channel=0, data=[89, 0]),
   midi.NoteOnEvent(tick=5, channel=0, data=[94, 93]),
   midi.NoteOffEvent(tick=75, channel=0, data=[94, 0]),
   midi.NoteOnEvent(tick=5, channel=0, data=[98, 93]),
   midi.NoteOffEvent(tick=75, channel=0, data=[98, 0]),
   midi.NoteOnEvent(tick=5, channel=0, data=[101, 93]),
   midi.NoteOffEvent(tick=75, channel=0, data=[101, 0]),
   midi.NoteOnEvent(tick=5, channel=0, data=[106, 93]),
   midi.NoteOffEvent(tick=75, channel=0, data=[106, 0]),
   midi.NoteOnEvent(tick=5, channel=0, data=[110, 94]),
   midi.NoteOffEvent(tick=455, channel=0, data=[110, 0]),
   midi.NoteOnEvent(tick=25, channel=0, data=[94, 95]),
   midi.NoteOffEvent(tick=113, channel=0, data=[94, 0]),
   midi.NoteOnEvent(tick=7, channel=0, data=[91, 95]),
   midi.NoteOnEvent(tick=120, channel=0, data=[84, 96]),
   midi.NoteOnEvent(tick=0, channel=0, data=[96, 96]),
   midi.NoteOffEvent(tick=107, channel=0, data=[91, 0]),
   midi.NoteOffEvent(tick=6, channel=0, data=[84, 0]),
   midi.NoteOffEvent(tick=0, channel=0, data=[96, 0]),
   midi.NoteOnEvent(tick=7, channel=0, data=[84, 96]),
   midi.NoteOffEvent(tick=113, channel=0, data=[84, 0]),
   midi.NoteOnEvent(tick=7, channel=0, data=[89, 96]),
   midi.NoteOffEvent(tick=113, channel=0, data=[89, 0]),
   midi.NoteOnEvent(tick=7, channel=0, data=[91, 96]),
   midi.NoteOffEvent(tick=113, channel=0, data=[91, 0]),
   midi.NoteOnEvent(tick=7, channel=0, data=[84, 96]),
   midi.NoteOnEvent(tick=0, channel=0, data=[96, 96]),
   midi.NoteOffEvent(tick=455, channel=0, data=[84, 0]),
   midi.NoteOffEvent(tick=0, channel=0, data=[96, 0]),
   midi.NoteOnEvent(tick=25, channel=0, data=[72, 96]),
   midi.NoteOnEvent(tick=0, channel=0, data=[76, 96]),
   midi.NoteOffEvent(tick=227, channel=0, data=[72, 0]),
   midi.NoteOffEvent(tick=0, channel=0, data=[76, 0]),
   midi.NoteOnEvent(tick=13, channel=0, data=[86, 96]),
   midi.NoteOnEvent(tick=0, channel=0, data=[94, 96]),
   midi.NoteOnEvent(tick=0, channel=0, data=[98, 96]),
   midi.NoteOffEvent(tick=113, channel=0, data=[86, 0]),
   midi.NoteOffEvent(tick=0, channel=0, data=[94, 0]),
   midi.NoteOffEvent(tick=0, channel=0, data=[98, 0]),
   midi.NoteOnEvent(tick=7, channel=0, data=[84, 96]),
   midi.NoteOnEvent(tick=0, channel=0, data=[93, 96]),
   midi.NoteOnEvent(tick=0, channel=0, data=[96, 96]),
   midi.NoteOffEvent(tick=113, channel=0, data=[84, 0]),
   midi.NoteOffEvent(tick=0, channel=0, data=[93, 0]),
   midi.NoteOffEvent(tick=0, channel=0, data=[96, 0]),
   midi.NoteOnEvent(tick=7, channel=0, data=[88, 96]),
   midi.NoteOnEvent(tick=0, channel=0, data=[91, 96]),
   midi.NoteOffEvent(tick=227, channel=0, data=[88, 0]),
   midi.NoteOffEvent(tick=0, channel=0, data=[91, 0]),
   midi.NoteOnEvent(tick=13, channel=0, data=[72, 96]),
   midi.NoteOnEvent(tick=0, channel=0, data=[84, 96]),
   midi.NoteOffEvent(tick=227, channel=0, data=[72, 0]),
   midi.NoteOffEvent(tick=0, channel=0, data=[84, 0]),
   midi.NoteOnEvent(tick=13, channel=0, data=[81, 96]),
   midi.NoteOnEvent(tick=0, channel=0, data=[84, 96]),
   midi.NoteOnEvent(tick=0, channel=0, data=[89, 96]),
   midi.NoteOnEvent(tick=0, channel=0, data=[93, 96]),
   midi.NoteOffEvent(tick=227, channel=0, data=[81, 0]),
   midi.NoteOffEvent(tick=0, channel=0, data=[84, 0]),
   midi.NoteOffEvent(tick=0, channel=0, data=[89, 0]),
   midi.NoteOffEvent(tick=0, channel=0, data=[93, 0]),
   midi.NoteOnEvent(tick=13, channel=0, data=[81, 96]),
   midi.NoteOnEvent(tick=0, channel=0, data=[93, 96]),
   midi.NoteOffEvent(tick=227, channel=0, data=[81, 0]),
   midi.NoteOffEvent(tick=0, channel=0, data=[93, 0]),
   midi.NoteOnEvent(tick=13, channel=0, data=[81, 96]),
   midi.NoteOnEvent(tick=0, channel=0, data=[93, 96]),
   midi.NoteOffEvent(tick=227, channel=0, data=[81, 0]),
   midi.NoteOffEvent(tick=0, channel=0, data=[93, 0]),
   midi.NoteOnEvent(tick=13, channel=0, data=[82, 96]),
   midi.NoteOnEvent(tick=0, channel=0, data=[94, 96]),
   midi.NoteOffEvent(tick=113, channel=0, data=[82, 0]),
   midi.NoteOffEvent(tick=0, channel=0, data=[94, 0]),
   midi.NoteOnEvent(tick=7, channel=0, data=[81, 96]),
   midi.NoteOnEvent(tick=0, channel=0, data=[84, 96]),
   midi.NoteOnEvent(tick=0, channel=0, data=[93, 96]),
   midi.NoteOffEvent(tick=227, channel=0, data=[81, 0]),
   midi.NoteOffEvent(tick=0, channel=0, data=[84, 0]),
   midi.NoteOffEvent(tick=0, channel=0, data=[93, 0]),
   midi.NoteOnEvent(tick=13, channel=0, data=[81, 96]),
   midi.NoteOffEvent(tick=56, channel=0, data=[81, 0]),
   midi.NoteOnEvent(tick=4, channel=0, data=[84, 96]),
   midi.NoteOffEvent(tick=56, channel=0, data=[84, 0]),
   midi.NoteOnEvent(tick=4, channel=0, data=[89, 96]),
   midi.NoteOffEvent(tick=56, channel=0, data=[89, 0]),
   midi.NoteOnEvent(tick=4, channel=0, data=[93, 96]),
   midi.NoteOffEvent(tick=56, channel=0, data=[93, 0]),
   midi.NoteOnEvent(tick=4, channel=0, data=[96, 96]),
   midi.NoteOffEvent(tick=56, channel=0, data=[96, 0]),
   midi.NoteOnEvent(tick=4, channel=0, data=[101, 96]),
   midi.NoteOffEvent(tick=56, channel=0, data=[101, 0]),
   midi.NoteOnEvent(tick=4, channel=0, data=[105, 96]),
   midi.NoteOffEvent(tick=227, channel=0, data=[105, 0]),
   midi.NoteOnEvent(tick=13, channel=0, data=[72, 96]),
   midi.NoteOnEvent(tick=0, channel=0, data=[84, 96]),
   midi.NoteOffEvent(tick=227, channel=0, data=[72, 0]),
   midi.NoteOffEvent(tick=0, channel=0, data=[84, 0]),
   midi.NoteOnEvent(tick=13, channel=0, data=[79, 96]),
   midi.NoteOnEvent(tick=0, channel=0, data=[82, 96]),
   midi.NoteOnEvent(tick=0, channel=0, data=[88, 96]),
   midi.NoteOnEvent(tick=0, channel=0, data=[91, 96]),
   midi.NoteOffEvent(tick=227, channel=0, data=[79, 0]),
   midi.NoteOffEvent(tick=0, channel=0, data=[82, 0]),
   midi.NoteOffEvent(tick=0, channel=0, data=[88, 0]),
   midi.NoteOffEvent(tick=0, channel=0, data=[91, 0]),
   midi.NoteOnEvent(tick=13, channel=0, data=[79, 96]),
   midi.NoteOnEvent(tick=0, channel=0, data=[91, 96]),
   midi.NoteOffEvent(tick=227, channel=0, data=[79, 0]),
   midi.NoteOffEvent(tick=0, channel=0, data=[91, 0]),
   midi.NoteOnEvent(tick=13, channel=0, data=[79, 96]),
   midi.NoteOnEvent(tick=0, channel=0, data=[91, 96]),
   midi.NoteOffEvent(tick=227, channel=0, data=[79, 0]),
   midi.NoteOffEvent(tick=0, channel=0, data=[91, 0]),
   midi.NoteOnEvent(tick=13, channel=0, data=[81, 96]),
   midi.NoteOnEvent(tick=0, channel=0, data=[93, 96]),
   midi.NoteOffEvent(tick=113, channel=0, data=[81, 0]),
   midi.NoteOffEvent(tick=0, channel=0, data=[93, 0]),
   midi.NoteOnEvent(tick=7, channel=0, data=[79, 96]),
   midi.NoteOnEvent(tick=0, channel=0, data=[91, 96]),
   midi.NoteOnEvent(tick=120, channel=0, data=[84, 96]),
   midi.NoteOffEvent(tick=220, channel=0, data=[79, 0]),
   midi.NoteOffEvent(tick=0, channel=0, data=[91, 0]),
   midi.NoteOffEvent(tick=6, channel=0, data=[84, 0]),
   midi.NoteOnEvent(tick=14, channel=0, data=[85, 96]),
   midi.NoteOffEvent(tick=226, channel=0, data=[85, 0]),
   midi.NoteOnEvent(tick=14, channel=0, data=[77, 96]),
   midi.NoteOnEvent(tick=0, channel=0, data=[89, 96]),
   midi.NoteOffEvent(tick=226, channel=0, data=[77, 0]),
   midi.NoteOffEvent(tick=0, channel=0, data=[89, 0]),
   midi.NoteOnEvent(tick=14, channel=0, data=[76, 96]),
   midi.NoteOnEvent(tick=0, channel=0, data=[88, 96]),
   midi.NoteOffEvent(tick=226, channel=0, data=[76, 0]),
   midi.NoteOffEvent(tick=0, channel=0, data=[88, 0]),
   midi.NoteOnEvent(tick=14, channel=0, data=[77, 96]),
   midi.NoteOnEvent(tick=0, channel=0, data=[81, 96]),
   midi.NoteOnEvent(tick=0, channel=0, data=[89, 96]),
   midi.NoteOffEvent(tick=112, channel=0, data=[77, 0]),
   midi.NoteOffEvent(tick=0, channel=0, data=[81, 0]),
   midi.NoteOffEvent(tick=0, channel=0, data=[89, 0]),
   midi.NoteOnEvent(tick=8, channel=0, data=[77, 96]),
   midi.NoteOffEvent(tick=55, channel=0, data=[77, 0]),
   midi.NoteOnEvent(tick=5, channel=0, data=[81, 96]),
   midi.NoteOffEvent(tick=55, channel=0, data=[81, 0]),
   midi.NoteOnEvent(tick=5, channel=0, data=[86, 96]),
   midi.NoteOffEvent(tick=55, channel=0, data=[86, 0]),
   midi.NoteOnEvent(tick=5, channel=0, data=[89, 96]),
   midi.NoteOffEvent(tick=55, channel=0, data=[89, 0]),
   midi.NoteOnEvent(tick=5, channel=0, data=[93, 96]),
   midi.NoteOffEvent(tick=55, channel=0, data=[93, 0]),
   midi.NoteOnEvent(tick=5, channel=0, data=[98, 96]),
   midi.NoteOffEvent(tick=55, channel=0, data=[98, 0]),
   midi.NoteOnEvent(tick=5, channel=0, data=[101, 96]),
   midi.NoteOffEvent(tick=226, channel=0, data=[101, 0]),
   midi.NoteOnEvent(tick=14, channel=0, data=[77, 96]),
   midi.NoteOnEvent(tick=0, channel=0, data=[89, 96]),
   midi.NoteOffEvent(tick=226, channel=0, data=[77, 0]),
   midi.NoteOffEvent(tick=0, channel=0, data=[89, 0]),
   midi.NoteOnEvent(tick=14, channel=0, data=[79, 96]),
   midi.NoteOnEvent(tick=0, channel=0, data=[84, 96]),
   midi.NoteOnEvent(tick=0, channel=0, data=[91, 96]),
   midi.NoteOffEvent(tick=226, channel=0, data=[79, 0]),
   midi.NoteOffEvent(tick=0, channel=0, data=[84, 0]),
   midi.NoteOffEvent(tick=0, channel=0, data=[91, 0]),
   midi.NoteOnEvent(tick=14, channel=0, data=[77, 96]),
   midi.NoteOnEvent(tick=0, channel=0, data=[89, 96]),
   midi.NoteOffEvent(tick=226, channel=0, data=[77, 0]),
   midi.NoteOffEvent(tick=0, channel=0, data=[89, 0]),
   midi.NoteOnEvent(tick=14, channel=0, data=[76, 96]),
   midi.NoteOnEvent(tick=0, channel=0, data=[88, 96]),
   midi.NoteOffEvent(tick=226, channel=0, data=[76, 0]),
   midi.NoteOffEvent(tick=0, channel=0, data=[88, 0]),
   midi.NoteOnEvent(tick=14, channel=0, data=[77, 96]),
   midi.NoteOnEvent(tick=0, channel=0, data=[89, 96]),
   midi.NoteOffEvent(tick=112, channel=0, data=[77, 0]),
   midi.NoteOffEvent(tick=0, channel=0, data=[89, 0]),
   midi.NoteOnEvent(tick=8, channel=0, data=[81, 96]),
   midi.NoteOnEvent(tick=0, channel=0, data=[84, 96]),
   midi.NoteOnEvent(tick=0, channel=0, data=[88, 96]),
   midi.NoteOnEvent(tick=0, channel=0, data=[93, 96]),
   midi.NoteOffEvent(tick=226, channel=0, data=[81, 0]),
   midi.NoteOffEvent(tick=0, channel=0, data=[84, 0]),
   midi.NoteOffEvent(tick=0, channel=0, data=[88, 0]),
   midi.NoteOffEvent(tick=0, channel=0, data=[93, 0]),
   midi.NoteOnEvent(tick=14, channel=0, data=[81, 96]),
   midi.NoteOffEvent(tick=55, channel=0, data=[81, 0]),
   midi.NoteOnEvent(tick=5, channel=0, data=[84, 96]),
   midi.NoteOffEvent(tick=56, channel=0, data=[84, 0]),
   midi.NoteOnEvent(tick=4, channel=0, data=[88, 96]),
   midi.NoteOffEvent(tick=56, channel=0, data=[88, 0]),
   midi.NoteOnEvent(tick=4, channel=0, data=[93, 96]),
   midi.NoteOffEvent(tick=56, channel=0, data=[93, 0]),
   midi.NoteOnEvent(tick=4, channel=0, data=[96, 96]),
   midi.NoteOffEvent(tick=56, channel=0, data=[96, 0]),
   midi.NoteOnEvent(tick=4, channel=0, data=[100, 96]),
   midi.NoteOffEvent(tick=56, channel=0, data=[100, 0]),
   midi.NoteOnEvent(tick=4, channel=0, data=[105, 96]),
   midi.NoteOffEvent(tick=227, channel=0, data=[105, 0]),
   midi.NoteOnEvent(tick=13, channel=0, data=[84, 96]),
   midi.NoteOffEvent(tick=227, channel=0, data=[84, 0]),
   midi.NoteOnEvent(tick=13, channel=0, data=[84, 96]),
   midi.NoteOnEvent(tick=0, channel=0, data=[89, 96]),
   midi.NoteOffEvent(tick=227, channel=0, data=[84, 0]),
   midi.NoteOffEvent(tick=0, channel=0, data=[89, 0]),
   midi.NoteOnEvent(tick=13, channel=0, data=[88, 96]),
   midi.NoteOffEvent(tick=227, channel=0, data=[88, 0]),
   midi.NoteOnEvent(tick=13, channel=0, data=[86, 96]),
   midi.NoteOffEvent(tick=227, channel=0, data=[86, 0]),
   midi.NoteOnEvent(tick=13, channel=0, data=[84, 96]),
   midi.NoteOffEvent(tick=227, channel=0, data=[84, 0]),
   midi.NoteOnEvent(tick=13, channel=0, data=[77, 96]),
   midi.NoteOnEvent(tick=0, channel=0, data=[82, 96]),
   midi.NoteOffEvent(tick=455, channel=0, data=[77, 0]),
   midi.NoteOffEvent(tick=0, channel=0, data=[82, 0]),
   midi.NoteOnEvent(tick=25, channel=0, data=[77, 96]),
   midi.NoteOnEvent(tick=0, channel=0, data=[82, 96]),
   midi.NoteOnEvent(tick=0, channel=0, data=[86, 96]),
   midi.NoteOffEvent(tick=113, channel=0, data=[77, 0]),
   midi.NoteOffEvent(tick=0, channel=0, data=[82, 0]),
   midi.NoteOffEvent(tick=0, channel=0, data=[86, 0]),
   midi.NoteOnEvent(tick=7, channel=0, data=[88, 96]),
   midi.NoteOffEvent(tick=113, channel=0, data=[88, 0]),
   midi.NoteOnEvent(tick=7, channel=0, data=[89, 96]),
   midi.NoteOffEvent(tick=227, channel=0, data=[89, 0]),
   midi.NoteOnEvent(tick=13, channel=0, data=[84, 96]),
   midi.NoteOnEvent(tick=0, channel=0, data=[88, 96]),
   midi.NoteOnEvent(tick=0, channel=0, data=[91, 96]),
   midi.NoteOffEvent(tick=227, channel=0, data=[84, 0]),
   midi.NoteOffEvent(tick=0, channel=0, data=[88, 0]),
   midi.NoteOffEvent(tick=0, channel=0, data=[91, 0]),
   midi.NoteOnEvent(tick=13, channel=0, data=[84, 96]),
   midi.NoteOffEvent(tick=113, channel=0, data=[84, 0]),
   midi.NoteOnEvent(tick=7, channel=0, data=[91, 96]),
   midi.NoteOnEvent(tick=0, channel=0, data=[96, 96]),
   midi.NoteOffEvent(tick=113, channel=0, data=[91, 0]),
   midi.NoteOffEvent(tick=0, channel=0, data=[96, 0]),
   midi.NoteOnEvent(tick=7, channel=0, data=[84, 96]),
   midi.NoteOffEvent(tick=113, channel=0, data=[84, 0]),
   midi.NoteOnEvent(tick=7, channel=0, data=[88, 96]),
   midi.NoteOnEvent(tick=0, channel=0, data=[91, 96]),
   midi.NoteOffEvent(tick=113, channel=0, data=[88, 0]),
   midi.NoteOffEvent(tick=0, channel=0, data=[91, 0]),
   midi.NoteOnEvent(tick=7, channel=0, data=[84, 96]),
   midi.NoteOffEvent(tick=227, channel=0, data=[84, 0]),
   midi.NoteOnEvent(tick=13, channel=0, data=[81, 96]),
   midi.NoteOnEvent(tick=0, channel=0, data=[84, 96]),
   midi.NoteOnEvent(tick=0, channel=0, data=[88, 96]),
   midi.NoteOnEvent(tick=0, channel=0, data=[93, 96]),
   midi.NoteOffEvent(tick=227, channel=0, data=[81, 0]),
   midi.NoteOffEvent(tick=0, channel=0, data=[84, 0]),
   midi.NoteOffEvent(tick=0, channel=0, data=[88, 0]),
   midi.NoteOffEvent(tick=0, channel=0, data=[93, 0]),
   midi.NoteOnEvent(tick=13, channel=0, data=[81, 96]),
   midi.NoteOnEvent(tick=0, channel=0, data=[93, 96]),
   midi.NoteOffEvent(tick=227, channel=0, data=[81, 0]),
   midi.NoteOffEvent(tick=0, channel=0, data=[93, 0]),
   midi.NoteOnEvent(tick=13, channel=0, data=[79, 96]),
   midi.NoteOnEvent(tick=0, channel=0, data=[85, 96]),
   midi.NoteOnEvent(tick=0, channel=0, data=[88, 96]),
   midi.NoteOnEvent(tick=0, channel=0, data=[91, 96]),
   midi.NoteOffEvent(tick=227, channel=0, data=[79, 0]),
   midi.NoteOffEvent(tick=0, channel=0, data=[85, 0]),
   midi.NoteOffEvent(tick=0, channel=0, data=[88, 0]),
   midi.NoteOffEvent(tick=0, channel=0, data=[91, 0]),
   midi.NoteOnEvent(tick=13, channel=0, data=[79, 96]),
   midi.NoteOnEvent(tick=0, channel=0, data=[91, 96]),
   midi.NoteOffEvent(tick=113, channel=0, data=[79, 0]),
   midi.NoteOffEvent(tick=0, channel=0, data=[91, 0]),
   midi.NoteOnEvent(tick=7, channel=0, data=[77, 96]),
   midi.NoteOnEvent(tick=0, channel=0, data=[89, 96]),
   midi.NoteOffEvent(tick=113, channel=0, data=[89, 0]),
   midi.NoteOnEvent(tick=7, channel=0, data=[84, 96]),
   midi.NoteOnEvent(tick=0, channel=0, data=[88, 96]),
   midi.NoteOffEvent(tick=107, channel=0, data=[77, 0]),
   midi.NoteOffEvent(tick=6, channel=0, data=[84, 0]),
   midi.NoteOffEvent(tick=0, channel=0, data=[88, 0]),
   midi.NoteOnEvent(tick=7, channel=0, data=[89, 96]),
   midi.NoteOffEvent(tick=113, channel=0, data=[89, 0]),
   midi.NoteOnEvent(tick=7, channel=0, data=[88, 96]),
   midi.NoteOffEvent(tick=113, channel=0, data=[88, 0]),
   midi.NoteOnEvent(tick=7, channel=0, data=[89, 96]),
   midi.NoteOffEvent(tick=113, channel=0, data=[89, 0]),
   midi.NoteOnEvent(tick=127, channel=0, data=[81, 96]),
   midi.NoteOnEvent(tick=0, channel=0, data=[84, 96]),
   midi.NoteOnEvent(tick=0, channel=0, data=[88, 96]),
   midi.NoteOffEvent(tick=341, channel=0, data=[81, 0]),
   midi.NoteOffEvent(tick=0, channel=0, data=[84, 0]),
   midi.NoteOffEvent(tick=0, channel=0, data=[88, 0]),
   midi.NoteOnEvent(tick=19, channel=0, data=[74, 80]),
   midi.NoteOnEvent(tick=0, channel=0, data=[77, 80]),
   midi.NoteOffEvent(tick=227, channel=0, data=[74, 0]),
   midi.NoteOffEvent(tick=0, channel=0, data=[77, 0]),
   midi.NoteOnEvent(tick=133, channel=0, data=[86, 80]),
   midi.NoteOffEvent(tick=113, channel=0, data=[86, 0]),
   midi.NoteOnEvent(tick=7, channel=0, data=[86, 80]),
   midi.NoteOffEvent(tick=113, channel=0, data=[86, 0]),
   midi.NoteOnEvent(tick=7, channel=0, data=[88, 80]),
   midi.NoteOffEvent(tick=113, channel=0, data=[88, 0]),
   midi.NoteOnEvent(tick=7, channel=0, data=[89, 80]),
   midi.NoteOffEvent(tick=227, channel=0, data=[89, 0]),
   midi.NoteOnEvent(tick=13, channel=0, data=[84, 80]),
   midi.NoteOnEvent(tick=0, channel=0, data=[88, 80]),
   midi.NoteOnEvent(tick=0, channel=0, data=[91, 80]),
   midi.NoteOffEvent(tick=227, channel=0, data=[84, 0]),
   midi.NoteOffEvent(tick=0, channel=0, data=[88, 0]),
   midi.NoteOffEvent(tick=0, channel=0, data=[91, 0]),
   midi.NoteOnEvent(tick=13, channel=0, data=[89, 84]),
   midi.NoteOffEvent(tick=227, channel=0, data=[89, 0]),
   midi.NoteOnEvent(tick=13, channel=0, data=[88, 88]),
   midi.NoteOffEvent(tick=227, channel=0, data=[88, 0]),
   midi.NoteOnEvent(tick=13, channel=0, data=[77, 92]),
   midi.NoteOnEvent(tick=0, channel=0, data=[89, 92]),
   midi.NoteOffEvent(tick=113, channel=0, data=[77, 0]),
   midi.NoteOffEvent(tick=0, channel=0, data=[89, 0]),
   midi.NoteOnEvent(tick=7, channel=0, data=[77, 94]),
   midi.NoteOnEvent(tick=0, channel=0, data=[89, 94]),
   midi.NoteOffEvent(tick=113, channel=0, data=[77, 0]),
   midi.NoteOnEvent(tick=7, channel=0, data=[77, 96]),
   midi.NoteOnEvent(tick=0, channel=0, data=[81, 96]),
   midi.NoteOffEvent(tick=335, channel=0, data=[89, 0]),
   midi.NoteOffEvent(tick=6, channel=0, data=[77, 0]),
   midi.NoteOffEvent(tick=0, channel=0, data=[81, 0]),
   midi.NoteOnEvent(tick=19, channel=0, data=[73, 96]),
   midi.NoteOnEvent(tick=0, channel=0, data=[76, 96]),
   midi.NoteOnEvent(tick=0, channel=0, data=[81, 96]),
   midi.NoteOffEvent(tick=341, channel=0, data=[73, 0]),
   midi.NoteOffEvent(tick=0, channel=0, data=[76, 0]),
   midi.NoteOffEvent(tick=0, channel=0, data=[81, 0]),
   midi.NoteOnEvent(tick=19, channel=0, data=[72, 96]),
   midi.NoteOnEvent(tick=0, channel=0, data=[76, 96]),
   midi.NoteOnEvent(tick=0, channel=0, data=[79, 96]),
   midi.NoteOffEvent(tick=227, channel=0, data=[72, 0]),
   midi.NoteOffEvent(tick=0, channel=0, data=[76, 0]),
   midi.NoteOffEvent(tick=0, channel=0, data=[79, 0]),
   midi.NoteOnEvent(tick=13, channel=0, data=[71, 96]),
   midi.NoteOnEvent(tick=0, channel=0, data=[74, 96]),
   midi.NoteOnEvent(tick=0, channel=0, data=[77, 96]),
   midi.NoteOnEvent(tick=0, channel=0, data=[81, 96]),
   midi.NoteOffEvent(tick=227, channel=0, data=[71, 0]),
   midi.NoteOffEvent(tick=0, channel=0, data=[74, 0]),
   midi.NoteOffEvent(tick=0, channel=0, data=[77, 0]),
   midi.NoteOffEvent(tick=0, channel=0, data=[81, 0]),
   midi.NoteOnEvent(tick=13, channel=0, data=[101, 96]),
   midi.NoteOffEvent(tick=56, channel=0, data=[101, 0]),
   midi.NoteOnEvent(tick=4, channel=0, data=[100, 96]),
   midi.NoteOffEvent(tick=56, channel=0, data=[100, 0]),
   midi.NoteOnEvent(tick=4, channel=0, data=[98, 96]),
   midi.NoteOffEvent(tick=56, channel=0, data=[98, 0]),
   midi.NoteOnEvent(tick=4, channel=0, data=[95, 96]),
   midi.NoteOffEvent(tick=56, channel=0, data=[95, 0]),
   midi.NoteOnEvent(tick=4, channel=0, data=[89, 96]),
   midi.NoteOffEvent(tick=56, channel=0, data=[89, 0]),
   midi.NoteOnEvent(tick=4, channel=0, data=[88, 96]),
   midi.NoteOffEvent(tick=56, channel=0, data=[88, 0]),
   midi.NoteOnEvent(tick=4, channel=0, data=[86, 96]),
   midi.NoteOffEvent(tick=56, channel=0, data=[86, 0]),
   midi.NoteOnEvent(tick=4, channel=0, data=[83, 96]),
   midi.NoteOffEvent(tick=56, channel=0, data=[83, 0]),
   midi.NoteOnEvent(tick=4, channel=0, data=[77, 96]),
   midi.NoteOffEvent(tick=56, channel=0, data=[77, 0]),
   midi.NoteOnEvent(tick=4, channel=0, data=[76, 96]),
   midi.NoteOffEvent(tick=56, channel=0, data=[76, 0]),
   midi.NoteOnEvent(tick=4, channel=0, data=[74, 96]),
   midi.NoteOffEvent(tick=113, channel=0, data=[74, 0]),
   midi.NoteOnEvent(tick=7, channel=0, data=[74, 96]),
   midi.NoteOnEvent(tick=0, channel=0, data=[77, 96]),
   midi.NoteOnEvent(tick=0, channel=0, data=[82, 96]),
   midi.NoteOffEvent(tick=341, channel=0, data=[74, 0]),
   midi.NoteOffEvent(tick=0, channel=0, data=[77, 0]),
   midi.NoteOffEvent(tick=0, channel=0, data=[82, 0]),
   midi.NoteOnEvent(tick=19, channel=0, data=[74, 96]),
   midi.NoteOnEvent(tick=0, channel=0, data=[86, 96]),
   midi.NoteOffEvent(tick=113, channel=0, data=[74, 0]),
   midi.NoteOffEvent(tick=0, channel=0, data=[86, 0]),
   midi.NoteOnEvent(tick=7, channel=0, data=[74, 96]),
   midi.NoteOnEvent(tick=0, channel=0, data=[86, 96]),
   midi.NoteOffEvent(tick=113, channel=0, data=[74, 0]),
   midi.NoteOffEvent(tick=0, channel=0, data=[86, 0]),
   midi.NoteOnEvent(tick=7, channel=0, data=[76, 96]),
   midi.NoteOnEvent(tick=0, channel=0, data=[88, 96]),
   midi.NoteOffEvent(tick=113, channel=0, data=[76, 0]),
   midi.NoteOffEvent(tick=0, channel=0, data=[88, 0]),
   midi.NoteOnEvent(tick=7, channel=0, data=[77, 96]),
   midi.NoteOnEvent(tick=0, channel=0, data=[89, 96]),
   midi.NoteOffEvent(tick=227, channel=0, data=[77, 0]),
   midi.NoteOffEvent(tick=0, channel=0, data=[89, 0]),
   midi.NoteOnEvent(tick=13, channel=0, data=[79, 96]),
   midi.NoteOnEvent(tick=0, channel=0, data=[84, 96]),
   midi.NoteOnEvent(tick=0, channel=0, data=[88, 96]),
   midi.NoteOnEvent(tick=0, channel=0, data=[91, 96]),
   midi.NoteOffEvent(tick=227, channel=0, data=[79, 0]),
   midi.NoteOffEvent(tick=0, channel=0, data=[84, 0]),
   midi.NoteOffEvent(tick=0, channel=0, data=[88, 0]),
   midi.NoteOffEvent(tick=0, channel=0, data=[91, 0]),
   midi.NoteOnEvent(tick=13, channel=0, data=[77, 96]),
   midi.NoteOnEvent(tick=0, channel=0, data=[89, 96]),
   midi.NoteOffEvent(tick=227, channel=0, data=[77, 0]),
   midi.NoteOffEvent(tick=0, channel=0, data=[89, 0]),
   midi.NoteOnEvent(tick=13, channel=0, data=[76, 96]),
   midi.NoteOnEvent(tick=0, channel=0, data=[88, 96]),
   midi.NoteOffEvent(tick=227, channel=0, data=[76, 0]),
   midi.NoteOffEvent(tick=0, channel=0, data=[88, 0]),
   midi.NoteOnEvent(tick=13, channel=0, data=[77, 96]),
   midi.NoteOnEvent(tick=0, channel=0, data=[89, 96]),
   midi.NoteOffEvent(tick=113, channel=0, data=[77, 0]),
   midi.NoteOffEvent(tick=0, channel=0, data=[89, 0]),
   midi.NoteOnEvent(tick=7, channel=0, data=[77, 96]),
   midi.NoteOnEvent(tick=0, channel=0, data=[89, 96]),
   midi.NoteOffEvent(tick=113, channel=0, data=[77, 0]),
   midi.NoteOnEvent(tick=7, channel=0, data=[77, 96]),
   midi.NoteOnEvent(tick=0, channel=0, data=[82, 96]),
   midi.NoteOffEvent(tick=449, channel=0, data=[89, 0]),
   midi.NoteOffEvent(tick=6, channel=0, data=[77, 0]),
   midi.NoteOffEvent(tick=0, channel=0, data=[82, 0]),
   midi.NoteOnEvent(tick=25, channel=0, data=[77, 96]),
   midi.NoteOnEvent(tick=0, channel=0, data=[82, 96]),
   midi.NoteOffEvent(tick=113, channel=0, data=[77, 0]),
   midi.NoteOffEvent(tick=0, channel=0, data=[82, 0]),
   midi.NoteOnEvent(tick=127, channel=0, data=[72, 96]),
   midi.NoteOnEvent(tick=0, channel=0, data=[77, 96]),
   midi.NoteOnEvent(tick=0, channel=0, data=[81, 96]),
   midi.NoteOffEvent(tick=2051, channel=0, data=[72, 0]),
   midi.NoteOffEvent(tick=0, channel=0, data=[77, 0]),
   midi.NoteOffEvent(tick=0, channel=0, data=[81, 0]),
   midi.TextMetaEvent(tick=1, text='end', data=[101, 110, 100]),
   midi.EndOfTrackEvent(tick=1, data=[])])])
